<?xml version="1.0" encoding="utf-8"?><svg viewBox="0 0 120 120" xmlns="http://www.w3.org/2000/svg" xmlns:xlink="http://www.w3.org/1999/xlink"><style>:root>svg{display:none}:root>svg:target{display:block}</style><svg viewBox="0 0 120 120" id="attention" xmlns="http://www.w3.org/2000/svg"><path d="M59.999 35a5 5 0 00-5 5v20a5 5 0 1010 0V40a5 5 0 00-5-5zm4.6 43.1a3.796 3.796 0 00-.45-.9l-.6-.75a4.999 4.999 0 00-5.45-1.05 5.751 5.751 0 00-1.65 1.05 5 5 0 00-1.45 3.55 5 5 0 00.4 1.9 4.5 4.5 0 002.7 2.7 4.7 4.7 0 003.8 0 4.5 4.5 0 002.7-2.7 5 5 0 00.4-1.9 6.784 6.784 0 000-1 3.198 3.198 0 00-.4-.9zm-4.6-68.1a50 50 0 100 100 50 50 0 000-100zm0 90a40 40 0 110-80.001A40 40 0 0160 100z"/></svg><svg fill="none" viewBox="0 0 21 21" id="callback" xmlns="http://www.w3.org/2000/svg"><g clip-path="url(#bclip0_2_854)" stroke="#fff" stroke-width="2" stroke-linecap="round" stroke-linejoin="round"><path d="M16.625.875l3.5 3.5-3.5 3.5M13.125 4.375h7M19.25 14.805v2.625a1.752 1.752 0 01-1.908 1.75 17.316 17.316 0 01-7.551-2.686 17.062 17.062 0 01-5.25-5.25 17.316 17.316 0 01-2.686-7.586A1.75 1.75 0 013.596 1.75h2.625a1.75 1.75 0 011.75 1.505c.11.84.316 1.665.613 2.459A1.75 1.75 0 018.19 7.56L7.079 8.671a14 14 0 005.25 5.25l1.11-1.11a1.75 1.75 0 011.847-.395c.794.297 1.619.502 2.459.613a1.75 1.75 0 011.505 1.776z"/></g><defs><clipPath id="bclip0_2_854"><path fill="#fff" d="M0 0h21v21H0z"/></clipPath></defs></svg><svg fill="none" viewBox="0 0 49 44" id="chat" xmlns="http://www.w3.org/2000/svg"><path d="M44.38 23.013c2.269-2.336 3.637-5.36 3.637-8.665C48.017 6.952 40.59.957 32.138.957s-15.304 5.995-15.304 13.39L32.138 27.74c2.259 0 4.977-.428 6.907-1.197a9.538 9.538 0 007.058 3.11 6.763 6.763 0 01-1.722-6.639z" fill="#fff"/><path d="M24.722 16.26c4.445 2.344 7.418 6.607 7.418 11.48 0 7.395-6.852 13.39-15.305 13.39-2.258 0-4.977-.428-6.907-1.196a9.538 9.538 0 01-7.058 3.11 6.763 6.763 0 001.723-6.64C2.325 34.07.957 31.044.957 27.74c0-7.396 7.425-13.391 15.878-13.391 2.885 0 5.584.698 7.887 1.913z" fill="#E5181E"/><path d="M24.487 9.565a.957.957 0 100 1.914.957.957 0 000-1.914zM8.609 26.783a.957.957 0 10-.001-1.914.957.957 0 000 1.914z" fill="#000"/><path d="M32.14 0c-8.612 0-15.68 5.937-16.227 13.416C7.713 13.827 0 19.74 0 27.739c0 3.343 1.323 6.581 3.73 9.148a5.817 5.817 0 01-1.537 5.48A.957.957 0 002.87 44c2.728 0 5.356-1.07 7.31-2.955 1.903.649 4.386 1.042 6.655 1.042 8.61 0 15.677-5.936 16.225-13.413 2.003-.089 4.086-.459 5.734-1.02a10.55 10.55 0 007.31 2.955.957.957 0 00.677-1.633 5.817 5.817 0 01-1.538-5.48c2.408-2.567 3.73-5.806 3.73-9.148C48.974 6.037 40.668 0 32.14 0zM16.834 40.174c-2.258 0-4.83-.443-6.554-1.129a.957.957 0 00-1.06.243 8.631 8.631 0 01-4.292 2.548 7.736 7.736 0 00.583-5.694.955.955 0 00-.234-.404c-2.17-2.235-3.365-5.076-3.365-7.999 0-6.74 6.833-12.435 14.922-12.435 7.638 0 14.348 5.312 14.348 12.435 0 6.857-6.437 12.435-14.348 12.435zm26.86-17.827a.959.959 0 00-.233.404 7.736 7.736 0 00.583 5.693 8.628 8.628 0 01-4.293-2.547.957.957 0 00-1.06-.243c-1.493.594-3.623 1.005-5.635 1.105-.28-3.617-2.084-7.017-5.168-9.542h12.476a.956.956 0 100-1.913H24.95c-2.171-1.105-4.61-1.75-7.119-1.885.55-6.424 6.757-11.506 14.308-11.506 8.089 0 14.922 5.694 14.922 12.435 0 2.923-1.195 5.764-3.365 7.999z" fill="#000"/><path d="M24.487 24.87H12.435a.956.956 0 100 1.913h12.052a.956.956 0 100-1.913zM24.487 30.609H8.61a.956.956 0 100 1.913h15.878a.956.956 0 100-1.913zM40.365 9.565H28.313a.956.956 0 100 1.913h12.052a.956.956 0 100-1.913z" fill="#000"/></svg><svg fill="none" viewBox="0 0 44 44" id="check" xmlns="http://www.w3.org/2000/svg"><path d="M10.5 4l-6 6L1 18v7.5l2.5 7 4 .5 2-3L8 27l-1-5 1-5 2.5-4L15 8.5 21.5 7l-2-3 2-3H19l-8.5 3z" fill="#E5181E"/><path d="M12.336 22.018c0 5.341 4.34 9.686 9.673 9.686 12.815-.487 12.812-18.887 0-19.372-5.334 0-9.673 4.345-9.673 9.686zm17.628 0c0 4.393-3.568 7.966-7.955 7.966-10.54-.4-10.536-15.533 0-15.932 4.387 0 7.956 3.574 7.956 7.966z" fill="#000"/><path d="M18.591 21.576a.858.858 0 00-1.214 0 .86.86 0 000 1.216l2.575 2.58a.858.858 0 001.215 0l5.482-5.49a.861.861 0 000-1.216.858.858 0 00-1.215 0l-4.875 4.88-1.968-1.97z" fill="#000"/><path d="M44 22.019c0-3.198-.671-6.284-1.994-9.172a.858.858 0 10-1.562.717c2.45 5.262 2.438 11.632.006 16.896l-.72-1.942a.86.86 0 00-.949-.549l-2.293.39c4.525-10.146-2.953-21.956-14.05-22.155l-1.855-2.241 1.852-2.238a20.118 20.118 0 0113.927 5.958.858.858 0 001.214.001.861.861 0 00.002-1.216A21.83 21.83 0 0022.039.001h-.028C5.21-.116-5.507 18.53 2.965 33.029c8.43 14.637 29.685 14.623 38.1-.013A22.034 22.034 0 0044 22.019zm-7.907 0c0 2.476-.65 4.912-1.881 7.044-3.752 6.71-12.773 9.098-19.341 5.111C2.618 26.82 7.7 8.052 22.006 7.918h.022c7.755.01 14.065 6.335 14.065 14.1zM7.677 7.666c3.384-3.389 7.755-5.432 12.46-5.86l-1.331 1.608a.861.861 0 000 1.098l1.474 1.78C9.374 7.32 2.69 19.894 8.125 29.572l-1.013 2.735-2.856-.487C-.09 24.13 1.332 13.836 7.677 7.666zm.798 25.906l.808-2.18c6.555 9.025 20.442 8.427 26.207-1.117l2.877-.49 1.006 2.716a20.406 20.406 0 01-7.078 7.014c-8.8 5.358-20.972 2.749-26.812-5.742l2.043.348c.05.013.337.08.615-.097a.8.8 0 00.334-.452z" fill="#000"/><path d="M38.611 10.329a.865.865 0 001.122.465c1.03-.486.413-1.974-.657-1.588a.867.867 0 00-.465 1.123z" fill="#000"/></svg><svg fill="none" viewBox="0 0 44 44" id="clock" xmlns="http://www.w3.org/2000/svg"><circle cx="22" cy="22" r="19" stroke="#E5181E" stroke-width="4"/><path d="M9.71 10.57a.86.86 0 100-1.72.86.86 0 000 1.72z" fill="#000"/><path d="M22 0C10.138 0 0 10.125 0 22c0 11.851 10.114 22 22 22 11.852 0 22-10.115 22-22C44 10.148 33.885 0 22 0zm0 42.281C11.006 42.281 1.719 32.994 1.719 22 1.719 11.006 11.006 1.719 22 1.719c10.994 0 20.281 9.287 20.281 20.281 0 10.994-9.287 20.281-20.281 20.281z" fill="#000"/><path d="M22 3.695c-3.617 0-7.34 1.094-10.212 3a.86.86 0 10.95 1.432C15.337 6.403 18.713 5.414 22 5.414c8.99 0 16.586 7.595 16.586 16.586 0 8.99-7.595 16.586-16.586 16.586-8.99 0-16.586-7.595-16.586-16.586 0-3.288.989-6.664 2.713-9.261a.86.86 0 10-1.432-.95c-1.906 2.871-3 6.594-3 10.211 0 9.945 8.345 18.305 18.305 18.305 9.951 0 18.305-8.35 18.305-18.305 0-9.935-8.333-18.305-18.305-18.305z" fill="#000"/><path d="M21.14 19.57A2.582 2.582 0 0019.423 22 2.58 2.58 0 0022 24.578c1.12 0 2.076-.718 2.43-1.719h4.445a.86.86 0 100-1.718H24.43a2.592 2.592 0 00-1.57-1.571v-6.164a.86.86 0 10-1.72 0v6.164zm.86 3.29a.86.86 0 11.002-1.721.86.86 0 01-.002 1.72zM22 10.828a.86.86 0 00.86-.86V8.25a.86.86 0 10-1.72 0v1.719c0 .474.385.86.86.86zM21.14 34.031v1.719a.86.86 0 101.72 0v-1.719a.86.86 0 10-1.72 0zM8.25 21.14a.86.86 0 100 1.72h1.719a.86.86 0 100-1.72H8.25zM35.75 22.86a.86.86 0 100-1.72h-1.719a.86.86 0 100 1.72h1.719zM11.67 32.33a.859.859 0 001.215 0l1.216-1.215a.86.86 0 00-1.215-1.216l-1.216 1.216a.86.86 0 000 1.216zM32.331 11.67a.86.86 0 00-1.215 0L29.9 12.884a.86.86 0 001.216 1.216l1.215-1.216a.86.86 0 000-1.216zM31.116 29.9a.86.86 0 00-1.216 1.216l1.216 1.215a.86.86 0 001.215-1.215L31.115 29.9zM12.886 14.1a.86.86 0 001.215-1.215l-1.216-1.216a.86.86 0 00-1.215 1.216l1.216 1.216z" fill="#000"/></svg><svg fill="none" viewBox="0 0 20 20" id="close" xmlns="http://www.w3.org/2000/svg"><g clip-path="url(#fclip0_67_1378)"><path d="M11.104 10.001l8.667-8.666A.781.781 0 1018.666.23L9.999 8.896 1.333.23A.781.781 0 10.228 1.335L8.895 10 .228 18.667a.781.781 0 101.105 1.105L10 11.106l8.667 8.666a.779.779 0 001.105 0 .781.781 0 000-1.105l-8.667-8.666z" fill="#828282"/></g><defs><clipPath id="fclip0_67_1378"><path fill="#fff" d="M0 0h20v20H0z"/></clipPath></defs></svg><svg fill="none" viewBox="0 0 48 48" id="credits" xmlns="http://www.w3.org/2000/svg"><g clip-path="url(#gclip0_128_1312)"><path d="M.938 21.123h39.255v5.764H.938v-5.764z" fill="#E5181E"/><path d="M47.147 9.078a3.582 3.582 0 00-2.453-1.265L10.892 4.991a3.582 3.582 0 00-2.628.84 3.581 3.581 0 00-1.263 2.44l-.68 6.381H3.605A3.61 3.61 0 000 18.257v21.16a3.61 3.61 0 003.605 3.605h33.92a3.61 3.61 0 003.605-3.605v-3.433l1.204.1a3.61 3.61 0 003.893-3.293l1.76-21.085a3.582 3.582 0 00-.84-2.628zm-7.892 30.339c0 .954-.776 1.73-1.73 1.73H3.605c-.954 0-1.73-.776-1.73-1.73v-21.16c0-.954.776-1.73 1.73-1.73h33.92c.954 0 1.73.776 1.73 1.73v21.16zM46.12 11.55l-1.761 21.086c-.08.95-.918 1.66-1.868 1.58l-1.36-.113V18.257a3.61 3.61 0 00-3.605-3.605H8.206l.66-6.191.002-.021c.08-.951.917-1.66 1.868-1.58l33.802 2.822c.461.038.88.254 1.178.607.298.353.441.8.403 1.26z" fill="#000"/><path d="M35.331 30.612H26.31a.937.937 0 00-.938.938v5.886c0 .518.42.938.938.938h9.022c.518 0 .938-.42.938-.938V31.55a.937.937 0 00-.938-.938zm-.937 5.887h-7.148v-4.012h7.148V36.5z" fill="#000"/></g><defs><clipPath id="gclip0_128_1312"><path fill="#fff" d="M0 0h48v48H0z"/></clipPath></defs></svg><svg fill="none" viewBox="0 0 35 44" id="doc" xmlns="http://www.w3.org/2000/svg"><path d="M31.797 6.016h-3.438L6.016 37.469v3.953c0 .95.769 1.719 1.718 1.719h24.063c.95 0 1.719-.77 1.719-1.72V7.735c0-.95-.77-1.718-1.72-1.718z" fill="#E5181E"/><path d="M26.64.86H11.884c-.247 0-.49.053-.711.154L1.014 11.172c-.101.22-.155.464-.155.712V35.75c0 .95.77 1.719 1.72 1.719H26.64c.95 0 1.718-.77 1.718-1.719V2.578c0-.95-.769-1.719-1.718-1.719z" fill="#fff"/><path d="M16.328 6.016h6.875v5.156h-6.875V6.016z" fill="#fff"/><path d="M11.171 1.014v10.158H1.014a1.7 1.7 0 01.348-.504l9.306-9.305a1.7 1.7 0 01.503-.349z" fill="#E5181E"/><path d="M6.016 17.188a.86.86 0 10-.001-1.72.86.86 0 000 1.72z" fill="#000"/><path d="M31.797 5.156h-2.578V2.578A2.581 2.581 0 0026.64 0H11.884C11.2 0 10.54.275 10.06.755L.755 10.06A2.59 2.59 0 000 11.883V35.75a2.58 2.58 0 002.578 2.578h2.578v3.094A2.581 2.581 0 007.734 44h24.063a2.581 2.581 0 002.578-2.578V7.734a2.581 2.581 0 00-2.578-2.578zM10.312 2.934v7.378H2.934l7.378-7.378zM2.579 36.61a.86.86 0 01-.86-.859V12.031h9.454a.86.86 0 00.86-.86V1.72H26.64a.86.86 0 01.859.86V35.75a.86.86 0 01-.86.86H2.579zm30.078 4.813a.86.86 0 01-.86.86H7.735a.86.86 0 01-.859-.86v-3.094h19.766a2.58 2.58 0 002.578-2.578V6.875h2.578a.86.86 0 01.86.86v33.687z" fill="#000"/><path d="M23.203 5.156h-6.875a.86.86 0 00-.86.86v5.156c0 .475.386.86.86.86h6.875a.86.86 0 00.86-.86V6.016a.86.86 0 00-.86-.86zm-.86 5.157h-5.155V6.875h5.156v3.438zM23.203 15.469H9.453a.86.86 0 100 1.719h13.75a.86.86 0 100-1.72zM23.203 20.625H6.016a.86.86 0 100 1.719h17.187a.86.86 0 100-1.72zM23.203 25.781H6.016a.86.86 0 000 1.719h17.187a.86.86 0 100-1.719zM23.203 30.938H6.016a.86.86 0 100 1.718h17.187a.86.86 0 100-1.718z" fill="#000"/></svg><svg viewBox="0 0 8 9" id="down" xmlns="http://www.w3.org/2000/svg"><path d="M3.646 8.354a.5.5 0 00.708 0l3.182-3.182a.5.5 0 10-.708-.708L4 7.293 1.172 4.464a.5.5 0 10-.708.708l3.182 3.182zM3.5 0v8h1V0h-1z"/></svg><svg fill="none" viewBox="0 0 48 48" id="guarantee" xmlns="http://www.w3.org/2000/svg"><path d="M28 31v5.5l2.5-1.5 3 2v-6.5l2-2-1-3.5-1.5-2.5-2-.5-3 .5-2 2.5v3l2 3z" fill="#F47920"/><path d="M16.5 13.688a.938.938 0 100-1.876.938.938 0 000 1.876zM16.5 19.313a.938.938 0 100-1.876.938.938 0 000 1.875z" fill="#000"/><path d="M14.625 48h22.5a6.57 6.57 0 006.563-6.563.937.937 0 00-.938-.937h-2.813V4.687A4.693 4.693 0 0035.25 0H8.062a3.754 3.754 0 00-3.75 3.75v4.688c0 .517.42.937.938.937h4.688v33.737c0 2.547 1.939 4.888 4.687 4.888zm22.5-1.875H18.373c.59-.784.94-1.768.94-2.822v-.938h22.405c-.435 2.138-2.33 3.76-4.593 3.76zm.938-41.438V40.5H18.375a.937.937 0 00-.938.938v1.874a2.816 2.816 0 01-2.812 2.813c-1.68 0-2.813-1.455-2.813-3.013V3.75c0-.676-.18-1.318-.5-1.875H35.25a2.816 2.816 0 012.813 2.813zM6.186 7.5V3.75c0-1.034.842-1.875 1.875-1.875 1.026 0 1.876.827 1.876 1.875V7.5h-3.75z" fill="#000"/><path d="M24.938 26.813a5.57 5.57 0 001.875 4.189v6.123a.937.937 0 001.457.78l2.293-1.528 2.292 1.528a.937.937 0 001.458-.78v-6.123a5.57 5.57 0 001.874-4.19 5.631 5.631 0 00-5.624-5.625 5.631 5.631 0 00-5.625 5.625zm6.145 7.657a.938.938 0 00-1.04 0l-1.355.903v-3.256c.595.211 1.226.32 1.875.32.648 0 1.279-.109 1.875-.32v3.256l-1.356-.903zm3.23-7.657a3.75 3.75 0 01-3.75 3.75 3.748 3.748 0 01-3.75-3.75 3.754 3.754 0 013.75-3.75 3.754 3.754 0 013.75 3.75zM16.5 8.063h16.875a.937.937 0 100-1.876H16.5a.937.937 0 100 1.875zM20.25 13.688h13.125a.937.937 0 100-1.876H20.25a.937.937 0 100 1.876zM20.25 19.313h13.125a.937.937 0 100-1.875H20.25a.937.937 0 100 1.875zM16.5 30.563h5.625a.937.937 0 100-1.875H16.5a.937.937 0 100 1.875zM16.5 24.938h5.625a.937.937 0 100-1.875H16.5a.937.937 0 100 1.875zM16.5 36.188h5.625a.937.937 0 100-1.876H16.5a.937.937 0 100 1.876z" fill="#000"/></svg><svg fill="none" viewBox="0 0 45 44" id="hands" xmlns="http://www.w3.org/2000/svg"><path d="M37 10l-4.5 2.5-.5 1 7.5 9.5 4.5-3.5-7-9.5zM1.811 19.125l3.68 3.673 1.136.213 7.619-9.805-4.687-3.404-7.748 9.323z" fill="#E5181E"/><g clip-path="url(#kclip0_511_1453)" fill="#000"><path d="M44.82 18.765L37.455 9.2a.863.863 0 00-1.146-.202l-4.755 3.024h-6.201c-.08 0-.16.017-.238.04l-4.808 1.384-4.989-1.365-4.848-3.083a.862.862 0 00-1.134.186L1.19 19.273a.863.863 0 00.11 1.195l4.269 3.675 3.83 5.161a3.053 3.053 0 00.067 4.242 3.036 3.036 0 001.85.876 3.029 3.029 0 00.857 2.622 3.03 3.03 0 002.156.893l.032-.001-.001.062c0 .814.317 1.58.893 2.156a3.03 3.03 0 002.632.856c.066.678.359 1.338.877 1.856a3.038 3.038 0 002.156.892 3.04 3.04 0 002.156-.892l.466-.466.196.158c.59.57 1.355.856 2.12.856.781 0 1.562-.297 2.156-.892a3.04 3.04 0 00.891-2.203 3.043 3.043 0 003.095-3.094 3.032 3.032 0 002.204-.892 3.04 3.04 0 00.891-2.204 3.041 3.041 0 002.204-.892 3.054 3.054 0 00.4-3.816l2.797-5.857 4.205-3.619c.347-.299.4-.817.12-1.18zm-34.626-7.898l3.486 2.216-7.583 9.239-3.038-2.616 7.135-8.84zm.492 19.587l1.052-1.052a1.32 1.32 0 01.818-.382l.023-.002a1.316 1.316 0 011.057.41c.488.516.462 1.358-.058 1.877l-1.02 1.02a1.325 1.325 0 01-1.872 0 1.325 1.325 0 010-1.871zm2.707 5.37a1.314 1.314 0 01-.388-.936c0-.354.138-.686.388-.936l2.04-2.04a1.337 1.337 0 011.505-.26c.514.245.804.804.729 1.367-.04.3-.18.582-.395.797l-2.007 2.007c-.25.25-.583.388-.936.388-.354 0-.686-.137-.936-.388zm3.08 3.11a1.314 1.314 0 01-.387-.936c0-.353.137-.686.387-.936l2.04-2.04a1.338 1.338 0 011.6-.21c.467.272.712.806.632 1.338a1.398 1.398 0 01-.393.776l-2.007 2.008c-.25.25-.582.387-.936.387-.353 0-.686-.137-.936-.387zm3.509 2.712a1.325 1.325 0 010-1.871l1.052-1.053a1.376 1.376 0 01.102-.092c.17-.139.372-.232.586-.272l.015-.002a1.24 1.24 0 01.113-.016c.015 0 .03 0 .045-.002.031-.002.062-.004.093-.003a1.315 1.315 0 011.03.515c.396.518.343 1.289-.15 1.782l-1.015 1.014a1.325 1.325 0 01-1.871 0zm16.095-9.629a1.325 1.325 0 01-1.872 0 .764.764 0 00-.059-.052L28.6 26.358a.863.863 0 00-1.227 1.214l5.608 5.667.002.002a1.325 1.325 0 01-.936 2.26c-.354 0-.686-.139-.936-.389l-3.751-3.79a.863.863 0 10-1.227 1.214l3.694 3.732a.818.818 0 00.06.068 1.325 1.325 0 010 1.872 1.326 1.326 0 01-1.871 0l-2.048-2.07a.863.863 0 00-1.226 1.214l1.99 2.01a.774.774 0 00.06.068 1.325 1.325 0 01-1.871 1.872c-.06-.06-.129-.105-.196-.156-.056-.043-.07-.073-.042-.141.028-.07.07-.132.1-.202.03-.078.056-.158.081-.239.132-.426.171-.885.112-1.327a3.036 3.036 0 00-1.289-2.1 3.028 3.028 0 00-1.283-.498c.222-.98-.045-2.043-.739-2.776a3.027 3.027 0 00-2.264-.954 3.046 3.046 0 00-.816-2.156 3.028 3.028 0 00-2.173-.954 3.105 3.105 0 00-.736.078 3.026 3.026 0 00-1.009-1.849 3.025 3.025 0 00-1.95-.74 3.056 3.056 0 00-2.083.784l-3.335-4.494 7.979-9.72 2.543.695-3.321 5.86a3.029 3.029 0 00-.286 2.316 3.028 3.028 0 001.946 2.07 3.03 3.03 0 001.806.056 3.03 3.03 0 001.84-1.435l2.157-3.809 3.854.274 10.261 10.26a1.326 1.326 0 010 1.872zm.357-3.955l-9.626-9.625a.863.863 0 00-.549-.25l-4.718-.335a.877.877 0 00-.812.435l-2.426 4.282a1.316 1.316 0 01-.799.623c-.34.095-.697.05-1.005-.124a1.315 1.315 0 01-.623-.799c-.094-.34-.05-.697.124-1.005l3.24-5.716 1.312-.378.026-.009 4.899-1.415h5.918l7.39 9.394-2.35 4.922zm3.481-6.276l-6.833-8.692 3.487-2.218 6.385 8.294-3.039 2.616z"/><path d="M27.656 10.401a.86.86 0 00.61-.253l5.893-5.893a.863.863 0 10-1.22-1.22l-5.893 5.893a.863.863 0 00.61 1.473zM17.733 10.148a.86.86 0 001.22 0 .863.863 0 000-1.22L13.06 3.035a.863.863 0 10-1.22 1.22l5.893 5.893zM23 10.401a.863.863 0 00.863-.863V4.661a.863.863 0 00-1.725 0v4.877c0 .477.386.863.862.863zM22.205 1.534c.137.332.478.55.839.531a.87.87 0 00.778-.597.87.87 0 00-.296-.948.872.872 0 00-1.003-.033.869.869 0 00-.318 1.047z"/></g><defs><clipPath id="kclip0_511_1453"><path fill="#fff" transform="translate(1)" d="M0 0h44v44H0z"/></clipPath></defs></svg><svg fill="none" viewBox="0 0 58 45" id="learn" xmlns="http://www.w3.org/2000/svg"><path d="M51.484 7.95l4.869-.815v32.139l-27.615 4.509-27.614-4.51V7.136l4.868.815" fill="#E5181E"/><path d="M51.485 34.566l-22.746 4.81-22.746-4.81V1.123l22.746 4.81 22.746-4.81v33.443z" fill="#fff"/><path d="M57.078 6.278a1.125 1.125 0 00-.911-.25l-3.56.595v-5.5A1.124 1.124 0 0051.251.025l-22.513 4.76L6.224.024a1.124 1.124 0 00-1.356 1.1v5.5L1.31 6.026A1.136 1.136 0 000 7.136v32.138c0 .55.397 1.018.939 1.108l22.665 3.775c.603.1 1.192-.32 1.293-.924.1-.603-.32-1.192-.924-1.292L2.247 38.322V8.463l2.621.439v25.664c0 .531.372.99.891 1.1l22.746 4.809c.153.032.312.032.465 0l22.746-4.81c.52-.11.891-.568.891-1.099V8.902l2.621-.439v29.859l-21.8 3.612c-.604.1-1.025.69-.925 1.293.1.603.688 1.025 1.292.924l22.74-3.768c.543-.09.94-.559.94-1.109V7.136c0-.33-.145-.644-.397-.858zM7.116 2.51l20.498 4.334v31.145L7.116 33.656V2.51zM50.36 33.655L29.862 37.99V6.845L50.36 2.51v31.145z" fill="#000"/><path d="M24.085 30.11l-12.743-2.695a1.124 1.124 0 10-.465 2.198l12.743 2.695c.617.13 1.231-.29 1.339-.91a1.133 1.133 0 00-.874-1.289zM24.085 24.098l-12.743-2.695a1.124 1.124 0 10-.465 2.2l12.743 2.694c.617.13 1.231-.291 1.339-.91a1.133 1.133 0 00-.874-1.29zM24.084 18.086l-12.742-2.694a1.123 1.123 0 10-.465 2.198l12.743 2.695c.617.13 1.231-.29 1.339-.91a1.133 1.133 0 00-.875-1.289zM10.877 11.579l12.743 2.694c.617.13 1.231-.29 1.339-.91a1.133 1.133 0 00-.874-1.289L11.342 9.38a1.123 1.123 0 10-.465 2.199zM33.593 14.297c.077 0 .155-.008.233-.024l12.743-2.694a1.124 1.124 0 00-.465-2.2l-12.742 2.695c-1.28.271-1.08 2.223.231 2.223zM33.593 20.31c.077 0 .155-.009.233-.025L46.57 17.59a1.124 1.124 0 00-.465-2.199l-12.742 2.694c-1.28.271-1.08 2.223.231 2.223zM33.593 26.321c.077 0 .155-.008.233-.024l12.743-2.695a1.124 1.124 0 00-.465-2.198l-12.742 2.694c-1.28.27-1.08 2.223.231 2.223zM46.103 27.415L33.36 30.109a1.134 1.134 0 00-.874 1.289c.105.62.724 1.04 1.34.91l12.742-2.694a1.124 1.124 0 00-.465-2.199zM28.692 45a1.123 1.123 0 100-2.245 1.123 1.123 0 000 2.245z" fill="#000"/></svg><svg fill="none" viewBox="0 0 18 18" id="list" xmlns="http://www.w3.org/2000/svg"><path d="M6 13.5h9.75M2.25 13.5h.008M6 9h9.75M2.25 9h.008M6 4.5h9.75M2.25 4.5h.008" stroke="#fff" stroke-width="2" stroke-linecap="round" stroke-linejoin="round"/></svg><svg fill="none" viewBox="0 0 5 8" id="next" xmlns="http://www.w3.org/2000/svg"><path d="M4.354 4.354a.5.5 0 000-.708L1.172.464a.5.5 0 10-.708.708L3.293 4 .464 6.828a.5.5 0 10.708.708l3.182-3.182zM3 4.5h1v-1H3v1z" fill="#000"/></svg><svg viewBox="0 0 24 24" id="pin" xmlns="http://www.w3.org/2000/svg"><path d="M12 10.8a2 2 0 100-3.999 2 2 0 000 4zm-.71 6.91a1.002 1.002 0 001.42 0l4.09-4.1a6.79 6.79 0 10-9.6 0l4.09 4.1zM7.23 8.34a4.81 4.81 0 012.13-3.55 4.81 4.81 0 015.28 0 4.82 4.82 0 01.75 7.41L12 15.59 8.61 12.2a4.77 4.77 0 01-1.38-3.86zM19 20H5a1 1 0 100 2h14a1 1 0 000-2z"/></svg><svg fill="none" viewBox="0 0 44 44" id="repair" xmlns="http://www.w3.org/2000/svg"><path d="M41.882 35.804a4.299 4.299 0 01-6.077 6.077L24.313 29.4l5.066-5.065 12.503 11.47z" fill="#E5181E"/><path d="M26.848 22.012l2.53 2.322-5.066 5.064-2.326-2.525 4.861-4.861z" fill="#FF9A9D"/><path d="M42.736 6.124l-3.814 3.844H36.49l-2.375-2.46V5.077l3.759-3.814a7.723 7.723 0 00-2.47-.404c-5.295 0-9.014 5.208-7.33 10.205l-7.303 7.303-.006-.006-11.4-11.425v-2.43L3.29.859.86 3.29l3.646 6.077 2.43.001 11.4 11.425.005.005-7.277 7.277C6.076 26.394.86 30.1.86 35.405c0 .864.142 1.695.403 2.47l3.815-3.845h2.431l2.46 2.46v2.432l-3.844 3.815a7.722 7.722 0 002.47.403c5.304 0 9.01-5.218 7.33-10.205l17.01-17.01a7.734 7.734 0 009.802-9.8z" fill="#E9EEF0"/><path d="M29.807 13.333a.859.859 0 10-.001 1.718.859.859 0 000-1.718zM14.192 28.947a.859.859 0 100 1.718.859.859 0 000-1.718z" fill="#000"/><path d="M42.93 5.287a.859.859 0 00-.803.232l-3.563 3.59h-1.708l-1.88-1.948V5.43l3.511-3.564A.859.859 0 0038.15.448 8.572 8.572 0 0035.405 0a8.499 8.499 0 00-6.976 3.58c-1.53 2.131-2.002 4.742-1.326 7.24l-6.33 6.33L10.225 6.58V4.506a.86.86 0 00-.417-.737L3.733.123a.859.859 0 00-1.05.129l-2.43 2.43a.86.86 0 00-.13 1.05L3.77 9.808a.86.86 0 00.736.418H6.58l10.547 10.57-6.306 6.307c-2.498-.676-5.11-.203-7.242 1.328A8.496 8.496 0 000 35.406c0 .938.15 1.862.448 2.744a.859.859 0 001.425.33l3.562-3.59h1.717l1.957 1.957v1.717l-3.59 3.563a.86.86 0 00.33 1.424 8.57 8.57 0 002.744.448 8.497 8.497 0 006.976-3.579c1.53-2.131 2.003-4.743 1.327-7.241l5.065-5.065 1.16 1.26-.532.532a.86.86 0 101.215 1.216l.482-.482 10.886 11.824a5.155 5.155 0 007.318.025 5.164 5.164 0 000-7.292l-.028-.026L30.62 24.307l.477-.477a.86.86 0 10-1.216-1.215l-.529.529-1.262-1.159 5.089-5.09c.723.194 1.47.292 2.226.292 4.739 0 8.594-3.855 8.594-8.593 0-.94-.151-1.862-.448-2.744a.859.859 0 00-.62-.563zM7.545 8.76a.85.85 0 00-.608-.244H4.992l-3.05-5.093 1.482-1.481 5.083 3.05v1.944c0 .228.09.446.252.607l10.798 10.823-1.215 1.215L7.544 8.76zm21.86 16.763l11.882 10.901a3.438 3.438 0 01-4.863 4.861l-10.92-11.862 3.9-3.9zm-1.268-1.163l-3.799 3.798-1.16-1.26 3.696-3.697 1.263 1.159zm7.27-8.891c-.752 0-1.492-.121-2.197-.359a.86.86 0 00-.882.207l-17.01 17.01a.86.86 0 00-.207.882 6.805 6.805 0 01-.938 6.209 6.796 6.796 0 01-5.579 2.862c-.251 0-.501-.013-.749-.04l2.73-2.708a.859.859 0 00.254-.61V36.49a.859.859 0 00-.252-.608l-2.46-2.46a.86.86 0 00-.608-.252H5.077a.86.86 0 00-.61.254l-2.708 2.73a6.95 6.95 0 01-.04-.75 6.795 6.795 0 012.862-5.579 6.804 6.804 0 016.209-.938c.309.105.65.025.882-.206l17.01-17.01a.86.86 0 00.207-.882 6.801 6.801 0 01.935-6.206 6.797 6.797 0 015.58-2.865c.26 0 .518.014.773.042l-2.673 2.713a.859.859 0 00-.247.603v2.431c0 .223.086.437.24.597l2.375 2.46a.859.859 0 00.619.263h2.43a.859.859 0 00.61-.254l2.709-2.73a6.883 6.883 0 01-6.834 7.624z" fill="#000"/><path d="M26.768 16.015L16.014 26.77a.86.86 0 001.216 1.215L27.984 17.23a.859.859 0 10-1.216-1.215zM37.629 38.844a.86.86 0 001.213-1.217l-7.746-7.722a.86.86 0 00-1.213 1.217l7.746 7.722z" fill="#000"/></svg><svg fill="none" viewBox="0 0 44 44" id="research" xmlns="http://www.w3.org/2000/svg"><path d="M42.385 38.74a2.577 2.577 0 01-1.823 4.4c-.66 0-1.319-.251-1.823-.755l-8.299-8.299a21.71 21.71 0 003.646-3.645l8.299 8.299z" fill="#E5181E"/><path d="M30.408 26.762l3.68 3.679a21.713 21.713 0 01-3.646 3.645l-3.68-3.679a16.438 16.438 0 003.645-3.645h.001z" fill="#FF9A9D"/><path d="M33.516 17.188a16.24 16.24 0 01-3.11 9.574 16.438 16.438 0 01-3.644 3.644 16.24 16.24 0 01-9.575 3.11C8.184 33.516.86 26.19.86 17.188.86 8.184 8.184.858 17.187.858c9.004 0 16.329 7.325 16.329 16.328z" fill="#E5181E"/><path d="M17.188 4.297c7.107 0 12.89 5.783 12.89 12.89 0 7.108-5.783 12.891-12.89 12.891-7.108 0-12.891-5.783-12.891-12.89 0-7.108 5.783-12.891 12.89-12.891z" fill="#fff"/><path d="M42.993 38.132l-11.471-11.47a17.033 17.033 0 002.853-9.474C34.375 7.71 26.665 0 17.187 0 7.71 0 0 7.71 0 17.188c0 9.477 7.71 17.187 17.188 17.187 3.399 0 6.659-.984 9.473-2.853l3.17 3.17.002.002 8.299 8.299A3.415 3.415 0 0040.562 44c.918 0 1.782-.358 2.43-1.007A3.414 3.414 0 0044 40.563c0-.919-.358-1.782-1.007-2.43zM28.06 30.49c.89-.728 1.703-1.54 2.43-2.43l2.438 2.438a20.865 20.865 0 01-2.43 2.43L28.06 30.49zM1.719 17.188c0-8.53 6.939-15.47 15.469-15.47 8.529 0 15.468 6.94 15.468 15.47 0 3.28-1.018 6.416-2.945 9.069a15.545 15.545 0 01-3.454 3.454 15.336 15.336 0 01-9.07 2.945c-8.529 0-15.468-6.939-15.468-15.468zm40.059 24.59a1.708 1.708 0 01-1.215.503c-.46 0-.89-.179-1.216-.503l-7.63-7.631c.87-.747 1.683-1.56 2.43-2.43l7.63 7.63c.325.325.504.756.504 1.215 0 .46-.179.89-.503 1.216z" fill="#000"/><path d="M30.938 17.188c0-7.582-6.169-13.75-13.75-13.75-7.582 0-13.75 6.168-13.75 13.75 0 7.581 6.168 13.75 13.75 13.75 7.581 0 13.75-6.169 13.75-13.75zm-13.75 12.03c-6.634 0-12.032-5.396-12.032-12.03 0-6.634 5.397-12.032 12.032-12.032 6.634 0 12.03 5.397 12.03 12.032 0 6.634-5.396 12.03-12.03 12.03z" fill="#000"/><path d="M26.324 14.609a.86.86 0 00.494-1.11 10.313 10.313 0 00-3.726-4.763 10.24 10.24 0 00-5.904-1.861.86.86 0 000 1.719c3.531 0 6.757 2.219 8.026 5.521a.86.86 0 001.11.494zM26.64 16.328a.86.86 0 10.001 1.72.86.86 0 000-1.72z" fill="#000"/></svg><svg fill="none" viewBox="0 0 21 21" id="search" xmlns="http://www.w3.org/2000/svg"><path d="M20.8 19.858l-5.421-5.336c1.42-1.542 2.292-3.582 2.292-5.827C17.671 3.892 13.715 0 8.835 0 3.955 0 0 3.892 0 8.695c0 4.802 3.955 8.694 8.835 8.694 2.109 0 4.042-.729 5.561-1.941l5.443 5.356a.687.687 0 00.961 0 .662.662 0 000-.946zM8.836 16.052c-4.129 0-7.476-3.294-7.476-7.357 0-4.063 3.347-7.357 7.476-7.357s7.476 3.294 7.476 7.357c0 4.063-3.347 7.357-7.476 7.357z" fill="#252525"/></svg><svg fill="none" viewBox="0 0 48 48" id="secure-shield" xmlns="http://www.w3.org/2000/svg"><g clip-path="url(#sclip0_182_1262)"><path d="M21.5 32L35 19v-2.5l-1.5-1-2.5 1-2.5 3L23 25l-3 2-4-4.5-2.5-.5-1 2.5 6.5 7 2.5.5z" fill="#F47920"/><path d="M43.727 8.289C37.123 6.479 30.48 3.66 24.517.14a1.01 1.01 0 00-1.027 0C17.354 3.762 11.07 6.428 4.277 8.29a1.01 1.01 0 00-.743.973V19.58c0 10.624 4.901 17.657 9.013 21.685C16.974 45.601 22.131 48 24.003 48c1.872 0 7.028-2.399 11.454-6.736 4.112-4.028 9.013-11.06 9.013-21.685V9.262a1.01 1.01 0 00-.743-.973zm-1.276 11.29c0 9.923-4.572 16.485-8.407 20.243-4.353 4.265-9.007 6.158-10.041 6.158-1.035 0-5.689-1.893-10.042-6.158-3.835-3.758-8.406-10.32-8.406-20.243v-9.55c6.494-1.844 12.543-4.418 18.448-7.85 5.758 3.341 12.108 6.043 18.447 7.85v9.55z" fill="#000"/><path d="M15.055 9.916a1.01 1.01 0 00-1.31-.57 82.094 82.094 0 01-5.502 1.945 1.01 1.01 0 00-.708.963v3.9a1.01 1.01 0 002.02 0v-3.162a84.13 84.13 0 004.93-1.767 1.01 1.01 0 00.57-1.31zM16.973 10.107c.135 0 .273-.027.405-.084l.018-.008c.511-.224.741-.819.517-1.33a1.012 1.012 0 00-1.332-.518l-.016.007a1.01 1.01 0 00.408 1.933zM36.034 32.558a1.01 1.01 0 00-1.397.293 24.574 24.574 0 01-2.902 3.624c-.9.93-1.874 1.797-2.896 2.577a1.01 1.01 0 001.224 1.606 27.832 27.832 0 003.124-2.78 26.574 26.574 0 003.14-3.923 1.01 1.01 0 00-.293-1.397zM26.492 40.635l-.058.034a1.01 1.01 0 001.011 1.748l.067-.04a1.01 1.01 0 10-1.02-1.742zM17.119 21.94a3.26 3.26 0 00-2.322-.962c-.877 0-1.701.341-2.321.961a3.288 3.288 0 000 4.644l5.962 5.962c.62.62 1.444.96 2.321.96.877 0 1.702-.34 2.322-.96l12.446-12.447a3.287 3.287 0 000-4.643 3.262 3.262 0 00-2.322-.961c-.877 0-1.701.341-2.321.961L20.759 25.579l-3.64-3.64zm15.193-5.057c.238-.239.556-.37.894-.37a1.265 1.265 0 01.894 2.157L21.652 31.117c-.238.238-.556.37-.894.37-.337 0-.655-.132-.894-.37l-5.961-5.962a1.266 1.266 0 01.893-2.158c.338 0 .655.132.894.37l4.354 4.355a1.01 1.01 0 001.428 0l10.839-10.839z" fill="#000"/></g><defs><clipPath id="sclip0_182_1262"><path fill="#fff" d="M0 0h48v48H0z"/></clipPath></defs></svg><svg fill="none" viewBox="0 0 44 44" id="service" xmlns="http://www.w3.org/2000/svg"><path fill-rule="evenodd" clip-rule="evenodd" d="M18.047 8.498a9.549 9.549 0 019.548 9.549c0 2.069-.658 3.984-1.776 5.548l1.625.436a10.249 10.249 0 014.57-1.484c.18-.555.326-1.125.438-1.708l2.084-.347c.378-.063.698-.314.698-.699V16.3c0-.384-.32-.635-.699-.699l-2.083-.347a14.596 14.596 0 00-2.245-5.419l1.228-1.719c.224-.312.272-.716 0-.988l-2.47-2.47c-.272-.272-.675-.223-.988 0l-1.719 1.228A14.59 14.59 0 0020.84 3.64l-.347-2.083c-.063-.38-.314-.699-.699-.699H16.3c-.384 0-.636.32-.699.699l-.347 2.083a14.59 14.59 0 00-5.419 2.245L8.117 4.658c-.313-.223-.717-.271-.989 0l-2.47 2.47c-.271.272-.223.676 0 .989l1.228 1.718a14.597 14.597 0 00-2.245 5.42l-2.083.346c-.379.064-.699.315-.699.7v3.493c0 .384.32.635.699.698l2.083.347a14.596 14.596 0 002.245 5.42l-1.228 1.718c-.223.313-.271.716 0 .988l2.47 2.47c.272.272.676.224.989 0l1.718-1.227a14.59 14.59 0 005.42 2.244l.346 2.084c.063.379.315.698.699.698h3.494c.384 0 .635-.32.698-.698l.347-2.084a14.572 14.572 0 001.708-.437 10.25 10.25 0 011.484-4.57l-.436-1.626a9.505 9.505 0 01-5.548 1.776 9.549 9.549 0 01-9.549-9.548 9.548 9.548 0 019.549-9.549z" fill="#fff"/><path fill-rule="evenodd" clip-rule="evenodd" d="M32.015 22.547a10.25 10.25 0 00-4.57 1.484l-1.626-.436-1.687-.452a.803.803 0 00-.992.979l.455 1.697.436 1.626a10.25 10.25 0 00-1.515 5.383c0 5.696 4.617 10.313 10.312 10.313 5.695 0 10.313-4.617 10.313-10.313 0-5.695-4.617-10.312-10.313-10.312-.274 0-.545.01-.813.031zm-4.27 9.066a1.718 1.718 0 012.431 0l1.363 1.363 3.941-3.941a1.719 1.719 0 012.43 2.43l-5.156 5.156a1.719 1.719 0 01-2.43 0l-2.578-2.578a1.719 1.719 0 010-2.43z" fill="#E5181E"/><path fill-rule="evenodd" clip-rule="evenodd" d="M35.48 29.035l-3.941 3.94-1.363-1.362a1.719 1.719 0 00-2.43 2.43l2.578 2.578c.67.671 1.759.671 2.43 0l5.156-5.156a1.719 1.719 0 00-2.43-2.43z" fill="#fff"/><path d="M33.154 21.661l.017-.07 1.506-.251c.834-.14 1.417-.775 1.416-1.546V16.3c0-.771-.582-1.407-1.416-1.546l-1.506-.251a15.349 15.349 0 00-1.924-4.644l.888-1.243c.491-.688.453-1.55-.092-2.095l-2.47-2.47c-.546-.546-1.407-.583-2.096-.092l-1.242.888a15.346 15.346 0 00-4.644-1.924l-.251-1.506C21.2.583 20.565 0 19.794 0H16.3c-.771 0-1.407.583-1.546 1.417l-.251 1.506a15.346 15.346 0 00-4.644 1.924l-1.243-.888c-.688-.492-1.55-.454-2.095.092L4.05 6.52c-.546.545-.584 1.407-.092 2.095l.888 1.243a15.35 15.35 0 00-1.924 4.644l-1.506.25C.582 14.894 0 15.53 0 16.3v3.493c0 .772.582 1.408 1.417 1.547l1.506.25a15.35 15.35 0 001.924 4.645l-.888 1.242c-.492.689-.454 1.55.092 2.096l2.47 2.47c.545.546 1.407.583 2.095.092l1.243-.888a15.345 15.345 0 004.644 1.924l.25 1.506c.14.834.776 1.417 1.547 1.417h3.494c.77 0 1.407-.583 1.546-1.417l.25-1.506.071-.017C21.834 39.164 26.777 44 32.828 44 38.988 44 44 38.988 44 32.828c0-6.051-4.836-10.994-10.846-11.167zm-12.477 9.947a.86.86 0 00-.685.703l-.344 2.064h-3.202l-.344-2.064a.86.86 0 00-.685-.703 13.669 13.669 0 01-5.1-2.112.86.86 0 00-.981.012l-1.703 1.216L5.37 28.46l1.216-1.702a.86.86 0 00.013-.981 13.672 13.672 0 01-2.113-5.1.86.86 0 00-.702-.685l-2.064-.344v-3.202l2.064-.344a.86.86 0 00.702-.685 13.673 13.673 0 012.113-5.1.86.86 0 00-.013-.981L5.37 7.633 7.633 5.37l1.703 1.216a.86.86 0 00.981.013 13.666 13.666 0 015.1-2.113.86.86 0 00.685-.702l.344-2.064h3.202l.344 2.064a.86.86 0 00.685.702 13.667 13.667 0 015.1 2.113.86.86 0 00.98-.013L28.46 5.37l2.264 2.264-1.216 1.703a.86.86 0 00-.012.98 13.67 13.67 0 012.113 5.1.86.86 0 00.702.686l2.064.344v3.202l-2.064.344a.86.86 0 00-.703.685c-.069.36-.154.72-.252 1.076-1.42.188-2.79.647-4.037 1.355l-.152-.041a10.343 10.343 0 001.288-5.02c0-5.74-4.67-10.408-10.408-10.408-1.325 0-2.617.246-3.839.731a.86.86 0 10.634 1.598 8.646 8.646 0 013.205-.61c4.791 0 8.69 3.898 8.69 8.689 0 1.626-.445 3.19-1.291 4.558l-1.087-.291a1.666 1.666 0 00-1.611.42 1.642 1.642 0 00-.438 1.61l.295 1.102a8.63 8.63 0 01-4.558 1.29c-4.791 0-8.69-3.898-8.69-8.69 0-1.106.206-2.184.61-3.203a.86.86 0 00-1.597-.634 10.357 10.357 0 00-.731 3.838c0 5.739 4.669 10.408 10.408 10.408 1.774 0 3.489-.443 5.02-1.288l.04.152a11.134 11.134 0 00-1.354 4.037c-.355.098-.716.183-1.076.252zm12.151 10.673c-5.212 0-9.453-4.24-9.453-9.453 0-1.746.48-3.453 1.389-4.934a.859.859 0 00.097-.672l-.865-3.226 3.14.842.086.023a.86.86 0 00.672-.097 9.432 9.432 0 014.934-1.389c5.213 0 9.453 4.24 9.453 9.453 0 5.213-4.24 9.453-9.453 9.453z" fill="#000"/><path d="M34.873 28.427l-3.333 3.334-.756-.756a2.581 2.581 0 00-3.645 0 2.581 2.581 0 000 3.646l2.578 2.578a2.57 2.57 0 001.823.754c.66 0 1.32-.251 1.822-.754l5.157-5.156a2.581 2.581 0 000-3.646 2.58 2.58 0 00-3.646 0zm2.43 2.43l-5.156 5.157a.86.86 0 01-1.215 0l-2.578-2.578a.853.853 0 01-.252-.608c0-.23.09-.445.252-.607a.854.854 0 01.608-.252c.229 0 .445.09.607.252l1.363 1.363a.859.859 0 001.215 0l3.941-3.942a.86.86 0 011.215 1.216zM11.295 12.154a.86.86 0 100-1.719.86.86 0 100 1.72z" fill="#000"/></svg><svg fill="none" viewBox="0 0 44 44" id="settings" xmlns="http://www.w3.org/2000/svg"><path d="M36.95 9.114a2.062 2.062 0 100-4.125 2.062 2.062 0 000 4.125zM7.052 39.011a2.062 2.062 0 100-4.125 2.062 2.062 0 000 4.125z" fill="#4DBAF6"/><path d="M36.948 39.011a2.063 2.063 0 100-4.125 2.063 2.063 0 000 4.125zM7.05 9.114a2.063 2.063 0 100-4.125 2.063 2.063 0 000 4.125z" fill="#FF5D5D"/><path d="M35.024 19.18a13.248 13.248 0 00-1.827-4.41l1.723-1.722-3.977-3.975-1.722 1.722a13.246 13.246 0 00-4.41-1.827V6.533H19.19v2.435c-1.595.342-3.084.97-4.41 1.827l-1.722-1.722-3.977 3.975 1.723 1.723a13.245 13.245 0 00-1.827 4.41H6.534l-.003 5.622h2.445c.342 1.595.97 3.084 1.827 4.41l-1.73 1.73 3.975 3.977 1.73-1.73a13.243 13.243 0 004.41 1.827v2.45h5.623v-2.45a13.242 13.242 0 004.41-1.828l1.731 1.731 3.975-3.977-1.73-1.73a13.25 13.25 0 001.828-4.41h2.444V19.18h-2.445zM22 28.532a6.531 6.531 0 110-13.062 6.531 6.531 0 010 13.062z" fill="#E5181E"/><path d="M12.63 39.991l-.03-.015a.86.86 0 10-.797 1.523l.03.015a.856.856 0 001.16-.363.86.86 0 00-.363-1.16zM30.655 3.653l.023.011a.857.857 0 001.146-.404.86.86 0 00-.404-1.146l-.031-.015a.86.86 0 00-.734 1.554zM39.435 8.585a2.926 2.926 0 00-.42-3.6 2.925 2.925 0 00-4.132 0 2.925 2.925 0 000 4.132 2.93 2.93 0 003.257.601A20.32 20.32 0 0142.28 22a20.1 20.1 0 01-1.92 8.628.86.86 0 101.554.732A21.808 21.808 0 0044 22c0-4.85-1.617-9.586-4.565-13.415zm-3.337-.683a1.204 1.204 0 01.85-2.053 1.204 1.204 0 01.85 2.053c-.002.004-.006.007-.01.01l-.001.001-.028.026c-.471.43-1.205.42-1.66-.037zM5.86 34.281A20.321 20.321 0 011.72 22c0-2.802.56-5.514 1.665-8.062a.86.86 0 10-1.576-.684A21.85 21.85 0 000 22c0 4.85 1.617 9.586 4.565 13.415a2.926 2.926 0 00.42 3.6c.57.57 1.318.854 2.066.854.749 0 1.497-.285 2.066-.854a2.925 2.925 0 000-4.133 2.926 2.926 0 00-3.257-.6zM7.902 37.8c-.469.47-1.232.47-1.701 0a1.204 1.204 0 010-1.701l.01-.01.002-.001.028-.026a1.2 1.2 0 011.661.037c.47.469.47 1.232 0 1.701zM34.883 34.883a2.926 2.926 0 00-.602 3.257 20.32 20.32 0 01-19.074 2.976.86.86 0 10-.576 1.62 22.043 22.043 0 0020.784-3.3c.469.288 1.001.433 1.534.433.748 0 1.497-.285 2.066-.854a2.925 2.925 0 000-4.132 2.925 2.925 0 00-4.132 0zm2.917 2.916c-.47.47-1.233.47-1.702 0l-.01-.01-.001-.002-.025-.028a1.203 1.203 0 111.738.04zM7.051 9.972c.749 0 1.497-.285 2.066-.855.88-.879 1.08-2.183.602-3.257a20.32 20.32 0 0118.257-3.247.86.86 0 00.506-1.642A22.042 22.042 0 008.584 4.565a2.927 2.927 0 00-3.599.42 2.925 2.925 0 000 4.132c.57.57 1.318.855 2.066.855zM6.201 6.2a1.2 1.2 0 01.85-.352 1.2 1.2 0 01.851.352l.01.011.001.001.01.011c.447.47.44 1.217-.021 1.678-.47.47-1.232.47-1.702 0a1.205 1.205 0 010-1.701z" fill="#000"/><path d="M18.335 35.695v1.771a.86.86 0 00.86.86l5.623-.003a.86.86 0 00.859-.859v-1.77a14.042 14.042 0 003.422-1.416l1.25 1.25a.86.86 0 001.215 0l3.976-3.976a.86.86 0 000-1.215l-1.25-1.25a14.039 14.039 0 001.417-3.422h1.76a.86.86 0 00.859-.86l-.002-5.623a.86.86 0 00-.86-.859h-1.758a14.044 14.044 0 00-1.416-3.421l1.243-1.243a.86.86 0 000-1.216l-3.976-3.976a.86.86 0 00-1.215 0L29.099 9.71a14.037 14.037 0 00-3.422-1.416V6.536a.86.86 0 00-.86-.86l-5.622-.002a.86.86 0 00-.86.86v1.76c-1.2.32-2.347.794-3.422 1.416l-1.247-1.247a.86.86 0 00-1.215 0l-3.979 3.973a.86.86 0 000 1.216l1.25 1.25a14.04 14.04 0 00-1.417 3.421H6.536a.86.86 0 00-.86.86l-.001 5.622a.86.86 0 00.86.86h1.77a14.04 14.04 0 001.417 3.422l-1.254 1.254a.86.86 0 000 1.216l3.976 3.976a.86.86 0 001.215 0l1.254-1.255a14.036 14.036 0 003.422 1.417zm-4.159-3.11l-1.125 1.124-2.76-2.76 1.125-1.125a.86.86 0 00.114-1.075 12.348 12.348 0 01-1.708-4.124.86.86 0 00-.84-.679H7.394l.001-3.904h1.587a.86.86 0 00.84-.679 12.351 12.351 0 011.708-4.124.86.86 0 00-.114-1.074l-1.12-1.12 2.762-2.76 1.119 1.12a.86.86 0 001.074.113 12.354 12.354 0 014.124-1.707.86.86 0 00.68-.84V7.393l3.903.001v1.576a.86.86 0 00.679.84 12.35 12.35 0 014.124 1.707.86.86 0 001.074-.114l1.114-1.114 2.76 2.761-1.113 1.114a.86.86 0 00-.114 1.074 12.35 12.35 0 011.708 4.124.86.86 0 00.84.68h1.575l.002 3.903H35.03a.86.86 0 00-.84.68 12.352 12.352 0 01-1.708 4.124.86.86 0 00.114 1.074l1.12 1.12-2.76 2.761-1.12-1.12a.86.86 0 00-1.075-.115 12.351 12.351 0 01-4.124 1.708.86.86 0 00-.679.84v1.587l-3.904.002v-1.589a.86.86 0 00-.679-.84 12.35 12.35 0 01-4.124-1.708.857.857 0 00-1.074.114z" fill="#000"/><path d="M22 29.387c1.893 0 3.785-.72 5.227-2.161a7.367 7.367 0 001.81-7.49.86.86 0 10-1.636.526 5.655 5.655 0 01-1.39 5.749 5.678 5.678 0 01-8.021 0 5.672 5.672 0 015.634-9.446.86.86 0 00.49-1.648 7.389 7.389 0 00-7.34 1.857c-2.881 2.882-2.881 7.57 0 10.452A7.368 7.368 0 0022 29.387z" fill="#000"/><path d="M26.072 18.052a.857.857 0 001.215.018.86.86 0 00.018-1.215 8.514 8.514 0 00-.079-.08.86.86 0 00-1.216 1.214l.062.063z" fill="#000"/></svg><svg fill="none" viewBox="0 0 38 44" id="shield" xmlns="http://www.w3.org/2000/svg"><path d="M10 20.5l-1.5 1V23l7.5 7 13.5-12.5-.5-2-1.5-1-2 .5-10 9.5-4.5-4h-1z" fill="#E5181E"/><path d="M36.843 7.598c-6.054-1.659-12.144-4.242-17.61-7.47a.925.925 0 00-.942 0C12.668 3.45 6.907 5.893.681 7.599A.925.925 0 000 8.49v9.457c0 9.738 4.493 16.185 8.262 19.877C12.319 41.801 17.046 44 18.762 44c1.716 0 6.442-2.199 10.5-6.175 3.769-3.692 8.261-10.139 8.261-19.877V8.49a.925.925 0 00-.68-.892zm-1.17 10.35c0 9.095-4.191 15.11-7.707 18.555-3.99 3.91-8.256 5.646-9.204 5.646-.948 0-5.215-1.736-9.205-5.646-3.515-3.444-7.706-9.46-7.706-18.555V9.193c5.954-1.69 11.498-4.05 16.911-7.195a75.2 75.2 0 0016.91 7.195v8.755z" fill="#000"/><path d="M10.557 9.09a.926.926 0 00-1.2-.521 75.276 75.276 0 01-5.044 1.782.926.926 0 00-.649.883v3.574a.926.926 0 001.851 0v-2.897a77.158 77.158 0 004.52-1.62.925.925 0 00.522-1.2zM12.314 9.265c.125 0 .25-.025.371-.078l.018-.007a.924.924 0 00.474-1.219.928.928 0 00-1.222-.475l-.015.007a.926.926 0 00.374 1.772zM29.79 29.844a.926.926 0 00-1.282.269 22.525 22.525 0 01-2.66 3.322 23.642 23.642 0 01-2.655 2.362.926.926 0 001.123 1.472 25.494 25.494 0 002.863-2.547 24.347 24.347 0 002.879-3.597.925.925 0 00-.269-1.28zM21.046 37.25l-.053.031a.926.926 0 10.928 1.602l.06-.036a.926.926 0 10-.935-1.597zM12.453 20.11a2.99 2.99 0 00-2.128-.88c-.804 0-1.56.312-2.129.88a3.014 3.014 0 000 4.257l5.466 5.465a2.99 2.99 0 002.128.881 2.99 2.99 0 002.128-.88l11.41-11.41a3.013 3.013 0 00-.001-4.256 2.99 2.99 0 00-2.128-.881 2.99 2.99 0 00-2.129.88l-9.28 9.282-3.337-3.337zm13.927-4.634c.218-.219.51-.34.819-.34a1.16 1.16 0 01.82 1.978l-11.41 11.41a1.15 1.15 0 01-.82.338c-.309 0-.6-.12-.819-.339l-5.465-5.465a1.16 1.16 0 01.82-1.977c.31 0 .6.12.819.339l3.991 3.991a.926.926 0 001.309 0l9.936-9.935z" fill="#000"/></svg><svg fill="none" viewBox="0 0 48 48" id="truck" xmlns="http://www.w3.org/2000/svg"><path d="M42.4 36.414h4.8v-8.8l-7.2-11.2h-8.8v20h3.2M7.199 36.413h-6.4v-25.6h30.4v25.6h-16" fill="#E5181E"/><path d="M5.599 32.414h-4.8v1.6h4.8v-1.6zM31.199 32.414h-14.4v1.6h14.4v-1.6z" fill="#F46B27"/><path d="M47.2 32.414H44v1.6h3.2v-1.6z" fill="#DBDBDB"/><path d="M31.2 13.214h-28v1.6h28v-1.6z" fill="#F46B27"/><path d="M11.2 40.414a4 4 0 100-8 4 4 0 000 8zM38.398 40.414a4 4 0 100-8 4 4 0 000 8z" fill="#fff"/><path d="M12 35.613h-1.6v1.6H12v-1.6zM39.2 35.613h-1.6v1.6h1.6v-1.6zM14.4 6.813H3.2v1.6h11.2v-1.6zM1.6 6.813H0v1.6h1.6v-1.6z" fill="#DBDBDB"/><path d="M42.056 19.614H34.4v7.2h12.288l-4.632-7.2z" fill="#fff"/><path d="M32.8 16.414h-1.6v20h1.6v-20z" fill="#E5181E"/><path d="M46.688 26.814l-4.344-6.76a20.058 20.058 0 01-7.944 5.72v1.04h12.288z" fill="#fff"/><path d="M40.672 15.982a.802.802 0 00-.672-.368h-8v-4.8a.8.8 0 00-.8-.8H.8a.8.8 0 00-.8.8v25.6a.8.8 0 00.8.8h5.672a4.8 4.8 0 009.456 0h17.744a4.8 4.8 0 009.456 0H47.2a.8.8 0 00.8-.8v-8.8a.796.796 0 00-.128-.432l-7.2-11.2zm.928 4.432l3.624 5.6H35.2v-5.6h6.4zm-30.4 19.2a3.2 3.2 0 110-6.4 3.2 3.2 0 010 6.4zm0-8a4.8 4.8 0 00-4.728 4H1.6v-1.6h4v-1.6h-4v-20.8h28.8v1.6H3.2v1.6h27.2v17.6H16.8v1.6h13.6v1.6H15.928a4.8 4.8 0 00-4.728-4zm27.2 8a3.2 3.2 0 110-6.4 3.2 3.2 0 010 6.4zm4.728-4a4.8 4.8 0 00-9.456 0H32v-18.4h7.56l1.032 1.6H34.4a.8.8 0 00-.8.8v7.2a.8.8 0 00.8.8h11.848l.152.232v4.568H44v1.6h2.4v1.6h-3.272z" fill="#000"/><path d="M12 35.614h-1.6v1.6H12v-1.6zM39.2 35.614h-1.6v1.6h1.6v-1.6zM14.4 6.813H3.2v1.6h11.2v-1.6zM1.6 6.813H0v1.6h1.6v-1.6z" fill="#000"/></svg></svg>