<?xml version="1.0" standalone="no"?>
<!DOCTYPE svg PUBLIC "-//W3C//DTD SVG 1.1//EN" "http://www.w3.org/Graphics/SVG/1.1/DTD/svg11.dtd" >
<svg xmlns="http://www.w3.org/2000/svg" xmlns:xlink="http://www.w3.org/1999/xlink" version="1.1">
<metadata>
Created by FontForge 20200427 at Mon Nov  3 02:04:48 2014
 By www
Copyright (c) 2010 by Ryoichi Tsunekawa. All rights reserved.
</metadata>
<defs>
<font id="StereoGothicW01-650" horiz-adv-x="1298" >
  <font-face 
    font-family="StereoGothicW01-650"
    font-weight="650"
    font-stretch="normal"
    units-per-em="1000"
    panose-1="4 5 7 8 2 11 2 2 2 2"
    ascent="800"
    descent="-200"
    x-height="560"
    cap-height="700"
    bbox="-36 -283.542 1754 976"
    underline-thickness="50"
    underline-position="-175"
    unicode-range="U+0020-2122"
  />
<missing-glyph horiz-adv-x="1000" 
d="M150 700h700v-700h-700v700zM795 50l1 557l-557 -557h556zM205 94l556 556h-556v-556z" />
    <glyph glyph-name=".notdef" horiz-adv-x="1000" 
d="M150 700h700v-700h-700v700zM795 50l1 557l-557 -557h556zM205 94l556 556h-556v-556z" />
    <glyph glyph-name=".null" horiz-adv-x="0" 
 />
    <glyph glyph-name="nonmarkingreturn" horiz-adv-x="333" 
 />
    <glyph glyph-name="space" unicode=" " horiz-adv-x="696" 
 />
    <glyph glyph-name="exclam" unicode="!" horiz-adv-x="376" 
d="M113 149h149v-149h-149v149zM116 700h142l-7 -487h-128z" />
    <glyph glyph-name="quotedbl" unicode="&#x22;" horiz-adv-x="600" 
d="M97 700h146l-21 -300h-103zM357 700h146l-21 -300h-103z" />
    <glyph glyph-name="numbersign" unicode="#" 
d="M894 155h-532l-16 -155h-129l16 155h-144v117h156l17 156h-143v117h155l16 155h129l-16 -155h532l16 155h129l-16 -155h145v-117h-157l-17 -156h144v-117h-156l-16 -155h-129zM374 272h532l17 156h-532z" />
    <glyph glyph-name="dollar" unicode="$" 
d="M585 70h-429v117h429v111h-249q-57 0 -97.5 12.5t-66 34.5t-37 52t-11.5 65t11.5 65.5t37 53.5t66 36t97.5 13h249v91h128v-91h429v-117h-429v-111h249q57 0 97 -12.5t65.5 -34.5t37.5 -52t12 -65t-12 -65.5t-37.5 -53.5t-65.5 -36t-97 -13h-249v-90h-128v90zM713 298
v-111h240q51 0 68 17t17 39q0 12 -3.5 22t-13 17.5t-26 11.5t-42.5 4h-240zM260 457q0 -23 17 -39t68 -16h240v111h-240q-26 0 -42.5 -4.5t-26 -12.5t-13 -18t-3.5 -21z" />
    <glyph glyph-name="percent" unicode="%" 
d="M1124 700l-805 -700h-145l806 700h144zM583 474q0 -26 -8.5 -48.5t-27.5 -39.5t-48.5 -26.5t-71.5 -9.5h-177q-42 0 -71.5 9.5t-48.5 26.5t-27.5 39.5t-8.5 48.5v102q0 26 8.5 48.5t27.5 39.5t48.5 26.5t71.5 9.5h177q42 0 71.5 -9.5t48.5 -26.5t27.5 -39.5t8.5 -48.5
v-102zM189 480q0 -8 2 -16t8.5 -14t18 -9.5t30.5 -3.5h182q37 0 47.5 13t10.5 30v89q0 17 -10.5 30.5t-47.5 13.5h-182q-19 0 -30.5 -3.5t-18 -9.5t-8.5 -14t-2 -17v-89zM1204 124q0 -26 -8.5 -48.5t-27.5 -39.5t-48.5 -26.5t-71.5 -9.5h-177q-42 0 -71.5 9.5t-48.5 26.5
t-27.5 39.5t-8.5 48.5v102q0 26 8.5 48.5t27.5 39.5t48.5 26.5t71.5 9.5h177q42 0 71.5 -9.5t48.5 -26.5t27.5 -39.5t8.5 -48.5v-102zM810 130q0 -8 2 -16t8.5 -14t18 -9.5t30.5 -3.5h182q37 0 47.5 13t10.5 30v89q0 17 -10.5 30.5t-47.5 13.5h-182q-19 0 -30.5 -3.5
t-18 -9.5t-8.5 -14t-2 -17v-89z" />
    <glyph glyph-name="ampersand" unicode="&#x26;" horiz-adv-x="1316" 
d="M323 0q-63 0 -107.5 14.5t-72.5 40t-41 59t-13 72.5q0 63 35 111t116 66q-54 22 -77.5 63.5t-23.5 93.5q0 38 12.5 71t40 57t71 38t105.5 14h657v-130h-619q-36 0 -59.5 -6.5t-37 -17.5t-18.5 -26t-5 -31t5 -30.5t18.5 -25.5t36 -17.5t58.5 -6.5h845v-118h-121
q38 -20 54.5 -54.5t16.5 -75.5q0 -34 -11 -63.5t-36 -51t-64 -34t-95 -12.5h-670zM931 130q36 0 59 6.5t36.5 18t19 26t5.5 30.5q0 15 -5 29.5t-17 26t-33.5 18t-54.5 6.5h-589q-33 0 -54.5 -6.5t-33.5 -18t-17 -26t-5 -29.5q0 -16 5 -30.5t18.5 -26t36.5 -18t59 -6.5h570z
" />
    <glyph glyph-name="quotesingle" unicode="'" horiz-adv-x="340" 
d="M97 700h146l-21 -300h-103z" />
    <glyph glyph-name="parenleft" unicode="(" horiz-adv-x="506" 
d="M319 -116q-99 101 -149 221.5t-50 244.5t50 244t149 221h118q-85 -103 -127.5 -222.5t-42.5 -242.5t42.5 -243t127.5 -223h-118z" />
    <glyph glyph-name="parenright" unicode=")" horiz-adv-x="506" 
d="M69 -116q85 103 127.5 223t42.5 243t-42.5 242.5t-127.5 222.5h118q99 -101 149 -221t50 -244t-50 -244.5t-149 -221.5h-118z" />
    <glyph glyph-name="asterisk" unicode="*" horiz-adv-x="599" 
d="M361 438l134 -133l-108 -78l-87 167l-87 -167l-108 78l134 133l-188 33l41 126l170 -87l-29 190h133l-29 -190l170 88l41 -127z" />
    <glyph glyph-name="plus" unicode="+" 
d="M284 415h293v255h144v-255h293v-130h-293v-255h-144v255h-293v130z" />
    <glyph glyph-name="comma" unicode="," horiz-adv-x="337" 
d="M94 149h149v-138l-85 -156h-63l64 145h-65v149z" />
    <glyph glyph-name="hyphen" unicode="-" horiz-adv-x="600" 
d="M89 345h422v-130h-422v130z" />
    <glyph glyph-name="period" unicode="." horiz-adv-x="337" 
d="M94 149h149v-149h-149v149z" />
    <glyph glyph-name="slash" unicode="/" horiz-adv-x="587" 
d="M481 777h127l-502 -853h-127z" />
    <glyph glyph-name="zero" unicode="0" 
d="M99 452q0 51 17 96.5t54.5 79t97 53t143.5 19.5h476q84 0 143 -19.5t96.5 -53t55 -79t17.5 -96.5v-204q0 -51 -17.5 -96.5t-55 -79t-96.5 -53t-143 -19.5h-476q-84 0 -143.5 19.5t-97 53t-54.5 79t-17 96.5v204zM405 570q-49 0 -80.5 -10.5t-50 -27.5t-25.5 -39.5
t-7 -47.5v-190q0 -25 7 -47.5t25.5 -40t50 -27.5t80.5 -10h488q49 0 80.5 10t50 27.5t25.5 40t7 47.5v190q0 25 -7 47.5t-25.5 39.5t-50 27.5t-80.5 10.5h-488z" />
    <glyph glyph-name="one" unicode="1" 
d="M378 700h403v-570h289v-130h-842v130h409v440h-259v130z" />
    <glyph glyph-name="two" unicode="2" 
d="M1179 0h-1080v208q0 43 14 80t45 64t79 42t116 15h590q36 0 58.5 6.5t35.5 17.5t17.5 25.5t4.5 30.5t-4.5 30.5t-17.5 26t-35.5 18t-58.5 6.5h-804v130h807q71 0 121 -16t81.5 -43.5t46 -64.5t14.5 -80q0 -44 -14.5 -81t-46 -65t-81.5 -43.5t-121 -15.5h-588
q-33 0 -55.5 -7t-36 -19t-19 -27t-5.5 -31v-77h937v-130z" />
    <glyph glyph-name="three" unicode="3" 
d="M79 130h853q36 0 59 6.5t36.5 18t18.5 26t5 30.5t-5 31t-18.5 25.5t-36.5 17t-59 6.5h-746v118h703q35 0 58 6.5t36.5 17.5t18.5 25.5t5 30.5t-5.5 30.5t-19 26t-36.5 18t-59 6.5h-788v130h826q62 0 105.5 -14t71 -38t40 -57t12.5 -71q0 -52 -24 -93.5t-77 -63.5
q80 -18 115.5 -66.5t35.5 -110.5q0 -39 -13 -72.5t-41 -59t-72.5 -40t-107.5 -14.5h-891v130z" />
    <glyph glyph-name="four" unicode="4" 
d="M1127 700v-453h111v-131h-111v-116h-143v116h-914v109l920 475h137zM984 247v318l-629 -318h629z" />
    <glyph glyph-name="five" unicode="5" 
d="M132 700h1037v-130h-917l-13 -161h707q71 0 121 -15.5t81.5 -43.5t46 -65.5t14.5 -80.5t-14.5 -80t-46 -64.5t-81.5 -43.5t-121 -16h-829v130h826q36 0 58.5 6.5t35.5 18t17.5 26t4.5 30.5t-4.5 30.5t-17.5 25.5t-35.5 17.5t-58.5 6.5h-844z" />
    <glyph glyph-name="six" unicode="6" 
d="M241 348q24 29 66.5 45t107.5 16h546q71 0 121 -15.5t81.5 -43.5t46 -65.5t14.5 -80.5t-14.5 -80t-46 -64.5t-81.5 -43.5t-121 -16h-551q-84 0 -143.5 19.5t-97 53t-54.5 79t-17 96.5v102q0 72 24.5 136t77.5 111.5t136.5 75t202.5 27.5h620v-130h-608q-84 0 -143 -17.5
t-96 -47.5t-54 -70t-17 -85v-2zM365 291q-62 0 -89.5 -18t-32.5 -45q3 -21 13.5 -38.5t30.5 -31t50.5 -21t73.5 -7.5h547q36 0 58.5 6.5t35 18t17.5 26t5 30.5t-4.5 30.5t-17.5 25.5t-35.5 17.5t-58.5 6.5h-593z" />
    <glyph glyph-name="seven" unicode="7" 
d="M348 0l649 570h-918v130h1130v-114l-650 -586h-211z" />
    <glyph glyph-name="eight" unicode="8" 
d="M311 0q-63 0 -107.5 14.5t-72.5 40t-41 59t-13 72.5q0 63 35 111t116 66q-54 22 -77.5 63.5t-23.5 93.5q0 38 12.5 71t40 57t71 38t105.5 14h586q62 0 105.5 -14t71 -38t40 -57t12.5 -71q0 -52 -24 -93.5t-77 -63.5q80 -18 115.5 -66.5t35.5 -110.5q0 -39 -13 -72.5
t-41 -59t-72.5 -40t-107.5 -14.5h-676zM1068 211q0 16 -5 30.5t-18.5 25.5t-36.5 17.5t-59 6.5h-600q-36 0 -59 -6.5t-36.5 -17.5t-18.5 -25.5t-5 -30.5t5 -30.5t18.5 -26t36.5 -18t59 -6.5h600q36 0 59 6.5t36.5 18t18.5 26t5 30.5zM906 409q35 0 58 6.5t36.5 17.5
t18.5 25.5t5 30.5t-5.5 31t-19 26t-36.5 17.5t-59 6.5h-510q-36 0 -59.5 -6.5t-37 -17.5t-18.5 -26t-5 -31t5 -30.5t18.5 -25.5t36 -17.5t58.5 -6.5h514z" />
    <glyph glyph-name="nine" unicode="9" 
d="M747 130q84 0 143 17.5t96 47.5t54 70t17 85v1q-24 -28 -66.5 -44t-107.5 -16h-546q-71 0 -121 15.5t-81.5 43.5t-46 65t-14.5 81q0 43 14.5 80t46 64.5t81.5 43.5t121 16h551q84 0 143 -19.5t96.5 -53t55 -79t17.5 -96.5v-102q0 -72 -24.5 -136t-77.5 -111.5t-136.5 -75
t-202.5 -27.5h-620v130h608zM933 409q62 0 89.5 18t32.5 45q-3 21 -14 38.5t-31 31t-50 21t-73 7.5h-547q-36 0 -58.5 -6.5t-35 -18t-17.5 -26t-5 -30.5t4.5 -30.5t17.5 -25.5t35.5 -17.5t58.5 -6.5h593z" />
    <glyph glyph-name="colon" unicode=":" horiz-adv-x="337" 
d="M94 560h149v-149h-149v149zM94 149h149v-149h-149v149z" />
    <glyph glyph-name="semicolon" unicode=";" horiz-adv-x="337" 
d="M94 149h149v-138l-85 -156h-63l64 145h-65v149zM94 560h149v-149h-149v149z" />
    <glyph glyph-name="less" unicode="&#x3c;" 
d="M1004 9l-710 273v135l710 274v-141l-534 -201l534 -199v-141z" />
    <glyph glyph-name="equal" unicode="=" 
d="M284 253h730v-130h-730v130zM284 577h730v-130h-730v130z" />
    <glyph glyph-name="greater" unicode="&#x3e;" 
d="M294 150l534 199l-534 201v141l710 -274v-135l-710 -273v141z" />
    <glyph glyph-name="question" unicode="?" horiz-adv-x="1070" 
d="M299 406h473q36 0 59 6.5t36 18t18 26t5 31.5q0 16 -5 30.5t-18 26t-36 18.5t-59 7h-745v130h751q71 0 121 -15.5t81.5 -43t46 -64.5t14.5 -80q0 -44 -14.5 -81t-46 -64t-81.5 -42.5t-121 -15.5h-350v-81h-129v193zM290 149h148v-149h-148v149z" />
    <glyph glyph-name="at" unicode="@" horiz-adv-x="1398" 
d="M727 420q75 0 122 -22t73 -60l11 72h75v-308h159q20 31 27 68t7 78q0 59 -18.5 111t-62 90.5t-114.5 61t-175 22.5h-210q-119 0 -200 -26t-130.5 -70.5t-71.5 -104t-22 -127.5t21.5 -127.5t71 -103.5t130 -70t199.5 -26h158v-102h-159q-146 0 -249 33.5t-168 92
t-95 136.5t-30 167t30 167.5t95 137t168 92t249 33.5h216q132 0 224.5 -30.5t151 -83t85.5 -123t27 -150.5q0 -71 -20.5 -134t-66.5 -114h-302l-12 71q-26 -38 -73 -59.5t-121 -21.5h-87q-74 0 -125.5 17t-84 46t-47.5 68.5t-15 83.5t15 83t47.5 68.5t84 46.5t125.5 17h87z
M734 92q46 0 76.5 9t49 24t26.5 35t8 43q0 24 -7.5 44.5t-26 36.5t-49.5 25t-78 9h-92q-46 0 -76 -9t-48 -24.5t-25 -36t-7 -43.5t7 -43.5t25 -36t48 -24.5t76 -9h93z" />
    <glyph glyph-name="A" unicode="A" horiz-adv-x="1284" 
d="M1003 122h-723l-96 -122h-177l558 700h153l559 -700h-177zM374 240h535l-268 338z" />
    <glyph glyph-name="B" unicode="B" horiz-adv-x="1259" 
d="M119 700h784q62 0 105.5 -14t71 -38t40 -57t12.5 -71q0 -52 -24 -93.5t-77 -63.5q80 -18 115.5 -66.5t35.5 -110.5q0 -39 -13 -72.5t-41 -59t-72.5 -40t-107.5 -14.5h-829v700zM262 291v-161h648q36 0 59 6.5t36.5 18t18.5 26t5 30.5t-5 30.5t-18.5 25.5t-36.5 17.5
t-59 6.5h-648zM985 489q0 16 -5.5 31t-19 26t-36.5 17.5t-59 6.5h-603v-161h605q35 0 58 6.5t36.5 17.5t18.5 25.5t5 30.5z" />
    <glyph glyph-name="C" unicode="C" horiz-adv-x="1184" 
d="M225 350q0 -45 13.5 -85t47 -70t89 -47.5t139.5 -17.5h593v-130h-594q-119 0 -202.5 27.5t-136.5 75t-77.5 111.5t-24.5 136t24.5 136t77.5 111.5t136.5 75t202.5 27.5h594v-130h-593q-84 0 -139.5 -17.5t-89 -47.5t-47 -70t-13.5 -85z" />
    <glyph glyph-name="D" unicode="D" horiz-adv-x="1255" 
d="M119 700h623q119 0 202.5 -27.5t136.5 -75t77.5 -111.5t24.5 -136t-24.5 -136t-77.5 -111.5t-136.5 -75t-202.5 -27.5h-623v700zM262 570v-440h479q84 0 139.5 17.5t89 47.5t47 70t13.5 85t-13.5 85t-47 70t-89 47.5t-139.5 17.5h-479z" />
    <glyph glyph-name="E" unicode="E" horiz-adv-x="1199" 
d="M119 700h1003v-130h-860v-161h758v-118h-758v-161h860v-130h-1003v700z" />
    <glyph glyph-name="F" unicode="F" horiz-adv-x="1159" 
d="M119 700h1003v-130h-860v-164h758v-130h-758v-276h-143v700z" />
    <glyph glyph-name="G" unicode="G" horiz-adv-x="1256" 
d="M661 409h501v-409h-649q-119 0 -202.5 27.5t-136.5 75t-77.5 111.5t-24.5 136t24.5 136t77.5 111.5t136.5 75t202.5 27.5h594v-130h-593q-84 0 -139.5 -17.5t-89 -47.5t-47 -70t-13.5 -85t13.5 -85t47 -70t89 -47.5t139.5 -17.5h508v161h-361v118z" />
    <glyph glyph-name="H" unicode="H" horiz-adv-x="1305" 
d="M1043 285h-781v-285h-143v700h143v-285h781v285h143v-700h-143v285z" />
    <glyph glyph-name="I" unicode="I" horiz-adv-x="381" 
d="M119 700h143v-700h-143v700z" />
    <glyph glyph-name="J" unicode="J" horiz-adv-x="1211" 
d="M382 -5q-95 0 -160.5 22t-106 60t-58.5 89t-18 109v57h143v-57q0 -31 9 -58.5t32 -47.5t62 -32t98 -12h307q82 0 136 14.5t85.5 41t44.5 63.5t13 81v375h143v-375q0 -72 -21 -133t-70.5 -104.5t-130 -68t-199.5 -24.5h-309v0z" />
    <glyph glyph-name="K" unicode="K" horiz-adv-x="1297" 
d="M676 388l619 -388h-243l-502 313l-288 -170v-143h-143v700h143v-415l693 415h249z" />
    <glyph glyph-name="L" unicode="L" horiz-adv-x="1129" 
d="M262 130h840v-130h-983v700h143v-570z" />
    <glyph glyph-name="M" unicode="M" horiz-adv-x="1453" 
d="M1334 700v-700h-143v502l-464 -480l-465 480v-502h-143v700h137l471 -483l470 483h137z" />
    <glyph glyph-name="N" unicode="N" horiz-adv-x="1308" 
d="M262 533v-533h-143v700h136l791 -533v533h143v-700h-136z" />
    <glyph glyph-name="O" unicode="O" horiz-adv-x="1348" 
d="M526 -10q-122 0 -208.5 28.5t-141 77t-79.5 114t-25 140.5t25 140.5t79.5 114t141 77t208.5 28.5h296q122 0 208.5 -28.5t141 -77t79.5 -114t25 -140.5t-25 -140.5t-79.5 -114t-141 -77t-208.5 -28.5h-296zM821 120q87 0 145.5 18t93 49.5t49 73t14.5 89.5t-14.5 89.5
t-49 73t-93 49.5t-145.5 18h-293q-88 0 -146.5 -18t-93.5 -49.5t-49.5 -73t-14.5 -89.5t14.5 -89.5t49.5 -73t93.5 -49.5t145.5 -18h294z" />
    <glyph glyph-name="P" unicode="P" horiz-adv-x="1196" 
d="M119 700h760q78 0 132.5 -18t89 -49t50.5 -72.5t16 -88.5q0 -48 -16 -89t-50.5 -72t-89 -48.5t-132.5 -17.5h-617v-245h-143v700zM262 570v-195h613q43 0 70.5 7.5t43.5 20.5t22 31t6 38t-6 38t-22 31.5t-43.5 21t-70.5 7.5h-613z" />
    <glyph glyph-name="Q" unicode="Q" horiz-adv-x="1348" 
d="M526 -10q-122 0 -208.5 28.5t-141 77t-79.5 114t-25 140.5t25 140.5t79.5 114t141 77t208.5 28.5h296q122 0 208.5 -28.5t141 -77t79.5 -114t25 -140.5q0 -100 -45 -181.5t-146 -129.5l263 -149h-236l-181 107q-26 -3 -53 -5t-56 -2h-296zM821 120q87 0 145.5 18t93 49.5
t49 73t14.5 89.5t-14.5 89.5t-49 73t-93 49.5t-145.5 18h-294q-87 0 -145.5 -18t-93.5 -49.5t-49.5 -73t-14.5 -89.5t14.5 -89.5t49.5 -73t93 -49.5t145 -18h295z" />
    <glyph glyph-name="R" unicode="R" horiz-adv-x="1280" 
d="M119 700h747q78 0 133 -17.5t90 -48.5t51 -72t16 -87q0 -48 -16 -89t-51 -71t-90 -47.5t-132 -17.5l411 -250h-238l-393 247h-385v-247h-143v700zM262 570v-197h599q43 0 71 7.5t44.5 21t23 31.5t6.5 39q0 20 -6.5 37.5t-23 31t-44.5 21.5t-71 8h-599z" />
    <glyph glyph-name="S" unicode="S" horiz-adv-x="1207" 
d="M109 130h763q36 0 58.5 6.5t35.5 18t17.5 26t4.5 30.5t-4.5 30.5t-17.5 25.5t-35.5 17.5t-58.5 6.5h-540q-71 0 -121 15.5t-81.5 43.5t-46 65t-14.5 81q0 43 14.5 80t46 64.5t81.5 43.5t121 16h766v-130h-763q-36 0 -58.5 -6.5t-35.5 -18t-17.5 -26t-4.5 -30.5t4.5 -30.5
t17.5 -25.5t35.5 -17.5t58.5 -6.5h540q71 0 121 -15.5t81.5 -43.5t46 -65.5t14.5 -80.5t-14.5 -80t-46 -64.5t-81.5 -43.5t-121 -16h-766v130z" />
    <glyph glyph-name="T" unicode="T" horiz-adv-x="1184" 
d="M27 700h1130v-130h-493v-570h-144v570h-493v130z" />
    <glyph glyph-name="U" unicode="U" horiz-adv-x="1275" 
d="M242 323q0 -44 13 -81.5t44.5 -64.5t85.5 -42t136 -15h233q82 0 136 15t85.5 42t44.5 64.5t13 81.5v377h143v-377q0 -72 -21 -133.5t-70.5 -105.5t-130 -69t-199.5 -25h-235q-119 0 -199.5 25t-130 69t-70.5 105.5t-21 133.5v377h143v-377v0z" />
    <glyph glyph-name="V" unicode="V" horiz-adv-x="1284" 
d="M565 0l-558 700h182l452 -578l453 578h183l-559 -700h-153z" />
    <glyph glyph-name="W" unicode="W" horiz-adv-x="1618" 
d="M522 0h-106l-397 700h172l280 -521l285 521h106l285 -521l280 521h172l-397 -700h-106l-287 522z" />
    <glyph glyph-name="X" unicode="X" horiz-adv-x="1228" 
d="M240 700l374 -275l374 275h226l-484 -348l489 -352h-226l-379 279l-379 -279h-226l489 352l-484 348h226z" />
    <glyph glyph-name="Y" unicode="Y" horiz-adv-x="1253" 
d="M555 211l-558 489h212l417 -374l418 374h212l-558 -489v-211h-143v211z" />
    <glyph glyph-name="Z" unicode="Z" horiz-adv-x="1200" 
d="M69 101l769 469h-759v130h1042v-101l-770 -469h790v-130h-1072v101z" />
    <glyph glyph-name="bracketleft" unicode="[" horiz-adv-x="506" 
d="M128 850h330v-104h-188v-792h188v-104h-330v1000z" />
    <glyph glyph-name="backslash" unicode="\" horiz-adv-x="587" 
d="M608 -76h-127l-502 853h127z" />
    <glyph glyph-name="bracketright" unicode="]" horiz-adv-x="506" 
d="M378 -150h-330v104h188v792h-188v104h330v-1000z" />
    <glyph glyph-name="asciicircum" unicode="^" 
d="M649 676l-254 -326h-176l353 450h154l353 -450h-176z" />
    <glyph glyph-name="underscore" unicode="_" horiz-adv-x="500" 
d="M0 -56h500v-116h-500v116z" />
    <glyph glyph-name="grave" unicode="`" horiz-adv-x="500" 
d="M339 635h-92l-169 171h160z" />
    <glyph glyph-name="a" unicode="a" horiz-adv-x="1097" 
d="M846 102h-596l-85 -102h-157l473 560h135l473 -560h-157zM332 199h432l-216 257z" />
    <glyph glyph-name="b" unicode="b" horiz-adv-x="1083" 
d="M109 560h674q52 0 88 -11t58.5 -30.5t32 -46t9.5 -56.5q0 -41 -19.5 -74t-64.5 -51q68 -15 97.5 -53.5t29.5 -88.5q0 -31 -10 -58t-33 -47.5t-60 -32t-91 -11.5h-711v560zM236 231v-121h548q29 0 47.5 5t28.5 13.5t13.5 19.5t3.5 23t-3.5 23t-13.5 19.5t-28.5 13
t-47.5 4.5h-548zM748 329q28 0 46 4.5t28 13t13.5 19.5t3.5 23t-3.5 23.5t-13.5 19.5t-28.5 13t-47.5 5h-510v-121h512z" />
    <glyph glyph-name="c" unicode="c" horiz-adv-x="1015" 
d="M200 280q0 -35 10 -66t36 -54t71 -36.5t115 -13.5h514v-110h-514q-101 0 -171 22t-113.5 60t-63 89t-19.5 109t19.5 109t63 89t113.5 60t171 22h514v-110h-514q-70 0 -115 -13.5t-71 -36.5t-36 -54t-10 -66z" />
    <glyph glyph-name="d" unicode="d" horiz-adv-x="1080" 
d="M109 560h539q101 0 171 -22t113.5 -60t63 -89t19.5 -109t-19.5 -109t-63 -89t-113.5 -60t-171 -22h-539v560zM236 450v-340h411q70 0 115 13.5t71 36.5t36 54t10 66t-10 66t-36 54t-71 36.5t-115 13.5h-411z" />
    <glyph glyph-name="e" unicode="e" horiz-adv-x="1033" 
d="M109 560h854v-110h-727v-121h639v-98h-639v-121h727v-110h-854v560z" />
    <glyph glyph-name="f" unicode="f" horiz-adv-x="1016" 
d="M109 560h854v-110h-727v-123h639v-110h-639v-217h-127v560z" />
    <glyph glyph-name="g" unicode="g" horiz-adv-x="1079" 
d="M565 329h427v-329h-560q-101 0 -171 22t-113.5 60t-63 89t-19.5 109t19.5 109t63 89t113.5 60t171 22h514v-110h-514q-70 0 -115 -13.5t-71 -36.5t-36 -54t-10 -66t10 -66t36 -54t71 -36.5t115 -13.5h436v121h-303v98z" />
    <glyph glyph-name="h" unicode="h" horiz-adv-x="1126" 
d="M890 224h-654v-224h-127v560h127v-224h654v224h127v-560h-127v224z" />
    <glyph glyph-name="i" unicode="i" horiz-adv-x="345" 
d="M109 560h127v-560h-127v560z" />
    <glyph glyph-name="j" unicode="j" horiz-adv-x="1042" 
d="M325 -4q-81 0 -136 17.5t-88 48t-47.5 71.5t-14.5 87v47h127v-47q0 -24 6.5 -44.5t24.5 -36t49 -24.5t80 -9h276q68 0 111.5 11.5t68 31.5t34 48.5t9.5 62.5v300h128v-300q0 -58 -17 -106.5t-57.5 -83.5t-107.5 -54.5t-168 -19.5h-278v0z" />
    <glyph glyph-name="k" unicode="k" horiz-adv-x="1117" 
d="M590 310l520 -310h-217l-415 248l-242 -135v-113h-127v560h127v-323l573 323h230z" />
    <glyph glyph-name="l" unicode="l" horiz-adv-x="986" 
d="M236 110h710v-110h-837v560h127v-450z" />
    <glyph glyph-name="m" unicode="m" horiz-adv-x="1252" 
d="M1143 560v-560h-127v391l-390 -374l-390 374v-391h-127v560h122l395 -377l396 377h121z" />
    <glyph glyph-name="n" unicode="n" horiz-adv-x="1128" 
d="M899 0l-663 418v-418h-127v560h121l662 -418v418h127v-560h-120z" />
    <glyph glyph-name="o" unicode="o" horiz-adv-x="1154" 
d="M443 -8q-104 0 -176 22.5t-117 61.5t-65 91.5t-20 112.5t20 112.5t65 91.5t117 61.5t176 22.5h269q104 0 176 -22.5t116.5 -61.5t64.5 -91.5t20 -112.5t-20 -112.5t-64.5 -91.5t-116.5 -61.5t-176 -22.5h-269zM711 102q73 0 120 14t74.5 38t38 56.5t10.5 69.5t-10.5 69.5
t-38 56.5t-74.5 38t-120 14h-267q-73 0 -120.5 -14t-75 -38t-38 -56.5t-10.5 -69.5t10.5 -69.5t38 -56.5t75 -38t120.5 -14h267z" />
    <glyph glyph-name="p" unicode="p" horiz-adv-x="1040" 
d="M109 560h651q67 0 113 -14.5t74.5 -39.5t41 -58.5t12.5 -71.5q0 -39 -12.5 -72.5t-41 -58t-74.5 -39t-113 -14.5h-524v-192h-127v560zM236 450v-146h521q36 0 57.5 5.5t33.5 15.5t16 23t4 28t-4 28.5t-16 23.5t-33.5 16t-57.5 6h-521z" />
    <glyph glyph-name="q" unicode="q" horiz-adv-x="1154" 
d="M443 -8q-104 0 -176 22.5t-117 61.5t-65 91.5t-20 112.5t20 112.5t65 91.5t117 61.5t176 22.5h269q104 0 176 -22.5t116.5 -61.5t64.5 -91.5t20 -112.5q0 -40 -9 -77.5t-28.5 -69.5t-49.5 -58.5t-73 -44.5l217 -118h-208l-150 84q-18 -2 -37 -3t-39 -1h-269zM711 102
q73 0 120 14t74.5 38t38 56.5t10.5 69.5t-10.5 69.5t-38 56.5t-74.5 38t-120 14h-267q-73 0 -120.5 -14t-75 -38t-38 -56.5t-10.5 -69.5t10.5 -69.5t38 -56.5t75 -38t120.5 -14h267z" />
    <glyph glyph-name="r" unicode="r" horiz-adv-x="1106" 
d="M109 560h641q66 0 112.5 -14t75 -39t41.5 -58t13 -70q0 -38 -12.5 -71t-41 -58t-74 -39.5t-110.5 -14.5l341 -196h-208l-327 195h-324v-195h-127v560zM236 450v-149h509q36 0 58 6t34.5 16t17 23.5t4.5 28.5t-4.5 29t-17 24t-34.5 16t-58 6h-509z" />
    <glyph glyph-name="s" unicode="s" horiz-adv-x="1032" 
d="M95 110h650q29 0 47.5 5t28.5 13t13.5 19.5t3.5 23.5t-3.5 23t-13.5 19.5t-28.5 13t-47.5 4.5h-465q-61 0 -102.5 12.5t-67.5 34.5t-37.5 52t-11.5 65t11.5 65t37.5 52.5t67.5 35t102.5 12.5h657v-110h-651q-29 0 -47 -5t-28 -13t-13.5 -19.5t-3.5 -23.5t3.5 -23
t13.5 -19.5t28 -13t47 -4.5h466q61 0 102.5 -12.5t67.5 -34.5t37.5 -52t11.5 -65t-11.5 -65t-37.5 -52.5t-67.5 -35t-102.5 -12.5h-657v110z" />
    <glyph glyph-name="t" unicode="t" horiz-adv-x="1040" 
d="M40 560h960v-110h-416v-450h-127v450h-417v110z" />
    <glyph glyph-name="u" unicode="u" horiz-adv-x="1094" 
d="M216 258q0 -34 9 -62.5t34 -49.5t68.5 -32.5t111.5 -11.5h215q69 0 112.5 11.5t68 32.5t34 49.5t9.5 62.5v302h127v-302q0 -58 -16.5 -106.5t-57 -84t-108 -55.5t-168.5 -20h-217q-101 0 -168 20t-107.5 55.5t-57 84t-16.5 106.5v302h127v-302v0z" />
    <glyph glyph-name="v" unicode="v" horiz-adv-x="1097" 
d="M481 0l-473 560h161l379 -456l380 456h161l-473 -560h-135z" />
    <glyph glyph-name="w" unicode="w" horiz-adv-x="1383" 
d="M451 0h-94l-338 560h153l235 -408l237 408h95l237 -408l235 408h153l-338 -560h-94l-241 408z" />
    <glyph glyph-name="x" unicode="x" horiz-adv-x="1063" 
d="M225 560l307 -214l307 214h207l-413 -278l417 -282h-207l-311 218l-312 -218h-207l417 282l-412 278h207z" />
    <glyph glyph-name="y" unicode="y" horiz-adv-x="1066" 
d="M469 171l-472 389h189l347 -294l347 294h189l-472 -389v-171h-128v171z" />
    <glyph glyph-name="z" unicode="z" horiz-adv-x="1027" 
d="M62 85l644 365h-635v110h887v-85l-645 -365h662v-110h-913v85z" />
    <glyph glyph-name="braceleft" unicode="{" horiz-adv-x="506" 
d="M167 723q0 26 8 49t26.5 40.5t48.5 27.5t74 10h135v-104h-89q-20 0 -32 -4.5t-18.5 -12t-8.5 -17.5t-2 -20v-225q0 -40 -20.5 -71.5t-67.5 -45.5q47 -15 67.5 -46.5t20.5 -70.5v-225q0 -11 2 -20.5t8.5 -17t18.5 -12t32 -4.5h89v-104h-135q-44 0 -74 10t-48.5 27
t-26.5 40.5t-8 49.5v267q0 10 -2 20t-8.5 17.5t-18.5 12t-32 4.5h-59v104h59q20 0 32 4.5t18.5 12t8.5 17t2 20.5v267z" />
    <glyph glyph-name="bar" unicode="|" horiz-adv-x="500" 
d="M311 850v-1000h-122v1000h122z" />
    <glyph glyph-name="braceright" unicode="}" horiz-adv-x="506" 
d="M339 456q0 -11 2 -20.5t8.5 -17t18.5 -12t32 -4.5h59v-104h-59q-20 0 -32 -4.5t-18.5 -12t-8.5 -17.5t-2 -20v-267q0 -26 -8 -49.5t-26.5 -40.5t-48.5 -27t-74 -10h-135v104h89q20 0 32 4.5t18.5 12t8.5 17t2 20.5v225q0 39 20.5 70.5t67.5 46.5q-47 14 -67.5 45.5
t-20.5 71.5v225q0 10 -2 20t-8.5 17.5t-18.5 12t-32 4.5h-89v104h135q44 0 74 -10t48.5 -27.5t26.5 -40.5t8 -49v-267z" />
    <glyph glyph-name="asciitilde" unicode="~" 
d="M1014 323q-52 -38 -98 -53t-90 -15q-48 0 -92 13t-87.5 28.5t-87 28.5t-89.5 13q-44 0 -89.5 -15.5t-96.5 -57.5v135q52 38 98 53t90 15q47 0 91.5 -13t88 -28.5t87 -28.5t89.5 -13q44 0 89.5 15.5t96.5 57.5v-135z" />
    <glyph glyph-name="uni00A0" unicode="&#xa0;" horiz-adv-x="500" 
 />
    <glyph glyph-name="exclamdown" unicode="&#xa1;" horiz-adv-x="376" 
d="M263 551h-149v149h149v-149zM260 0h-142l7 487h128z" />
    <glyph glyph-name="cent" unicode="&#xa2;" 
d="M1165 126h-472l-31 -146h-129l31 146h-150q-76 0 -130 17.5t-88 48t-49.5 71.5t-15.5 87t15.5 87t49.5 71.5t88 48t130 17.5h245l31 147h129l-31 -147h378v-117h-404l-45 -214h448v-117zM267 350q0 -26 7.5 -45.5t28 -33.5t55.5 -21t90 -7h140l46 214h-188
q-54 0 -88.5 -7t-55 -21t-28 -34t-7.5 -45z" />
    <glyph glyph-name="sterling" unicode="&#xa3;" 
d="M759 291h-363v-73q0 -30 -14.5 -53.5t-39.5 -34.5h837v-130h-1060v125h64q35 0 52.5 19t17.5 52v95h-134v118h134v43q0 51 16.5 96.5t52.5 79t94.5 53t142.5 19.5h500v-130h-505q-49 0 -80 -10.5t-48 -27.5t-23.5 -39.5t-6.5 -47.5v-36h363v-118z" />
    <glyph glyph-name="currency" unicode="&#xa4;" 
d="M518 74q-66 0 -118 11.5t-91 31.5l-122 -127l-93 92l120 117q-23 32 -33.5 70.5t-10.5 80.5t10.5 80.5t33.5 70.5l-120 117l93 92l122 -127q39 20 91 31.5t118 11.5h261q66 0 118 -12t91 -32l123 128l93 -92l-121 -118q23 -32 33.5 -70t10.5 -80t-10.5 -80.5t-33.5 -70.5
l121 -117l-93 -92l-123 127q-39 -20 -91 -31.5t-118 -11.5h-261zM316 350q0 -31 9 -58.5t32.5 -47.5t62.5 -32t99 -12h259q60 0 99 12t62.5 32t32.5 47.5t9 58.5t-9 58t-32.5 47.5t-62.5 32.5t-99 12h-259q-60 0 -99 -12t-62.5 -32.5t-32.5 -47.5t-9 -58z" />
    <glyph glyph-name="yen" unicode="&#xa5;" 
d="M1219 700l-313 -260h289v-111h-403l-71 -61v-40h474v-111h-474v-117h-144v117h-474v111h474v40l-71 61h-403v111h289l-313 260h206l364 -320l364 320h206z" />
    <glyph glyph-name="brokenbar" unicode="&#xa6;" horiz-adv-x="500" 
d="M189 467v383h122v-383h-122zM311 233v-383h-122v383h122z" />
    <glyph glyph-name="section" unicode="&#xa7;" horiz-adv-x="1226" 
d="M278 136q-56 0 -96 13t-65 35t-36.5 52t-11.5 64q0 30 9 57.5t29 49t52 35.5t78 18q-25 18 -36.5 44t-11.5 57q0 29 10 54.5t31 44t54 29.5t80 11h641v-117h-589q-30 0 -48 -5t-27.5 -13.5t-13 -19t-3.5 -22.5t3.5 -23t13 -19t27.5 -12.5t48 -4.5h532q56 0 96 -13t65 -35
t36.5 -52t11.5 -64q0 -30 -9.5 -57.5t-29.5 -49t-52 -35.5t-78 -18q26 -18 37.5 -44t11.5 -57q0 -29 -10 -54.5t-31 -44t-54 -29.5t-80 -11h-641v117h589q30 0 48 5t27.5 13t13 19t3.5 23t-3 23t-13 19t-27.5 12.5t-46.5 4.5h-534zM939 240q28 0 46 4.5t27.5 13t13 19.5
t3.5 23t-3.5 23t-13.5 19t-27.5 13t-45.5 5h-652q-28 0 -45.5 -4.5t-27.5 -13t-13.5 -19.5t-3.5 -23t3.5 -23t13 -19t27 -13t46.5 -5h652z" />
    <glyph glyph-name="dieresis" unicode="&#xa8;" horiz-adv-x="500" 
d="M326 785h132v-131h-132v131zM41 785h132v-131h-132v131z" />
    <glyph glyph-name="copyright" unicode="&#xa9;" horiz-adv-x="1208" 
d="M516 -10q-122 0 -208.5 28.5t-141 77t-79.5 114t-25 140.5t25 140.5t79.5 114t141 77t208.5 28.5h176q122 0 208.5 -28.5t141 -77t79.5 -114t25 -140.5t-25 -140.5t-79.5 -114t-141 -77t-208.5 -28.5h-176zM691 81q98 0 164.5 21t107.5 57.5t59 85.5t18 105t-18 105
t-59 85.5t-107.5 57.5t-164.5 21h-174q-98 0 -164.5 -21t-107.5 -57.5t-59 -85.5t-18 -105t18 -105t59 -85.5t107.5 -57.5t164.5 -21h174zM829 175h-299q-60 0 -102 13.5t-68.5 37.5t-38.5 56t-12 68t12 68t38.5 55.5t68.5 37.5t102 14h299v-75h-298q-39 0 -65 -8t-41 -21.5
t-21 -31.5t-6 -39t6 -39t21 -31.5t41 -21.5t65 -8h298v-75z" />
    <glyph glyph-name="ordfeminine" unicode="&#xaa;" horiz-adv-x="757" 
d="M56 350l271 350h102l272 -350h-119l-41 52h-326l-41 -52h-118zM273 477h210l-105 136z" />
    <glyph glyph-name="guillemotleft" unicode="&#xab;" horiz-adv-x="834" 
d="M419 560l-187 -278l189 -282h-148l-189 282l187 278h148zM747 560l-187 -278l189 -282h-148l-189 282l187 278h148z" />
    <glyph glyph-name="logicalnot" unicode="&#xac;" 
d="M284 415h730v-375h-143v245h-587v130z" />
    <glyph glyph-name="uni00AD" unicode="&#xad;" horiz-adv-x="600" 
d="M89 338h422v-116h-422v116z" />
    <glyph glyph-name="registered" unicode="&#xae;" horiz-adv-x="1208" 
d="M516 -10q-122 0 -208.5 28.5t-141 77t-79.5 114t-25 140.5t25 140.5t79.5 114t141 77t208.5 28.5h176q122 0 208.5 -28.5t141 -77t79.5 -114t25 -140.5t-25 -140.5t-79.5 -114t-141 -77t-208.5 -28.5h-176zM691 81q98 0 164.5 21t107.5 57.5t59 85.5t18 105t-18 105
t-59 85.5t-107.5 57.5t-164.5 21h-174q-98 0 -164.5 -21t-107.5 -57.5t-59 -85.5t-18 -105t18 -105t59 -85.5t107.5 -57.5t164.5 -21h174zM343 525h374q39 0 67 -9t45 -25t25 -36.5t8 -44.5q0 -44 -26.5 -75t-89.5 -38l178 -122h-123l-166 119h-210v-119h-82v350zM425 450
v-85h285q38 0 51 12t13 30t-13 30.5t-51 12.5h-285z" />
    <glyph glyph-name="macron" unicode="&#xaf;" horiz-adv-x="500" 
d="M60 766h380v-92h-380v92z" />
    <glyph glyph-name="degree" unicode="&#xb0;" horiz-adv-x="564" 
d="M76 506q0 44 16.5 81.5t44.5 64.5t65.5 42.5t79.5 15.5t79.5 -15.5t65.5 -42.5t44.5 -64.5t16.5 -81.5t-16.5 -81t-44.5 -64t-65.5 -42.5t-79.5 -15.5t-79.5 15.5t-65.5 42.5t-44.5 64t-16.5 81zM186 506q0 -45 26.5 -74t69.5 -29t69.5 29t26.5 74t-26.5 74.5t-69.5 29.5
t-69.5 -29.5t-26.5 -74.5z" />
    <glyph glyph-name="plusminus" unicode="&#xb1;" 
d="M284 530h293v170h144v-170h293v-130h-293v-170h-144v170h-293v130zM284 130h730v-130h-730v130z" />
    <glyph glyph-name="uni00B2" unicode="&#xb2;" horiz-adv-x="742" 
d="M116 613v87h403q73 0 104.5 -30t31.5 -74q0 -45 -31 -74t-105 -29h-283q-27 0 -36 -9t-9 -20v-27h449v-87h-544v104q0 45 31 74t105 29h280q29 0 37 8.5t8 19.5t-8 19.5t-37 8.5h-396z" />
    <glyph glyph-name="uni00B3" unicode="&#xb3;" horiz-adv-x="742" 
d="M134 493v64h344q29 0 36.5 8.5t7.5 19.5t-7.5 19.5t-36.5 8.5h-387v87h416q62 0 88 -26.5t26 -64.5q0 -25 -11 -45t-36 -32q38 -10 55 -33.5t17 -55.5q0 -38 -27 -65.5t-91 -27.5h-447v87h418q29 0 37 8t8 19t-7.5 20t-37.5 9h-365z" />
    <glyph glyph-name="acute" unicode="&#xb4;" horiz-adv-x="500" 
d="M261 806h160l-169 -171h-92z" />
    <glyph glyph-name="mu" unicode="&#xb5;" 
d="M1042 128q-20 -28 -49 -51.5t-68 -40.5t-87.5 -26.5t-108.5 -9.5h-305q-58 0 -95.5 14t-56.5 49v-263h-143v760h143v-350q0 -17 6 -31.5t20 -25.5t38 -17t60 -6h317q85 0 145 17.5t97 47.5t54 70.5t17 87.5v207h143v-560h-95z" />
    <glyph glyph-name="paragraph" unicode="&#xb6;" horiz-adv-x="1199" 
d="M650 -100h-143v345h-160q-78 0 -133 17.5t-89.5 48.5t-50 72t-15.5 89q0 47 15.5 88.5t50 72.5t89.5 49t133 18h760v-130h-100v-670h-143v670h-214v-670z" />
    <glyph glyph-name="periodcentered" unicode="&#xb7;" horiz-adv-x="337" 
d="M94 424h149v-149h-149v149z" />
    <glyph glyph-name="cedilla" unicode="&#xb8;" horiz-adv-x="500" 
d="M218 0h52l-17 -70q31 0 58 -4.5t47 -16.5t32 -32.5t12 -52.5q0 -34 -16 -56t-41.5 -34t-57 -15.5t-63 -1t-60 9.5t-47.5 17v63q16 -11 47.5 -17.5t62.5 -6t54 11t23 33.5q0 27 -20.5 35.5t-62.5 9.5h-36z" />
    <glyph glyph-name="uni00B9" unicode="&#xb9;" horiz-adv-x="742" 
d="M233 700h215v-263h135v-87h-425v87h195v176h-120v87z" />
    <glyph glyph-name="ordmasculine" unicode="&#xba;" horiz-adv-x="754" 
d="M303 345q-61 0 -104 14t-70.5 38.5t-40 57t-12.5 70.5q0 37 12.5 70t40 57.5t70.5 38.5t104 14h148q61 0 104 -14t70.5 -38.5t40 -57.5t12.5 -70q0 -38 -12.5 -70.5t-40 -57t-70.5 -38.5t-104 -14h-148zM451 432q37 0 62.5 7.5t41 20t22 29.5t6.5 36t-6.5 35.5t-22 29.5
t-41 20.5t-62.5 7.5h-147q-38 0 -63.5 -7.5t-40.5 -20.5t-21.5 -29.5t-6.5 -35.5t6.5 -36t21.5 -29.5t40.5 -20t63.5 -7.5h147z" />
    <glyph glyph-name="guillemotright" unicode="&#xbb;" horiz-adv-x="834" 
d="M563 560l187 -278l-189 -282h-148l189 282l-187 278h148zM235 560l187 -278l-189 -282h-148l189 282l-187 278h148z" />
    <glyph glyph-name="onequarter" unicode="&#xbc;" horiz-adv-x="1484" 
d="M233 700h215v-263h135v-87h-425v87h195v176h-120v87zM1217 700l-809 -700h-141l810 700h140zM1356 350v-208h56v-87h-56v-55h-96v55h-436v72l441 223h91zM1260 142v122l-251 -122h251z" />
    <glyph glyph-name="onehalf" unicode="&#xbd;" horiz-adv-x="1484" 
d="M233 700h215v-263h135v-87h-425v87h195v176h-120v87zM1217 700l-809 -700h-141l810 700h140zM858 263v87h403q73 0 104.5 -30t31.5 -74q0 -45 -31 -74t-105 -29h-283q-27 0 -36 -9t-9 -20v-27h449v-87h-544v104q0 45 31 74t105 29h280q29 0 37 8.5t8 19.5t-8 19.5
t-37 8.5h-396z" />
    <glyph glyph-name="threequarters" unicode="&#xbe;" horiz-adv-x="1484" 
d="M134 493v64h344q29 0 36.5 8.5t7.5 19.5t-7.5 19.5t-36.5 8.5h-387v87h416q62 0 88 -26.5t26 -64.5q0 -25 -11 -45t-36 -32q38 -10 55 -33.5t17 -55.5q0 -38 -27 -65.5t-91 -27.5h-447v87h418q29 0 37 8t8 19t-7.5 20t-37.5 9h-365zM1217 700l-809 -700h-141l810 700h140
zM1356 350v-208h56v-87h-56v-55h-96v55h-436v72l441 223h91zM1260 142v122l-251 -122h251z" />
    <glyph glyph-name="questiondown" unicode="&#xbf;" horiz-adv-x="1070" 
d="M771 294h-473q-36 0 -59 -6.5t-36 -18t-18 -26.5t-5 -31t5 -30.5t18 -26t36 -18.5t59 -7h745v-130h-751q-71 0 -121 15.5t-81.5 43t-46 64.5t-14.5 80t14.5 80.5t46 64.5t81.5 42.5t121 15.5h350v81h129v-193zM780 551h-148v149h148v-149z" />
    <glyph glyph-name="Agrave" unicode="&#xc0;" horiz-adv-x="1284" 
d="M1003 122h-723l-96 -122h-177l558 700h153l559 -700h-177zM374 240h535l-268 338zM731 775h-92l-169 171h160z" />
    <glyph glyph-name="Aacute" unicode="&#xc1;" horiz-adv-x="1284" 
d="M1003 122h-723l-96 -122h-177l558 700h153l559 -700h-177zM374 240h535l-268 338zM653 946h160l-169 -171h-92z" />
    <glyph glyph-name="Acircumflex" unicode="&#xc2;" horiz-adv-x="1284" 
d="M1003 122h-723l-96 -122h-177l558 700h153l559 -700h-177zM374 240h535l-268 338zM840 775h-92l-105 102l-106 -102h-93l116 171h165z" />
    <glyph glyph-name="Atilde" unicode="&#xc3;" horiz-adv-x="1284" 
d="M1003 122h-723l-96 -122h-177l558 700h153l559 -700h-177zM374 240h535l-268 338zM825 940q-3 -87 -32 -120.5t-77 -33.5q-24 0 -44.5 8t-38.5 17l-34 17t-30 8q-18 0 -28 -12t-12 -44h-70q3 87 32 120.5t77 33.5q24 0 44 -7.5t38 -17t34 -17t31 -7.5q18 0 28 11.5
t12 43.5h70z" />
    <glyph glyph-name="Adieresis" unicode="&#xc4;" horiz-adv-x="1284" 
d="M1003 122h-723l-96 -122h-177l558 700h153l559 -700h-177zM374 240h535l-268 338zM718 925h132v-131h-132v131zM433 925h132v-131h-132v131z" />
    <glyph glyph-name="Aring" unicode="&#xc5;" horiz-adv-x="1284" 
d="M1003 122h-723l-96 -122h-177l558 700h153l559 -700h-177zM374 240h535l-268 338zM595 861q0 -20 13.5 -33.5t33.5 -13.5q19 0 33 13.5t14 33.5t-14 33t-33 13q-20 0 -33.5 -13t-13.5 -33zM514 861q0 24 9.5 45t26.5 36.5t40.5 24.5t51.5 9t51.5 -9t40.5 -24.5
t26.5 -36.5t9.5 -45t-9.5 -45t-26.5 -36.5t-40.5 -24.5t-51.5 -9t-51.5 9t-40.5 24.5t-26.5 36.5t-9.5 45z" />
    <glyph glyph-name="AE" unicode="&#xc6;" horiz-adv-x="1716" 
d="M298 119l-111 -119h-180l658 700h974v-130h-755v-161h653v-118h-653v-161h755v-130h-898v119h-443zM406 237h335v357z" />
    <glyph glyph-name="Ccedilla" unicode="&#xc7;" horiz-adv-x="1184" 
d="M610 0h-97q-119 0 -202.5 27.5t-136.5 75t-77.5 111.5t-24.5 136t24.5 136t77.5 111.5t136.5 75t202.5 27.5h594v-130h-593q-84 0 -139.5 -17.5t-89 -47.5t-47 -70t-13.5 -85t13.5 -85t47 -70t89 -47.5t139.5 -17.5h593v-130h-445l-17 -70q31 0 58 -4.5t47 -16.5
t32 -32.5t12 -52.5q0 -34 -16 -56t-41.5 -34t-57 -15.5t-63 -1t-60 9.5t-47.5 17v63q16 -11 47.5 -17.5t62.5 -6t54 11t23 33.5q0 27 -20.5 35.5t-62.5 9.5h-36z" />
    <glyph glyph-name="Egrave" unicode="&#xc8;" horiz-adv-x="1199" 
d="M119 700h1003v-130h-860v-161h758v-118h-758v-161h860v-130h-1003v700zM698 775h-92l-169 171h160z" />
    <glyph glyph-name="Eacute" unicode="&#xc9;" horiz-adv-x="1199" 
d="M119 700h1003v-130h-860v-161h758v-118h-758v-161h860v-130h-1003v700zM620 946h160l-169 -171h-92z" />
    <glyph glyph-name="Ecircumflex" unicode="&#xca;" horiz-adv-x="1199" 
d="M119 700h1003v-130h-860v-161h758v-118h-758v-161h860v-130h-1003v700zM807 775h-92l-105 102l-106 -102h-93l116 171h165z" />
    <glyph glyph-name="Edieresis" unicode="&#xcb;" horiz-adv-x="1199" 
d="M119 700h1003v-130h-860v-161h758v-118h-758v-161h860v-130h-1003v700zM685 925h132v-131h-132v131zM400 925h132v-131h-132v131z" />
    <glyph glyph-name="Igrave" unicode="&#xcc;" horiz-adv-x="381" 
d="M119 700h143v-700h-143v700zM280 775h-92l-169 171h160z" />
    <glyph glyph-name="Iacute" unicode="&#xcd;" horiz-adv-x="381" 
d="M119 700h143v-700h-143v700zM202 946h160l-169 -171h-92z" />
    <glyph glyph-name="Icircumflex" unicode="&#xce;" horiz-adv-x="381" 
d="M119 700h143v-700h-143v700zM389 775h-92l-105 102l-106 -102h-93l116 171h165z" />
    <glyph glyph-name="Idieresis" unicode="&#xcf;" horiz-adv-x="381" 
d="M119 700h143v-700h-143v700zM267 925h132v-131h-132v131zM-18 925h132v-131h-132v131z" />
    <glyph glyph-name="Eth" unicode="&#xd0;" horiz-adv-x="1255" 
d="M-11 409h130v291h623q119 0 202.5 -27.5t136.5 -75t77.5 -111.5t24.5 -136t-24.5 -136t-77.5 -111.5t-136.5 -75t-202.5 -27.5h-623v291h-130v118zM262 570v-161h380v-118h-380v-161h479q84 0 139.5 17.5t89 47.5t47 70t13.5 85t-13.5 85t-47 70t-89 47.5t-139.5 17.5
h-479z" />
    <glyph glyph-name="Ntilde" unicode="&#xd1;" horiz-adv-x="1308" 
d="M262 533v-533h-143v700h136l791 -533v533h143v-700h-136zM837 940q-3 -87 -32 -120.5t-77 -33.5q-24 0 -44.5 8t-38.5 17l-34 17t-30 8q-18 0 -28 -12t-12 -44h-70q3 87 32 120.5t77 33.5q24 0 44 -7.5t38 -17t34 -17t31 -7.5q18 0 28 11.5t12 43.5h70z" />
    <glyph glyph-name="Ograve" unicode="&#xd2;" horiz-adv-x="1348" 
d="M526 -10q-122 0 -208.5 28.5t-141 77t-79.5 114t-25 140.5t25 140.5t79.5 114t141 77t208.5 28.5h296q122 0 208.5 -28.5t141 -77t79.5 -114t25 -140.5t-25 -140.5t-79.5 -114t-141 -77t-208.5 -28.5h-296zM821 120q87 0 145.5 18t93 49.5t49 73t14.5 89.5t-14.5 89.5
t-49 73t-93 49.5t-145.5 18h-293q-88 0 -146.5 -18t-93.5 -49.5t-49.5 -73t-14.5 -89.5t14.5 -89.5t49.5 -73t93.5 -49.5t145.5 -18h294zM763 775h-92l-169 171h160z" />
    <glyph glyph-name="Oacute" unicode="&#xd3;" horiz-adv-x="1348" 
d="M526 -10q-122 0 -208.5 28.5t-141 77t-79.5 114t-25 140.5t25 140.5t79.5 114t141 77t208.5 28.5h296q122 0 208.5 -28.5t141 -77t79.5 -114t25 -140.5t-25 -140.5t-79.5 -114t-141 -77t-208.5 -28.5h-296zM821 120q87 0 145.5 18t93 49.5t49 73t14.5 89.5t-14.5 89.5
t-49 73t-93 49.5t-145.5 18h-293q-88 0 -146.5 -18t-93.5 -49.5t-49.5 -73t-14.5 -89.5t14.5 -89.5t49.5 -73t93.5 -49.5t145.5 -18h294zM685 946h160l-169 -171h-92z" />
    <glyph glyph-name="Ocircumflex" unicode="&#xd4;" horiz-adv-x="1348" 
d="M526 -10q-122 0 -208.5 28.5t-141 77t-79.5 114t-25 140.5t25 140.5t79.5 114t141 77t208.5 28.5h296q122 0 208.5 -28.5t141 -77t79.5 -114t25 -140.5t-25 -140.5t-79.5 -114t-141 -77t-208.5 -28.5h-296zM821 120q87 0 145.5 18t93 49.5t49 73t14.5 89.5t-14.5 89.5
t-49 73t-93 49.5t-145.5 18h-293q-88 0 -146.5 -18t-93.5 -49.5t-49.5 -73t-14.5 -89.5t14.5 -89.5t49.5 -73t93.5 -49.5t145.5 -18h294zM872 775h-92l-105 102l-106 -102h-93l116 171h165z" />
    <glyph glyph-name="Otilde" unicode="&#xd5;" horiz-adv-x="1348" 
d="M526 -10q-122 0 -208.5 28.5t-141 77t-79.5 114t-25 140.5t25 140.5t79.5 114t141 77t208.5 28.5h296q122 0 208.5 -28.5t141 -77t79.5 -114t25 -140.5t-25 -140.5t-79.5 -114t-141 -77t-208.5 -28.5h-296zM821 120q87 0 145.5 18t93 49.5t49 73t14.5 89.5t-14.5 89.5
t-49 73t-93 49.5t-145.5 18h-293q-88 0 -146.5 -18t-93.5 -49.5t-49.5 -73t-14.5 -89.5t14.5 -89.5t49.5 -73t93.5 -49.5t145.5 -18h294zM857 940q-3 -87 -32 -120.5t-77 -33.5q-24 0 -44.5 8t-38.5 17l-34 17t-30 8q-18 0 -28 -12t-12 -44h-70q3 87 32 120.5t77 33.5
q24 0 44 -7.5t38 -17t34 -17t31 -7.5q18 0 28 11.5t12 43.5h70z" />
    <glyph glyph-name="Odieresis" unicode="&#xd6;" horiz-adv-x="1348" 
d="M526 -10q-122 0 -208.5 28.5t-141 77t-79.5 114t-25 140.5t25 140.5t79.5 114t141 77t208.5 28.5h296q122 0 208.5 -28.5t141 -77t79.5 -114t25 -140.5t-25 -140.5t-79.5 -114t-141 -77t-208.5 -28.5h-296zM821 120q87 0 145.5 18t93 49.5t49 73t14.5 89.5t-14.5 89.5
t-49 73t-93 49.5t-145.5 18h-293q-88 0 -146.5 -18t-93.5 -49.5t-49.5 -73t-14.5 -89.5t14.5 -89.5t49.5 -73t93.5 -49.5t145.5 -18h294zM750 925h132v-131h-132v131zM465 925h132v-131h-132v131z" />
    <glyph glyph-name="multiply" unicode="&#xd7;" 
d="M742 348l231 -210l-97 -97l-229 218l-225 -218l-97 97l227 210l-227 206l97 97l225 -215l229 223l97 -97z" />
    <glyph glyph-name="Oslash" unicode="&#xd8;" horiz-adv-x="1348" 
d="M526 -10q-10 0 -19 0.5t-18 0.5l-67 -91h-164l83 111q-72 19 -123 52t-83.5 77.5t-47.5 97.5t-15 112q0 75 25 140.5t79.5 114t141 77t208.5 28.5h296q9 0 18 -0.5t18 -0.5l68 91h163l-83 -112q72 -19 123 -52t83.5 -77t48 -97.5t15.5 -111.5q0 -75 -25 -140.5
t-79.5 -114t-141 -77t-208.5 -28.5h-296zM224 350q0 -40 10 -76.5t33.5 -65.5t62.5 -50t97 -31l336 453h-235q-88 0 -146.5 -18t-93.5 -49.5t-49.5 -73t-14.5 -89.5zM1123 350q0 40 -10 76t-33.5 65t-62.5 50t-97 31l-335 -452h236q87 0 145.5 18t93 49.5t49 73t14.5 89.5z
" />
    <glyph glyph-name="Ugrave" unicode="&#xd9;" horiz-adv-x="1275" 
d="M242 323q0 -44 13 -81.5t44.5 -64.5t85.5 -42t136 -15h233q82 0 136 15t85.5 42t44.5 64.5t13 81.5v377h143v-377q0 -72 -21 -133.5t-70.5 -105.5t-130 -69t-199.5 -25h-235q-119 0 -199.5 25t-130 69t-70.5 105.5t-21 133.5v377h143v-377zM726 775h-92l-169 171h160z
" />
    <glyph glyph-name="Uacute" unicode="&#xda;" horiz-adv-x="1275" 
d="M242 323q0 -44 13 -81.5t44.5 -64.5t85.5 -42t136 -15h233q82 0 136 15t85.5 42t44.5 64.5t13 81.5v377h143v-377q0 -72 -21 -133.5t-70.5 -105.5t-130 -69t-199.5 -25h-235q-119 0 -199.5 25t-130 69t-70.5 105.5t-21 133.5v377h143v-377zM648 946h160l-169 -171h-92z
" />
    <glyph glyph-name="Ucircumflex" unicode="&#xdb;" horiz-adv-x="1275" 
d="M242 323q0 -44 13 -81.5t44.5 -64.5t85.5 -42t136 -15h233q82 0 136 15t85.5 42t44.5 64.5t13 81.5v377h143v-377q0 -72 -21 -133.5t-70.5 -105.5t-130 -69t-199.5 -25h-235q-119 0 -199.5 25t-130 69t-70.5 105.5t-21 133.5v377h143v-377zM835 775h-92l-105 102
l-106 -102h-93l116 171h165z" />
    <glyph glyph-name="Udieresis" unicode="&#xdc;" horiz-adv-x="1275" 
d="M242 323q0 -44 13 -81.5t44.5 -64.5t85.5 -42t136 -15h233q82 0 136 15t85.5 42t44.5 64.5t13 81.5v377h143v-377q0 -72 -21 -133.5t-70.5 -105.5t-130 -69t-199.5 -25h-235q-119 0 -199.5 25t-130 69t-70.5 105.5t-21 133.5v377h143v-377zM714 925h132v-131h-132v131z
M429 925h132v-131h-132v131z" />
    <glyph glyph-name="Yacute" unicode="&#xdd;" horiz-adv-x="1253" 
d="M555 211l-558 489h212l417 -374l418 374h212l-558 -489v-211h-143v211zM637 946h160l-169 -171h-92z" />
    <glyph glyph-name="Thorn" unicode="&#xde;" horiz-adv-x="1195" 
d="M119 700h143v-122h617q78 0 132.5 -18t89 -49t50.5 -72.5t16 -88.5q0 -48 -16 -89.5t-50.5 -72.5t-89 -48.5t-132.5 -17.5h-617v-122h-143v700zM262 447v-194h613q43 0 70.5 7.5t43 20.5t21.5 30.5t6 38.5q0 20 -6 37.5t-21.5 31t-43 21t-70.5 7.5h-613z" />
    <glyph glyph-name="germandbls" unicode="&#xdf;" horiz-adv-x="1088" 
d="M476 318l239 132h-268q-68 0 -113 -11.5t-71 -31.5t-36.5 -48.5t-10.5 -62.5v-296h-127v296q0 58 18 106.5t59.5 83.5t110 54.5t169.5 19.5h511v-85l-283 -146h144q61 0 102.5 -12.5t67.5 -34.5t37.5 -52t11.5 -65t-11.5 -65t-37.5 -52.5t-67.5 -35t-102.5 -12.5h-439
v110h432q30 0 48 5t28 13t13.5 19.5t3.5 23.5t-3.5 23t-13.5 19.5t-28.5 13t-47.5 4.5h-335v87z" />
    <glyph glyph-name="agrave" unicode="&#xe0;" horiz-adv-x="1097" 
d="M846 102h-596l-85 -102h-157l473 560h135l473 -560h-157zM332 199h432l-216 257zM637 635h-92l-169 171h160z" />
    <glyph glyph-name="aacute" unicode="&#xe1;" horiz-adv-x="1097" 
d="M846 102h-596l-85 -102h-157l473 560h135l473 -560h-157zM332 199h432l-216 257zM559 806h160l-169 -171h-92z" />
    <glyph glyph-name="acircumflex" unicode="&#xe2;" horiz-adv-x="1097" 
d="M846 102h-596l-85 -102h-157l473 560h135l473 -560h-157zM332 199h432l-216 257zM746 635h-92l-105 102l-106 -102h-93l116 171h165z" />
    <glyph glyph-name="atilde" unicode="&#xe3;" horiz-adv-x="1097" 
d="M846 102h-596l-85 -102h-157l473 560h135l473 -560h-157zM332 199h432l-216 257zM731 800q-3 -87 -32 -120.5t-77 -33.5q-24 0 -44.5 8t-38.5 17l-34 17t-30 8q-18 0 -28 -12t-12 -44h-70q3 87 32 120.5t77 33.5q24 0 44 -7.5t38 -17t34 -17t31 -7.5q18 0 28 11.5
t12 43.5h70z" />
    <glyph glyph-name="adieresis" unicode="&#xe4;" horiz-adv-x="1097" 
d="M846 102h-596l-85 -102h-157l473 560h135l473 -560h-157zM332 199h432l-216 257zM625 785h132v-131h-132v131zM340 785h132v-131h-132v131z" />
    <glyph glyph-name="aring" unicode="&#xe5;" horiz-adv-x="1097" 
d="M846 102h-596l-85 -102h-157l473 560h135l473 -560h-157zM332 199h432l-216 257zM501 721q0 -20 13.5 -33.5t33.5 -13.5q19 0 33 13.5t14 33.5t-14 33t-33 13q-20 0 -33.5 -13t-13.5 -33zM420 721q0 24 9.5 45t26.5 36.5t40.5 24.5t51.5 9t51.5 -9t40.5 -24.5t26.5 -36.5
t9.5 -45t-9.5 -45t-26.5 -36.5t-40.5 -24.5t-51.5 -9t-51.5 9t-40.5 24.5t-26.5 36.5t-9.5 45z" />
    <glyph glyph-name="ae" unicode="&#xe6;" horiz-adv-x="1468" 
d="M262 94l-94 -94h-160l558 560h832v-110h-637v-121h549v-98h-549v-121h637v-110h-765v94h-371zM355 191h278v278z" />
    <glyph glyph-name="ccedilla" unicode="&#xe7;" horiz-adv-x="1015" 
d="M515 0h-83q-101 0 -171 22t-113.5 60t-63 89t-19.5 109t19.5 109t63 89t113.5 60t171 22h514v-110h-514q-70 0 -115 -13.5t-71 -36.5t-36 -54t-10 -66t10 -66t36 -54t71 -36.5t115 -13.5h514v-110h-379l-17 -70q31 0 58 -4.5t47 -16.5t32 -32.5t12 -52.5q0 -34 -16 -56
t-41.5 -34t-57 -15.5t-63 -1t-60 9.5t-47.5 17v63q16 -11 47.5 -17.5t62.5 -6t54 11t23 33.5q0 27 -20.5 35.5t-62.5 9.5h-36z" />
    <glyph glyph-name="egrave" unicode="&#xe8;" horiz-adv-x="1033" 
d="M109 560h854v-110h-727v-121h639v-98h-639v-121h727v-110h-854v560zM617 635h-92l-169 171h160z" />
    <glyph glyph-name="eacute" unicode="&#xe9;" horiz-adv-x="1033" 
d="M109 560h854v-110h-727v-121h639v-98h-639v-121h727v-110h-854v560zM539 806h160l-169 -171h-92z" />
    <glyph glyph-name="ecircumflex" unicode="&#xea;" horiz-adv-x="1033" 
d="M109 560h854v-110h-727v-121h639v-98h-639v-121h727v-110h-854v560zM726 635h-92l-105 102l-106 -102h-93l116 171h165z" />
    <glyph glyph-name="edieresis" unicode="&#xeb;" horiz-adv-x="1033" 
d="M109 560h854v-110h-727v-121h639v-98h-639v-121h727v-110h-854v560zM604 785h132v-131h-132v131zM319 785h132v-131h-132v131z" />
    <glyph glyph-name="igrave" unicode="&#xec;" horiz-adv-x="345" 
d="M109 560h127v-560h-127v560zM262 635h-92l-169 171h160z" />
    <glyph glyph-name="iacute" unicode="&#xed;" horiz-adv-x="345" 
d="M109 560h127v-560h-127v560zM184 806h160l-169 -171h-92z" />
    <glyph glyph-name="icircumflex" unicode="&#xee;" horiz-adv-x="345" 
d="M109 560h127v-560h-127v560zM371 635h-92l-105 102l-106 -102h-93l116 171h165z" />
    <glyph glyph-name="idieresis" unicode="&#xef;" horiz-adv-x="345" 
d="M109 560h127v-560h-127v560zM249 785h132v-131h-132v131zM-36 785h132v-131h-132v131z" />
    <glyph glyph-name="eth" unicode="&#xf0;" horiz-adv-x="1080" 
d="M-11 329h120v231h539q101 0 171 -22t113.5 -60t63 -89t19.5 -109t-19.5 -109t-63 -89t-113.5 -60t-171 -22h-539v231h-120v98zM236 450v-121h332v-98h-332v-121h411q70 0 115 13.5t71 36.5t36 54t10 66t-10 66t-36 54t-71 36.5t-115 13.5h-411z" />
    <glyph glyph-name="ntilde" unicode="&#xf1;" horiz-adv-x="1128" 
d="M899 0l-663 418v-418h-127v560h121l662 -418v418h127v-560h-120zM747 800q-3 -87 -32 -120.5t-77 -33.5q-24 0 -44.5 8t-38.5 17l-34 17t-30 8q-18 0 -28 -12t-12 -44h-70q3 87 32 120.5t77 33.5q24 0 44 -7.5t38 -17t34 -17t31 -7.5q18 0 28 11.5t12 43.5h70z" />
    <glyph glyph-name="ograve" unicode="&#xf2;" horiz-adv-x="1154" 
d="M443 -8q-104 0 -176 22.5t-117 61.5t-65 91.5t-20 112.5t20 112.5t65 91.5t117 61.5t176 22.5h269q104 0 176 -22.5t116.5 -61.5t64.5 -91.5t20 -112.5t-20 -112.5t-64.5 -91.5t-116.5 -61.5t-176 -22.5h-269zM711 102q73 0 120 14t74.5 38t38 56.5t10.5 69.5t-10.5 69.5
t-38 56.5t-74.5 38t-120 14h-267q-73 0 -120.5 -14t-75 -38t-38 -56.5t-10.5 -69.5t10.5 -69.5t38 -56.5t75 -38t120.5 -14h267zM666 635h-92l-169 171h160z" />
    <glyph glyph-name="oacute" unicode="&#xf3;" horiz-adv-x="1154" 
d="M443 -8q-104 0 -176 22.5t-117 61.5t-65 91.5t-20 112.5t20 112.5t65 91.5t117 61.5t176 22.5h269q104 0 176 -22.5t116.5 -61.5t64.5 -91.5t20 -112.5t-20 -112.5t-64.5 -91.5t-116.5 -61.5t-176 -22.5h-269zM711 102q73 0 120 14t74.5 38t38 56.5t10.5 69.5t-10.5 69.5
t-38 56.5t-74.5 38t-120 14h-267q-73 0 -120.5 -14t-75 -38t-38 -56.5t-10.5 -69.5t10.5 -69.5t38 -56.5t75 -38t120.5 -14h267zM588 806h160l-169 -171h-92z" />
    <glyph glyph-name="ocircumflex" unicode="&#xf4;" horiz-adv-x="1154" 
d="M443 -8q-104 0 -176 22.5t-117 61.5t-65 91.5t-20 112.5t20 112.5t65 91.5t117 61.5t176 22.5h269q104 0 176 -22.5t116.5 -61.5t64.5 -91.5t20 -112.5t-20 -112.5t-64.5 -91.5t-116.5 -61.5t-176 -22.5h-269zM711 102q73 0 120 14t74.5 38t38 56.5t10.5 69.5t-10.5 69.5
t-38 56.5t-74.5 38t-120 14h-267q-73 0 -120.5 -14t-75 -38t-38 -56.5t-10.5 -69.5t10.5 -69.5t38 -56.5t75 -38t120.5 -14h267zM775 635h-92l-105 102l-106 -102h-93l116 171h165z" />
    <glyph glyph-name="otilde" unicode="&#xf5;" horiz-adv-x="1154" 
d="M443 -8q-104 0 -176 22.5t-117 61.5t-65 91.5t-20 112.5t20 112.5t65 91.5t117 61.5t176 22.5h269q104 0 176 -22.5t116.5 -61.5t64.5 -91.5t20 -112.5t-20 -112.5t-64.5 -91.5t-116.5 -61.5t-176 -22.5h-269zM711 102q73 0 120 14t74.5 38t38 56.5t10.5 69.5t-10.5 69.5
t-38 56.5t-74.5 38t-120 14h-267q-73 0 -120.5 -14t-75 -38t-38 -56.5t-10.5 -69.5t10.5 -69.5t38 -56.5t75 -38t120.5 -14h267zM760 800q-3 -87 -32 -120.5t-77 -33.5q-24 0 -44.5 8t-38.5 17l-34 17t-30 8q-18 0 -28 -12t-12 -44h-70q3 87 32 120.5t77 33.5q24 0 44 -7.5
t38 -17t34 -17t31 -7.5q18 0 28 11.5t12 43.5h70z" />
    <glyph glyph-name="odieresis" unicode="&#xf6;" horiz-adv-x="1154" 
d="M443 -8q-104 0 -176 22.5t-117 61.5t-65 91.5t-20 112.5t20 112.5t65 91.5t117 61.5t176 22.5h269q104 0 176 -22.5t116.5 -61.5t64.5 -91.5t20 -112.5t-20 -112.5t-64.5 -91.5t-116.5 -61.5t-176 -22.5h-269zM711 102q73 0 120 14t74.5 38t38 56.5t10.5 69.5t-10.5 69.5
t-38 56.5t-74.5 38t-120 14h-267q-73 0 -120.5 -14t-75 -38t-38 -56.5t-10.5 -69.5t10.5 -69.5t38 -56.5t75 -38t120.5 -14h267zM653 785h132v-131h-132v131zM368 785h132v-131h-132v131z" />
    <glyph glyph-name="divide" unicode="&#xf7;" 
d="M284 415h730v-130h-730v130zM576 162h146v-147h-146v147zM576 685h146v-147h-146v147z" />
    <glyph glyph-name="oslash" unicode="&#xf8;" horiz-adv-x="1154" 
d="M424 -8l-56 -72h-146l69 88q-61 15 -104 41.5t-70 62t-39.5 78.5t-12.5 90q0 60 20 112.5t65 91.5t117 61.5t176 22.5h285l57 72h146l-69 -88q61 -15 104.5 -41.5t70.5 -62t39.5 -78.5t12.5 -90q0 -60 -20 -112.5t-64.5 -91.5t-116.5 -61.5t-176 -22.5h-288zM954 280
q0 31 -7.5 59.5t-27 51.5t-52 39t-82.5 23l-275 -351h201q73 0 120 14t74.5 38t38 56.5t10.5 69.5zM200 280q0 -32 7.5 -60t27 -51t51.5 -39.5t82 -23.5l274 352h-198q-73 0 -120.5 -14t-75 -38t-38 -56.5t-10.5 -69.5z" />
    <glyph glyph-name="ugrave" unicode="&#xf9;" horiz-adv-x="1094" 
d="M216 258q0 -34 9 -62.5t34 -49.5t68.5 -32.5t111.5 -11.5h215q69 0 112.5 11.5t68 32.5t34 49.5t9.5 62.5v302h127v-302q0 -58 -16.5 -106.5t-57 -84t-108 -55.5t-168.5 -20h-217q-101 0 -168 20t-107.5 55.5t-57 84t-16.5 106.5v302h127v-302zM636 635h-92l-169 171h160
z" />
    <glyph glyph-name="uacute" unicode="&#xfa;" horiz-adv-x="1094" 
d="M216 258q0 -34 9 -62.5t34 -49.5t68.5 -32.5t111.5 -11.5h215q69 0 112.5 11.5t68 32.5t34 49.5t9.5 62.5v302h127v-302q0 -58 -16.5 -106.5t-57 -84t-108 -55.5t-168.5 -20h-217q-101 0 -168 20t-107.5 55.5t-57 84t-16.5 106.5v302h127v-302zM558 806h160l-169 -171
h-92z" />
    <glyph glyph-name="ucircumflex" unicode="&#xfb;" horiz-adv-x="1094" 
d="M216 258q0 -34 9 -62.5t34 -49.5t68.5 -32.5t111.5 -11.5h215q69 0 112.5 11.5t68 32.5t34 49.5t9.5 62.5v302h127v-302q0 -58 -16.5 -106.5t-57 -84t-108 -55.5t-168.5 -20h-217q-101 0 -168 20t-107.5 55.5t-57 84t-16.5 106.5v302h127v-302zM745 635h-92l-105 102
l-106 -102h-93l116 171h165z" />
    <glyph glyph-name="udieresis" unicode="&#xfc;" horiz-adv-x="1094" 
d="M216 258q0 -34 9 -62.5t34 -49.5t68.5 -32.5t111.5 -11.5h215q69 0 112.5 11.5t68 32.5t34 49.5t9.5 62.5v302h127v-302q0 -58 -16.5 -106.5t-57 -84t-108 -55.5t-168.5 -20h-217q-101 0 -168 20t-107.5 55.5t-57 84t-16.5 106.5v302h127v-302zM623 785h132v-131h-132
v131zM338 785h132v-131h-132v131z" />
    <glyph glyph-name="yacute" unicode="&#xfd;" horiz-adv-x="1066" 
d="M469 171l-472 389h189l347 -294l347 294h189l-472 -389v-171h-128v171zM544 806h160l-169 -171h-92z" />
    <glyph glyph-name="thorn" unicode="&#xfe;" horiz-adv-x="1040" 
d="M109 560h127v-96h524q67 0 113 -14.5t74.5 -39.5t41 -58.5t12.5 -71.5q0 -39 -12.5 -72.5t-41 -58.5t-74.5 -39t-113 -14h-524v-96h-127v560zM236 353v-146h521q36 0 57.5 5.5t33.5 15.5t16 23.5t4 28.5t-4 28.5t-16 23t-33.5 15.5t-57.5 6h-521z" />
    <glyph glyph-name="ydieresis" unicode="&#xff;" horiz-adv-x="1066" 
d="M469 171l-472 389h189l347 -294l347 294h189l-472 -389v-171h-128v171zM609 785h132v-131h-132v131zM324 785h132v-131h-132v131z" />
    <glyph glyph-name="dotlessi" unicode="&#x131;" horiz-adv-x="345" 
d="M109 560h127v-560h-127v560z" />
    <glyph glyph-name="OE" unicode="&#x152;" horiz-adv-x="1749" 
d="M72 350q0 72 24.5 136t77.5 111.5t136.5 75t202.5 27.5h1159v-130h-755v-161h653v-118h-653v-161h755v-130h-1159q-119 0 -202.5 27.5t-136.5 75t-77.5 111.5t-24.5 136zM225 350q0 -45 13.5 -85t47 -70t89 -47.5t139.5 -17.5h260v440h-260q-84 0 -139.5 -17.5t-89 -47.5
t-47 -70t-13.5 -85z" />
    <glyph glyph-name="oe" unicode="&#x153;" horiz-adv-x="1496" 
d="M65 280q0 58 19.5 109t63 89t113.5 60t171 22h994v-110h-637v-121h549v-98h-549v-121h637v-110h-994q-101 0 -171 22t-113.5 60t-63 89t-19.5 109zM200 280q0 -35 10 -66t36 -54t71 -36.5t115 -13.5h230v340h-230q-70 0 -115 -13.5t-71 -36.5t-36 -54t-10 -66z" />
    <glyph glyph-name="Scaron" unicode="&#x160;" horiz-adv-x="1207" 
d="M109 130h763q36 0 58.5 6.5t35.5 18t17.5 26t4.5 30.5t-4.5 30.5t-17.5 25.5t-35.5 17.5t-58.5 6.5h-540q-71 0 -121 15.5t-81.5 43.5t-46 65t-14.5 81q0 43 14.5 80t46 64.5t81.5 43.5t121 16h766v-130h-763q-36 0 -58.5 -6.5t-35.5 -18t-17.5 -26t-4.5 -30.5t4.5 -30.5
t17.5 -25.5t35.5 -17.5t58.5 -6.5h540q71 0 121 -15.5t81.5 -43.5t46 -65.5t14.5 -80.5t-14.5 -80t-46 -64.5t-81.5 -43.5t-121 -16h-766v130zM686 775h-165l-116 171h93l106 -102l105 102h92z" />
    <glyph glyph-name="scaron" unicode="&#x161;" horiz-adv-x="1032" 
d="M95 110h650q29 0 47.5 5t28.5 13t13.5 19.5t3.5 23.5t-3.5 23t-13.5 19.5t-28.5 13t-47.5 4.5h-465q-61 0 -102.5 12.5t-67.5 34.5t-37.5 52t-11.5 65t11.5 65t37.5 52.5t67.5 35t102.5 12.5h657v-110h-651q-29 0 -47 -5t-28 -13t-13.5 -19.5t-3.5 -23.5t3.5 -23
t13.5 -19.5t28 -13t47 -4.5h466q61 0 102.5 -12.5t67.5 -34.5t37.5 -52t11.5 -65t-11.5 -65t-37.5 -52.5t-67.5 -35t-102.5 -12.5h-657v110zM599 635h-165l-116 171h93l106 -102l105 102h92z" />
    <glyph glyph-name="Ydieresis" unicode="&#x178;" horiz-adv-x="1253" 
d="M555 211l-558 489h212l417 -374l418 374h212l-558 -489v-211h-143v211zM703 925h132v-131h-132v131zM418 925h132v-131h-132v131z" />
    <glyph glyph-name="Zcaron" unicode="&#x17d;" horiz-adv-x="1200" 
d="M69 101l769 469h-759v130h1042v-101l-770 -469h790v-130h-1072v101zM683 775h-165l-116 171h93l106 -102l105 102h92z" />
    <glyph glyph-name="zcaron" unicode="&#x17e;" horiz-adv-x="1027" 
d="M62 85l644 365h-635v110h887v-85l-645 -365h662v-110h-913v85zM596 635h-165l-116 171h93l106 -102l105 102h92z" />
    <glyph glyph-name="florin" unicode="&#x192;" 
d="M487 288h-188v118h200l5 46q5 51 25 96.5t58.5 79t98 53t143.5 19.5h303v-130h-309q-49 0 -81.5 -10.5t-53 -27.5t-30 -39.5t-11.5 -47.5l-4 -39h296v-118h-309l-20 -200q-6 -55 -24.5 -100.5t-54.5 -78.5t-90.5 -51t-131.5 -18h-133v130h134q46 0 75.5 9t47 25t24.5 39
t10 52z" />
    <glyph glyph-name="uni0237" unicode="&#x237;" horiz-adv-x="1042" 
d="M325 -4q-81 0 -136 17.5t-88 48t-47.5 71.5t-14.5 87v47h127v-47q0 -24 6.5 -44.5t24.5 -36t49 -24.5t80 -9h276q68 0 111.5 11.5t68 31.5t34 48.5t9.5 62.5v300h128v-300q0 -58 -17 -106.5t-57.5 -83.5t-107.5 -54.5t-168 -19.5h-278v0z" />
    <glyph glyph-name="circumflex" unicode="&#x2c6;" horiz-adv-x="500" 
d="M448 635h-92l-105 102l-106 -102h-93l116 171h165z" />
    <glyph glyph-name="tilde" unicode="&#x2dc;" horiz-adv-x="500" 
d="M433 800q-3 -87 -32 -120.5t-77 -33.5q-24 0 -44.5 8t-38.5 17l-34 17t-30 8q-18 0 -28 -12t-12 -44h-70q3 87 32 120.5t77 33.5q24 0 44 -7.5t38 -17t34 -17t31 -7.5q18 0 28 11.5t12 43.5h70z" />
    <glyph glyph-name="endash" unicode="&#x2013;" horiz-adv-x="500" 
d="M0 338h500v-116h-500v116z" />
    <glyph glyph-name="emdash" unicode="&#x2014;" horiz-adv-x="1000" 
d="M0 338h1000v-116h-1000v116z" />
    <glyph glyph-name="quoteleft" unicode="&#x2018;" horiz-adv-x="337" 
d="M243 406h-149v138l85 156h63l-64 -145h65v-149z" />
    <glyph glyph-name="quoteright" unicode="&#x2019;" horiz-adv-x="337" 
d="M94 700h149v-138l-85 -156h-63l64 145h-65v149z" />
    <glyph glyph-name="quotesinglbase" unicode="&#x201a;" horiz-adv-x="337" 
d="M94 149h149v-138l-85 -156h-63l64 145h-65v149z" />
    <glyph glyph-name="quotedblleft" unicode="&#x201c;" horiz-adv-x="597" 
d="M503 406h-149v138l85 156h63l-64 -145h65v-149zM243 406h-149v138l85 156h63l-64 -145h65v-149z" />
    <glyph glyph-name="quotedblright" unicode="&#x201d;" horiz-adv-x="597" 
d="M94 700h149v-138l-85 -156h-63l64 145h-65v149zM354 700h149v-138l-85 -156h-63l64 145h-65v149z" />
    <glyph glyph-name="quotedblbase" unicode="&#x201e;" horiz-adv-x="597" 
d="M94 149h149v-138l-85 -156h-63l64 145h-65v149zM354 149h149v-138l-85 -156h-63l64 145h-65v149z" />
    <glyph glyph-name="dagger" unicode="&#x2020;" horiz-adv-x="1064" 
d="M604 -100h-144v496h-363v117h363v187h144v-187h363v-117h-363v-496z" />
    <glyph glyph-name="daggerdbl" unicode="&#x2021;" horiz-adv-x="1064" 
d="M604 -100h-144v187h-363v117h363v192h-363v117h363v187h144v-187h363v-117h-363v-192h363v-117h-363v-187z" />
    <glyph glyph-name="bullet" unicode="&#x2022;" horiz-adv-x="500" 
d="M56 350q0 40 15.5 75.5t41.5 61.5t61.5 41.5t75.5 15.5t75.5 -15.5t61.5 -41.5t41.5 -61.5t15.5 -75.5t-15.5 -75.5t-41.5 -61.5t-61.5 -41.5t-75.5 -15.5t-75.5 15.5t-61.5 41.5t-41.5 61.5t-15.5 75.5z" />
    <glyph glyph-name="ellipsis" unicode="&#x2026;" horiz-adv-x="1000" 
d="M425 149h149v-149h-149v149zM769 149h149v-149h-149v149zM82 149h149v-149h-149v149z" />
    <glyph glyph-name="perthousand" unicode="&#x2030;" horiz-adv-x="1848" 
d="M1124 700l-805 -700h-145l806 700h144zM583 474q0 -26 -8.5 -48.5t-27.5 -39.5t-48.5 -26.5t-71.5 -9.5h-177q-42 0 -71.5 9.5t-48.5 26.5t-27.5 39.5t-8.5 48.5v102q0 26 8.5 48.5t27.5 39.5t48.5 26.5t71.5 9.5h177q42 0 71.5 -9.5t48.5 -26.5t27.5 -39.5t8.5 -48.5
v-102zM189 480q0 -8 2 -16t8.5 -14t18 -9.5t30.5 -3.5h182q37 0 47.5 13t10.5 30v89q0 17 -10.5 30.5t-47.5 13.5h-182q-19 0 -30.5 -3.5t-18 -9.5t-8.5 -14t-2 -17v-89zM1204 124q0 -26 -8.5 -48.5t-27.5 -39.5t-48.5 -26.5t-71.5 -9.5h-177q-42 0 -71.5 9.5t-48.5 26.5
t-27.5 39.5t-8.5 48.5v102q0 26 8.5 48.5t27.5 39.5t48.5 26.5t71.5 9.5h177q42 0 71.5 -9.5t48.5 -26.5t27.5 -39.5t8.5 -48.5v-102zM810 130q0 -8 2 -16t8.5 -14t18 -9.5t30.5 -3.5h182q37 0 47.5 13t10.5 30v89q0 17 -10.5 30.5t-47.5 13.5h-182q-19 0 -30.5 -3.5
t-18 -9.5t-8.5 -14t-2 -17v-89zM1754 124q0 -26 -8.5 -48.5t-27.5 -39.5t-48.5 -26.5t-71.5 -9.5h-177q-42 0 -71.5 9.5t-48.5 26.5t-27.5 39.5t-8.5 48.5v102q0 26 8.5 48.5t27.5 39.5t48.5 26.5t71.5 9.5h177q42 0 71.5 -9.5t48.5 -26.5t27.5 -39.5t8.5 -48.5v-102z
M1360 130q0 -8 2 -16t8.5 -14t18 -9.5t30.5 -3.5h182q37 0 47.5 13t10.5 30v89q0 17 -10.5 30.5t-47.5 13.5h-182q-19 0 -30.5 -3.5t-18 -9.5t-8.5 -14t-2 -17v-89z" />
    <glyph glyph-name="guilsinglleft" unicode="&#x2039;" horiz-adv-x="506" 
d="M419 560l-187 -278l189 -282h-148l-189 282l187 278h148z" />
    <glyph glyph-name="guilsinglright" unicode="&#x203a;" horiz-adv-x="506" 
d="M235 560l187 -278l-189 -282h-148l189 282l-187 278h148z" />
    <glyph glyph-name="Euro" unicode="&#x20ac;" 
d="M120 466h97q2 49 20.5 91.5t56 74t96 50t139.5 18.5h664v-130h-670q-44 0 -73.5 -8t-48.5 -22.5t-28 -33.5t-12 -40h686l-36 -77h-651v-78h614l-35 -77h-578q2 -22 11.5 -41t28 -33t48.5 -22t74 -8h670v-130h-664q-81 0 -139.5 18t-96 49.5t-56 74.5t-20.5 92h-132l35 77
h97v78h-132z" />
    <glyph glyph-name="trademark" unicode="&#x2122;" horiz-adv-x="1391" 
d="M44 700h539v-88h-221v-262h-97v262h-221v88zM1297 700v-350h-97v220l-210 -212l-210 211v-219h-97v350h93l214 -215l215 215h92z" />
    </font>
</defs>
</svg>
