<svg viewBox="0 0 14 14" xmlns="http://www.w3.org/2000/svg">
<path d="M6.53523 10.5265C6.59617 10.5875 6.66851 10.6358 6.74814 10.6688C6.82776 10.7018 6.9131 10.7187 6.99928 10.7187C7.08546 10.7187 7.1708 10.7018 7.25042 10.6688C7.33005 10.6358 7.40239 10.5875 7.46333 10.5265L9.93819 8.05167C10.0613 7.9286 10.1304 7.76168 10.1304 7.58763C10.1304 7.41358 10.0613 7.24666 9.93819 7.12359C9.81512 7.00052 9.6482 6.93138 9.47415 6.93138C9.3001 6.93138 9.13318 7.00052 9.01011 7.12359L7.65553 8.47818V1.3125C7.65553 1.13845 7.58639 0.971532 7.46332 0.848461C7.34025 0.72539 7.17333 0.65625 6.99928 0.65625C6.82523 0.65625 6.65831 0.72539 6.53524 0.848461C6.41217 0.971532 6.34303 1.13845 6.34303 1.3125V8.47818L4.98845 7.12359C4.86538 7.00052 4.69846 6.93138 4.52441 6.93138C4.35036 6.93138 4.18344 7.00052 4.06037 7.12359C3.9373 7.24666 3.86816 7.41358 3.86816 7.58763C3.86816 7.76168 3.9373 7.9286 4.06037 8.05167L6.53523 10.5265Z" fill="#252525"/>
<path d="M12.6875 6.34375C12.5135 6.34375 12.3465 6.41289 12.2235 6.53596C12.1004 6.65903 12.0312 6.82595 12.0312 7V12.0312H1.96875V7C1.96875 6.82595 1.89961 6.65903 1.77654 6.53596C1.65347 6.41289 1.48655 6.34375 1.3125 6.34375C1.13845 6.34375 0.971532 6.41289 0.848461 6.53596C0.72539 6.65903 0.65625 6.82595 0.65625 7V12.25C0.65625 12.5401 0.771484 12.8183 0.976602 13.0234C1.18172 13.2285 1.45992 13.3438 1.75 13.3438H12.25C12.5401 13.3438 12.8183 13.2285 13.0234 13.0234C13.2285 12.8183 13.3438 12.5401 13.3438 12.25V7C13.3438 6.82595 13.2746 6.65903 13.1515 6.53596C13.0285 6.41289 12.8615 6.34375 12.6875 6.34375Z" fill="#252525"/>
</svg>
