<svg width="12" height="18" viewBox="0 0 12 18" fill="none" xmlns="http://www.w3.org/2000/svg">
<path d="M5.46965 14.7803C5.46979 14.7805 5.46993 14.7806 5.47007 14.7807C5.48741 14.798 5.50565 14.8144 5.5246 14.83C5.53329 14.8371 5.54246 14.8433 5.55139 14.85C5.56204 14.858 5.57248 14.8663 5.58356 14.8737C5.59425 14.8808 5.60532 14.887 5.61629 14.8936C5.62634 14.8996 5.63615 14.9059 5.64649 14.9114C5.65767 14.9174 5.66916 14.9224 5.68059 14.9278C5.69135 14.9329 5.70197 14.9383 5.713 14.9428C5.72408 14.9474 5.7354 14.9511 5.74665 14.9552C5.7585 14.9594 5.77017 14.9639 5.78226 14.9676C5.79351 14.971 5.80494 14.9735 5.81633 14.9764C5.82867 14.9795 5.84087 14.9829 5.85345 14.9854C5.86664 14.988 5.87993 14.9896 5.89318 14.9915C5.90411 14.993 5.91491 14.9951 5.92598 14.9962C5.9752 15.0011 6.0248 15.0011 6.07402 14.9962C6.0851 14.9951 6.09589 14.9931 6.10682 14.9915C6.12008 14.9896 6.13337 14.988 6.14655 14.9854C6.15914 14.9829 6.17134 14.9795 6.18368 14.9764C6.19503 14.9735 6.20649 14.971 6.21774 14.9676C6.22984 14.9639 6.24154 14.9594 6.25336 14.9552C6.26461 14.9511 6.27593 14.9474 6.287 14.9428C6.29804 14.9383 6.30866 14.9329 6.31941 14.9278C6.33084 14.9224 6.34234 14.9174 6.35352 14.9114C6.36385 14.9059 6.37366 14.8995 6.38372 14.8936C6.39468 14.887 6.40576 14.8808 6.41645 14.8737C6.42752 14.8663 6.43796 14.858 6.44861 14.85C6.45754 14.8434 6.46672 14.8371 6.4754 14.83C6.49435 14.8144 6.5126 14.798 6.52993 14.7807C6.53007 14.7806 6.53021 14.7805 6.53035 14.7803L11.7803 9.53033C12.0732 9.23744 12.0732 8.76255 11.7803 8.46967C11.4875 8.17678 11.0126 8.17678 10.7197 8.46967L6.74997 12.4393V0.749988C6.74997 0.335777 6.4142 0 5.99998 0C5.58577 0 5.25 0.335777 5.25 0.749988V12.4393L1.28033 8.46967C0.987442 8.17678 0.512552 8.17678 0.219665 8.46967C-0.0732217 8.76255 -0.0732217 9.23744 0.219665 9.53033L5.46965 14.7803Z" fill="#E5181E"/>
<path d="M11.25 16.5H0.749988C0.335777 16.5 0 16.8358 0 17.25C0 17.6642 0.335777 18 0.749988 18H11.25C11.6642 18 12 17.6642 12 17.25C12 16.8358 11.6642 16.5 11.25 16.5Z" fill="#E5181E"/>
</svg>
