<svg width="12" height="18" fill="none" xmlns="http://www.w3.org/2000/svg"><path d="M5.47 14.78a.77.77 0 00.055.05l.026.02.033.024.032.02.03.017.035.017.032.015.034.012.035.013.034.008.037.01.04.005.033.005c.05.005.099.005.148 0 .011 0 .022-.003.033-.005l.04-.006.037-.009.034-.008.035-.013.034-.012.032-.015c.012-.006.023-.01.035-.017l.03-.017.032-.02.033-.024.026-.02a.768.768 0 00.055-.05l5.25-5.25a.75.75 0 00-1.06-1.06l-3.97 3.97V.75a.75.75 0 10-1.5 0v11.69L1.28 8.47A.75.75 0 00.22 9.53l5.25 5.25zm5.78 1.72H.75a.75.75 0 000 1.5h10.5a.75.75 0 000-1.5z" fill="#E5181E"/></svg>