<svg width="120" height="120" viewBox="0 0 120 120" xmlns="http://www.w3.org/2000/svg">
<path d="M59.999 35C58.673 35 57.4012 35.5268 56.4635 36.4645C55.5258 37.4022 54.999 38.6739 54.999 40V60C54.999 61.3261 55.5258 62.5979 56.4635 63.5355C57.4012 64.4732 58.673 65 59.999 65C61.3251 65 62.5969 64.4732 63.5346 63.5355C64.4723 62.5979 64.999 61.3261 64.999 60V40C64.999 38.6739 64.4723 37.4022 63.5346 36.4645C62.5969 35.5268 61.3251 35 59.999 35ZM64.599 78.1C64.4896 77.7814 64.3383 77.4787 64.149 77.2L63.549 76.45C62.8459 75.7562 61.9531 75.2862 60.9831 75.0994C60.0132 74.9125 59.0096 75.0171 58.099 75.4C57.4931 75.6532 56.935 76.0084 56.449 76.45C55.9856 76.9172 55.619 77.4713 55.3702 78.0805C55.1214 78.6897 54.9952 79.342 54.999 80C55.0069 80.6534 55.1428 81.2989 55.399 81.9C55.6236 82.5205 55.9819 83.084 56.4485 83.5506C56.9151 84.0172 57.4786 84.3755 58.099 84.6C58.6975 84.8645 59.3447 85.0012 59.999 85.0012C60.6534 85.0012 61.3005 84.8645 61.899 84.6C62.5195 84.3755 63.083 84.0172 63.5496 83.5506C64.0162 83.084 64.3745 82.5205 64.599 81.9C64.8552 81.2989 64.9911 80.6534 64.999 80C65.0236 79.6671 65.0236 79.3329 64.999 79C64.913 78.6812 64.778 78.3776 64.599 78.1ZM59.999 10C50.11 10 40.443 12.9324 32.2205 18.4265C23.9981 23.9206 17.5895 31.7295 13.8051 40.8658C10.0207 50.0021 9.03052 60.0555 10.9598 69.7545C12.889 79.4536 17.6511 88.3627 24.6437 95.3553C31.6363 102.348 40.5455 107.11 50.2445 109.039C59.9436 110.969 69.9969 109.978 79.1332 106.194C88.2695 102.41 96.0784 96.001 101.573 87.7785C107.067 79.5561 109.999 69.8891 109.999 60C109.999 53.4339 108.706 46.9321 106.193 40.8658C103.68 34.7995 99.9973 29.2876 95.3544 24.6447C90.7114 20.0017 85.1995 16.3188 79.1332 13.806C73.0669 11.2933 66.5651 10 59.999 10ZM59.999 100C52.0878 100 44.3542 97.654 37.7762 93.2588C31.1983 88.8635 26.0714 82.6164 23.0439 75.3073C20.0164 67.9983 19.2242 59.9556 20.7676 52.1964C22.311 44.4372 26.1207 37.3098 31.7148 31.7157C37.3089 26.1216 44.4362 22.312 52.1954 20.7686C59.9547 19.2252 67.9973 20.0173 75.3064 23.0448C82.6154 26.0723 88.8626 31.1992 93.2578 37.7772C97.6531 44.3552 99.999 52.0888 99.999 60C99.999 70.6087 95.7848 80.7828 88.2833 88.2843C80.7819 95.7857 70.6077 100 59.999 100Z" />
</svg>
