<svg width="49" height="44" viewBox="0 0 49 44" fill="none" xmlns="http://www.w3.org/2000/svg">
<path d="M44.3807 23.013C46.6487 20.6773 48.0166 17.6527 48.0166 14.3478C48.0166 6.95199 40.5912 0.956543 32.1383 0.956543C23.6854 0.956543 16.834 6.95199 16.834 14.3478L32.1383 27.7392C34.3966 27.7392 37.1152 27.3106 39.0455 26.5424C40.7937 28.4536 43.3087 29.6522 46.1035 29.6522C44.3063 27.855 43.7313 25.2963 44.3807 23.013Z" fill="white"/>
<path d="M24.7217 16.2608C29.167 18.6043 32.1396 22.8675 32.1396 27.7391C32.1396 35.1349 25.2882 41.1304 16.8353 41.1304C14.577 41.1304 11.8584 40.7018 9.92816 39.9336C8.17989 41.8448 5.66491 43.0434 2.87007 43.0434C4.66729 41.2462 5.24232 38.6875 4.59293 36.4042C2.32493 34.0686 0.957031 31.0439 0.957031 27.7391C0.957031 20.3432 8.38241 14.3478 16.8353 14.3478C19.7202 14.3478 22.4194 15.0461 24.7217 16.2608Z" fill="#E5181E"/>
<path d="M24.4868 9.56519C23.9588 9.56519 23.5303 9.99375 23.5303 10.5217C23.5303 11.0497 23.9588 11.4782 24.4868 11.4782C25.0148 11.4782 25.4433 11.0497 25.4433 10.5217C25.4433 9.99375 25.0148 9.56519 24.4868 9.56519Z" fill="black"/>
<path d="M8.60887 26.7827C9.13682 26.7827 9.56539 26.3541 9.56539 25.8262C9.56539 25.2982 9.13682 24.8696 8.60887 24.8696C8.08091 24.8696 7.65234 25.2982 7.65234 25.8262C7.65234 26.3541 8.08091 26.7827 8.60887 26.7827Z" fill="black"/>
<path d="M32.1391 0C23.5278 0 16.46 5.93716 15.9134 13.4156C7.71233 13.827 0 19.7406 0 27.7391C0 31.0817 1.32269 34.3204 3.73043 36.8866C4.20683 38.8505 3.62843 40.932 2.19327 42.3672C1.91977 42.6407 1.83794 43.0521 1.9859 43.4096C2.13387 43.7668 2.48247 44 2.86957 44C5.59752 44 8.22646 42.9303 10.1799 41.0452C12.0828 41.6939 14.5657 42.087 16.8348 42.087C25.445 42.087 32.512 36.1513 33.0602 28.6744C35.0629 28.5854 37.1459 28.2155 38.7941 27.6539C40.7475 29.539 43.3764 30.6087 46.1043 30.6087C46.4914 30.6087 46.84 30.3755 46.988 30.0183C47.136 29.6608 47.0541 29.2494 46.7806 28.9759C45.3455 27.5407 44.7671 25.4592 45.2435 23.4953C47.6512 20.9291 48.9739 17.6904 48.9739 14.3478C48.9739 6.03692 40.6675 0 32.1391 0ZM16.8348 40.1739C14.5772 40.1739 12.0047 39.7308 10.2815 39.0451C9.91233 38.8979 9.49049 38.9947 9.22184 39.288C8.06692 40.5505 6.56525 41.4308 4.92908 41.8355C5.83067 40.1082 6.06084 38.0718 5.51233 36.1423C5.46899 35.9902 5.38865 35.8513 5.27843 35.738C3.10832 33.5029 1.91304 30.6621 1.91304 27.7391C1.91304 20.9986 8.7462 15.3043 16.8348 15.3043C24.4728 15.3043 31.1826 20.6157 31.1826 27.7391C31.1826 34.5958 24.7463 40.1739 16.8348 40.1739ZM43.6955 22.3467C43.5853 22.4603 43.5049 22.5993 43.4616 22.751C42.9131 24.6805 43.1432 26.7168 44.0448 28.4442C42.4087 28.0399 40.907 27.1592 39.7521 25.8967C39.4834 25.6038 39.0616 25.5066 38.6924 25.6538C37.199 26.2479 35.0685 26.6593 33.0572 26.7587C32.7777 23.1415 30.9734 19.7417 27.8886 17.2174H40.3652C40.8935 17.2174 41.3217 16.7892 41.3217 16.2609C41.3217 15.7325 40.8935 15.3043 40.3652 15.3043H24.9499C22.7787 14.1991 20.3407 13.5546 17.8313 13.4193C18.3809 6.99494 24.5882 1.91304 32.1391 1.91304C40.2277 1.91304 47.0609 7.60734 47.0609 14.3478C47.0609 17.2708 45.8656 20.1116 43.6955 22.3467Z" fill="black"/>
<path d="M24.4872 24.8696H12.435C11.9067 24.8696 11.4785 25.2978 11.4785 25.8262C11.4785 26.3545 11.9067 26.7827 12.435 26.7827H24.4872C25.0155 26.7827 25.4437 26.3545 25.4437 25.8262C25.4437 25.2978 25.0155 24.8696 24.4872 24.8696Z" fill="black"/>
<path d="M24.4871 30.6086H8.60887C8.08054 30.6086 7.65234 31.0368 7.65234 31.5652C7.65234 32.0935 8.08054 32.5217 8.60887 32.5217H24.4871C25.0155 32.5217 25.4436 32.0935 25.4436 31.5652C25.4436 31.0368 25.0155 30.6086 24.4871 30.6086Z" fill="black"/>
<path d="M40.3651 9.56519H28.313C27.7846 9.56519 27.3564 9.99338 27.3564 10.5217C27.3564 11.05 27.7846 11.4782 28.313 11.4782H40.3651C40.8935 11.4782 41.3217 11.05 41.3217 10.5217C41.3217 9.99338 40.8935 9.56519 40.3651 9.56519Z" fill="black"/>
</svg>
