<svg width="44" height="44" viewBox="0 0 44 44" fill="none" xmlns="http://www.w3.org/2000/svg">
<path d="M10.5 4L4.5 10L1 18V25.5L3.5 32.5L7.5 33L9.5 30L8 27L7 22L8 17L10.5 13L15 8.5L21.5 7L19.5 4L21.5 1H19L10.5 4Z" fill="#E5181E"/>
<path d="M12.3359 22.0182C12.3359 27.3591 16.6754 31.7043 22.0092 31.7043C34.8244 31.2174 34.8209 12.817 22.0091 12.332C16.6754 12.3321 12.3359 16.6773 12.3359 22.0182ZM29.9645 22.0182C29.9645 26.4107 26.3958 29.9842 22.0092 29.9842C11.4698 29.5837 11.4727 14.4511 22.0092 14.0523C26.3957 14.0523 29.9645 17.6259 29.9645 22.0182Z" fill="black"/>
<path d="M18.5914 21.5758C18.256 21.2399 17.7121 21.2399 17.3766 21.5758C17.0411 21.9117 17.0411 22.4563 17.3766 22.7922L19.9522 25.3713C20.2876 25.7072 20.8315 25.7072 21.167 25.3713L26.6486 19.8824C26.984 19.5465 26.984 19.0019 26.6486 18.666C26.3131 18.3301 25.7694 18.3301 25.4338 18.666L20.5595 23.5468L18.5914 21.5758Z" fill="black"/>
<path d="M44 22.0188C44 18.8206 43.329 15.7347 42.0057 12.8469C41.8078 12.4151 41.2979 12.2258 40.8669 12.4239C40.4357 12.622 40.2465 13.1326 40.4443 13.5642C42.8943 18.8265 42.8825 25.1959 40.4498 30.4605L39.7305 28.518C39.5869 28.1303 39.1879 27.9001 38.781 27.9692L36.4884 28.3597C41.013 18.2131 33.5347 6.40333 22.4377 6.20394L20.5827 3.96298L22.4352 1.72502C27.6995 1.8325 32.6313 3.93905 36.3615 7.68301C36.6964 8.01947 37.2404 8.01999 37.5762 7.68447C37.912 7.34895 37.9127 6.80441 37.5776 6.46804C33.4297 2.30493 27.9115 0.00819795 22.0393 0.000797475C22.0391 0.000797475 22.0389 0.000797475 22.0387 0.000797475L22.0109 0.000539317C5.21092 -0.115545 -5.50721 18.5318 2.96528 33.0293C11.3944 47.6656 32.65 47.6525 41.0642 33.0162C41.0643 33.0161 41.0644 33.016 41.0644 33.0159C42.9849 29.6866 44 25.8839 44 22.0188ZM36.0925 22.0188C36.0925 24.4952 35.4422 26.9309 34.2118 29.0627C34.2117 29.0628 34.2117 29.0629 34.2116 29.063C30.4596 35.773 21.4395 38.1605 14.8706 34.1742C2.61775 26.8188 7.70173 8.05234 22.0055 7.91844L22.0281 7.91862H22.0283C29.7834 7.92817 36.0925 14.2534 36.0925 22.0188ZM7.67715 7.6658C11.0614 4.27707 15.4318 2.23393 20.1377 1.80531L18.8059 3.41431C18.5424 3.73262 18.5424 4.19368 18.8059 4.51208L20.2798 6.29266C9.37381 7.31926 2.68942 19.8931 8.12523 29.5708L7.11237 32.3058L4.25555 31.8192C-0.0903969 24.1303 1.33178 13.8355 7.67715 7.6658ZM8.47542 33.5724L9.28272 31.3922C15.8378 40.4169 29.7247 39.8192 35.4902 30.2748L38.3671 29.7848L39.373 32.5008C37.6338 35.3826 35.1936 37.8021 32.2946 39.5146C23.4946 44.8725 11.323 42.2637 5.48342 33.7732L7.5259 34.1211C7.5754 34.1336 7.8626 34.2008 8.14095 34.0238C8.38416 33.8693 8.45867 33.6317 8.47542 33.5724Z" fill="black"/>
<path d="M38.611 10.3287C38.7886 10.7627 39.3011 10.973 39.7327 10.794C40.7626 10.3081 40.1463 8.82045 39.0757 9.20623C38.6442 9.38564 38.4309 9.89576 38.611 10.3287Z" fill="black"/>
</svg>
