<svg width="44" height="44" viewBox="0 0 44 44" fill="none" xmlns="http://www.w3.org/2000/svg">
<circle cx="22" cy="22" r="19" stroke="#E5181E" stroke-width="4"/>
<path d="M9.71094 10.5703C10.1853 10.5703 10.5703 10.1853 10.5703 9.71094C10.5703 9.23425 10.1826 8.85156 9.71094 8.85156C9.2366 8.85156 8.85156 9.2366 8.85156 9.71094C8.85156 10.1819 9.23392 10.5703 9.71094 10.5703Z" fill="black"/>
<path d="M22 0C10.1379 0 0 10.1248 0 22C0 33.8513 10.1144 44 22 44C33.852 44 44 33.8849 44 22C44 10.148 33.8849 0 22 0ZM22 42.2812C11.0064 42.2812 1.71875 32.9936 1.71875 22C1.71875 11.0064 11.0064 1.71875 22 1.71875C32.9936 1.71875 42.2812 11.0064 42.2812 22C42.2812 32.9936 32.9936 42.2812 22 42.2812Z" fill="black"/>
<path d="M22 3.69531C18.3826 3.69531 14.6604 4.78867 11.7882 6.69507C11.3924 6.95792 11.2847 7.491 11.5472 7.88644C11.8097 8.28189 12.3431 8.38965 12.7386 8.12714C15.3365 6.40302 18.7122 5.41406 22 5.41406C30.9905 5.41406 38.5859 13.0095 38.5859 22C38.5859 30.9905 30.9905 38.5859 22 38.5859C13.0095 38.5859 5.41406 30.9905 5.41406 22C5.41406 18.7122 6.40302 15.3365 8.12714 12.7386C8.38965 12.3431 8.28189 11.8097 7.88644 11.5472C7.49133 11.285 6.95792 11.3924 6.69507 11.7882C4.78867 14.6604 3.69531 18.3826 3.69531 22C3.69531 31.9449 12.0403 40.3047 22 40.3047C31.951 40.3047 40.3047 31.955 40.3047 22C40.3047 12.0645 31.9718 3.69531 22 3.69531Z" fill="black"/>
<path d="M21.1406 19.5696C20.1403 19.9244 19.4219 20.8798 19.4219 22C19.4219 23.4217 20.5783 24.5781 22 24.5781C23.1202 24.5781 24.0756 23.8597 24.4304 22.8594H28.875C29.3497 22.8594 29.7344 22.4747 29.7344 22C29.7344 21.5253 29.3497 21.1406 28.875 21.1406H24.4304C24.1709 20.4095 23.5905 19.8291 22.8594 19.5696V13.4062C22.8594 12.9316 22.4747 12.5469 22 12.5469C21.5253 12.5469 21.1406 12.9316 21.1406 13.4062V19.5696ZM22 22.8594C21.526 22.8594 21.1406 22.474 21.1406 22C21.1406 21.526 21.526 21.1406 22 21.1406C22.474 21.1406 22.8594 21.526 22.8594 22C22.8594 22.474 22.474 22.8594 22 22.8594Z" fill="black"/>
<path d="M22 10.8281C22.4747 10.8281 22.8594 10.4434 22.8594 9.96875V8.25C22.8594 7.77533 22.4747 7.39062 22 7.39062C21.5253 7.39062 21.1406 7.77533 21.1406 8.25V9.96875C21.1406 10.4434 21.5253 10.8281 22 10.8281Z" fill="black"/>
<path d="M21.1406 34.0312V35.75C21.1406 36.2247 21.5253 36.6094 22 36.6094C22.4747 36.6094 22.8594 36.2247 22.8594 35.75V34.0312C22.8594 33.5566 22.4747 33.1719 22 33.1719C21.5253 33.1719 21.1406 33.5566 21.1406 34.0312Z" fill="black"/>
<path d="M8.25 21.1406C7.77533 21.1406 7.39062 21.5253 7.39062 22C7.39062 22.4747 7.77533 22.8594 8.25 22.8594H9.96875C10.4434 22.8594 10.8281 22.4747 10.8281 22C10.8281 21.5253 10.4434 21.1406 9.96875 21.1406H8.25Z" fill="black"/>
<path d="M35.75 22.8594C36.2247 22.8594 36.6094 22.4747 36.6094 22C36.6094 21.5253 36.2247 21.1406 35.75 21.1406H34.0312C33.5566 21.1406 33.1719 21.5253 33.1719 22C33.1719 22.4747 33.5566 22.8594 34.0312 22.8594H35.75Z" fill="black"/>
<path d="M11.6697 32.3306C12.0054 32.6663 12.5496 32.6663 12.8849 32.3306L14.1012 31.1148C14.4365 30.7791 14.4369 30.2349 14.1012 29.8992C13.7655 29.5639 13.2213 29.5639 12.8856 29.8992L11.6697 31.1151C11.334 31.4508 11.334 31.995 11.6697 32.3306Z" fill="black"/>
<path d="M32.3314 11.6695C31.9957 11.3341 31.4519 11.3341 31.1158 11.6695L29.9 12.8854C29.5646 13.2211 29.5646 13.7652 29.9 14.1009C30.2356 14.4363 30.7798 14.4363 31.1155 14.1009L32.3314 12.885C32.6671 12.5493 32.6671 12.0052 32.3314 11.6695Z" fill="black"/>
<path d="M31.1155 29.9C30.7798 29.5646 30.2356 29.5646 29.9 29.9C29.5646 30.2356 29.5646 30.7798 29.9 31.1155L31.1158 32.3314C31.4519 32.6671 31.9957 32.6667 32.3314 32.3314C32.6671 31.9957 32.6671 31.4515 32.3314 31.1158L31.1155 29.9Z" fill="black"/>
<path d="M12.8856 14.1008C13.2213 14.4361 13.7655 14.4361 14.1012 14.1008C14.4365 13.7651 14.4365 13.2209 14.1012 12.8852L12.8849 11.6694C12.5496 11.334 12.0054 11.334 11.6697 11.6694C11.334 12.0051 11.334 12.5492 11.6697 12.8849L12.8856 14.1008Z" fill="black"/>
</svg>
