<svg width="20" height="20" viewBox="0 0 20 20" fill="none" xmlns="http://www.w3.org/2000/svg">
<g clip-path="url(#clip0_67_1378)">
<path d="M11.1044 10.001L19.7707 1.33469C20.0758 1.02958 20.0758 0.534891 19.7707 0.229814C19.4656 -0.0752635 18.9709 -0.0753026 18.6658 0.229814L9.9995 8.89612L1.33323 0.229814C1.02811 -0.0753026 0.533427 -0.0753026 0.228349 0.229814C-0.0767284 0.534931 -0.0767674 1.02962 0.228349 1.33469L8.89462 10.001L0.228349 18.6673C-0.0767674 18.9724 -0.0767674 19.4671 0.228349 19.7722C0.380888 19.9247 0.580848 20.0009 0.780809 20.0009C0.98077 20.0009 1.18069 19.9247 1.33327 19.7722L9.9995 11.1059L18.6658 19.7722C18.8183 19.9247 19.0183 20.0009 19.2182 20.0009C19.4182 20.0009 19.6181 19.9247 19.7707 19.7722C20.0758 19.467 20.0758 18.9724 19.7707 18.6673L11.1044 10.001Z" fill="#828282"/>
</g>
<defs>
<clipPath id="clip0_67_1378">
<rect width="20" height="20" fill="white"/>
</clipPath>
</defs>
</svg>
