<svg width="48" height="48" viewBox="0 0 48 48" fill="none" xmlns="http://www.w3.org/2000/svg">
<g clip-path="url(#clip0_128_1312)">
<path d="M0.9375 21.1228H40.1926V26.8874H0.9375V21.1228Z" fill="#E5181E"/>
<path d="M47.147 9.07765C46.525 8.34247 45.6541 7.89341 44.6944 7.81325L10.8923 4.99082C9.93249 4.91067 8.99931 5.20907 8.26403 5.83091C7.53175 6.45032 7.08335 7.31684 7.00066 8.27187L6.3206 14.6521H3.60514C1.61727 14.6521 0 16.2694 0 18.2572V39.4167C0 41.4046 1.61727 43.0219 3.60514 43.0219H37.525C39.5129 43.0219 41.1302 41.4046 41.1302 39.4167V35.9843L42.3339 36.0848C42.4354 36.0932 42.5364 36.0974 42.6365 36.0974C44.4897 36.0974 46.0696 34.6716 46.2265 32.7921L47.9872 11.706C48.0673 10.7463 47.7689 9.81293 47.147 9.07765ZM39.2552 39.4167C39.2552 40.3707 38.4791 41.1469 37.525 41.1469H3.60514C2.65115 41.1469 1.87499 40.3707 1.87499 39.4167V18.2572C1.87499 17.3032 2.65115 16.5271 3.60514 16.5271H37.525C38.479 16.5271 39.2552 17.3032 39.2552 18.2572V39.4167ZM46.1187 11.5499L44.358 32.636C44.2786 33.5867 43.4404 34.2959 42.4899 34.2162L41.1302 34.1027V18.2572C41.1302 16.2694 39.5129 14.6521 37.525 14.6521H8.20628L8.86618 8.46087C8.86693 8.45375 8.86759 8.44672 8.86815 8.4395C8.94756 7.48878 9.78531 6.77966 10.7363 6.85935L44.5385 9.68177C44.9991 9.72021 45.4171 9.93574 45.7155 10.2886C46.0139 10.6415 46.1572 11.0893 46.1187 11.5499Z" fill="black"/>
<path d="M35.3313 30.6123H26.3086C25.7908 30.6123 25.3711 31.032 25.3711 31.5498V37.4363C25.3711 37.9541 25.7908 38.3738 26.3086 38.3738H35.3313C35.8491 38.3738 36.2688 37.9541 36.2688 37.4363V31.5498C36.2688 31.032 35.8491 30.6123 35.3313 30.6123ZM34.3938 36.4988H27.2461V32.4873H34.3938V36.4988Z" fill="black"/>
</g>
<defs>
<clipPath id="clip0_128_1312">
<rect width="48" height="48" fill="white"/>
</clipPath>
</defs>
</svg>
