<svg width="35" height="44" viewBox="0 0 35 44" fill="none" xmlns="http://www.w3.org/2000/svg">
<path d="M31.7969 6.01562H28.3594L6.01562 37.4687V41.4219C6.01562 42.3715 6.7847 43.1406 7.73438 43.1406H31.7969C32.7466 43.1406 33.5156 42.3715 33.5156 41.4219V7.73437C33.5156 6.7847 32.7466 6.01562 31.7969 6.01562Z" fill="#E5181E"/>
<path d="M26.6406 0.859497H11.8835C11.6358 0.859497 11.3928 0.912872 11.1719 1.01425L1.01413 11.172C0.91275 11.3929 0.859375 11.6359 0.859375 11.8837V35.7501C0.859375 36.6998 1.62845 37.4689 2.57812 37.4689H26.6406C27.5903 37.4689 28.3594 36.6998 28.3594 35.7501C28.3594 34.5023 28.3594 4.19528 28.3594 2.57825C28.3594 1.62857 27.5903 0.859497 26.6406 0.859497Z" fill="white"/>
<path d="M16.3281 6.01562H23.2031V11.1719H16.3281V6.01562Z" fill="white"/>
<path d="M11.1714 1.01416V11.1719H1.01367C1.09793 10.9853 1.21542 10.8154 1.36246 10.6684L10.6679 1.36295C10.8149 1.21591 10.9848 1.09842 11.1714 1.01416Z" fill="#E5181E"/>
<path d="M6.01562 17.1875C6.48996 17.1875 6.875 16.8025 6.875 16.3281C6.875 15.8538 6.48996 15.4688 6.01562 15.4688C5.54129 15.4688 5.15625 15.8538 5.15625 16.3281C5.15625 16.8025 5.54129 17.1875 6.01562 17.1875Z" fill="black"/>
<path d="M31.7969 5.15625H29.2188V2.57812C29.2188 1.15646 28.0623 0 26.6406 0H11.8835C11.2004 0 10.5408 0.275269 10.0607 0.75531L0.75531 10.0604C0.281647 10.5341 0 11.192 0 11.8835V35.75C0 37.1717 1.15646 38.3281 2.57812 38.3281H5.15625V41.4219C5.15625 42.8435 6.31271 44 7.73438 44H31.7969C33.2185 44 34.375 42.8435 34.375 41.4219V7.73438C34.375 6.31271 33.2185 5.15625 31.7969 5.15625ZM10.3125 2.9343V10.3125H2.93396L10.3125 2.9343ZM2.57812 36.6094C2.10413 36.6094 1.71875 36.224 1.71875 35.75V12.0312H11.1719C11.6465 12.0312 12.0312 11.6465 12.0312 11.1719V1.71875H26.6406C27.1146 1.71875 27.5 2.10413 27.5 2.57812V35.75C27.5 36.224 27.1146 36.6094 26.6406 36.6094H2.57812ZM32.6562 41.4219C32.6562 41.8959 32.2709 42.2812 31.7969 42.2812H7.73438C7.26038 42.2812 6.875 41.8959 6.875 41.4219V38.3281H26.6406C28.0623 38.3281 29.2188 37.1717 29.2188 35.75V6.875H31.7969C32.2709 6.875 32.6562 7.26038 32.6562 7.73438V41.4219Z" fill="black"/>
<path d="M23.2031 5.15637H16.3281C15.8535 5.15637 15.4688 5.54108 15.4688 6.01575V11.172C15.4688 11.6467 15.8535 12.0314 16.3281 12.0314H23.2031C23.6778 12.0314 24.0625 11.6467 24.0625 11.172V6.01575C24.0625 5.54108 23.6778 5.15637 23.2031 5.15637ZM22.3438 10.3126H17.1875V6.87512H22.3438V10.3126Z" fill="black"/>
<path d="M23.2031 15.4688H9.45312C8.97845 15.4688 8.59375 15.8535 8.59375 16.3281C8.59375 16.8028 8.97845 17.1875 9.45312 17.1875H23.2031C23.6778 17.1875 24.0625 16.8028 24.0625 16.3281C24.0625 15.8535 23.6778 15.4688 23.2031 15.4688Z" fill="black"/>
<path d="M23.2031 20.6249H6.01562C5.54095 20.6249 5.15625 21.0096 5.15625 21.4843C5.15625 21.9589 5.54095 22.3436 6.01562 22.3436H23.2031C23.6778 22.3436 24.0625 21.9589 24.0625 21.4843C24.0625 21.0096 23.6778 20.6249 23.2031 20.6249Z" fill="black"/>
<path d="M23.2031 25.7812H6.01562C5.54095 25.7812 5.15625 26.166 5.15625 26.6406C5.15625 27.1153 5.54095 27.5 6.01562 27.5H23.2031C23.6778 27.5 24.0625 27.1153 24.0625 26.6406C24.0625 26.166 23.6778 25.7812 23.2031 25.7812Z" fill="black"/>
<path d="M23.2031 30.9376H6.01562C5.54095 30.9376 5.15625 31.3223 5.15625 31.797C5.15625 32.2717 5.54095 32.6564 6.01562 32.6564H23.2031C23.6778 32.6564 24.0625 32.2717 24.0625 31.797C24.0625 31.3223 23.6778 30.9376 23.2031 30.9376Z" fill="black"/>
</svg>
