<svg width="48" height="48" viewBox="0 0 48 48" fill="none" xmlns="http://www.w3.org/2000/svg">
<path d="M28 31V36.5L30.5 35L33.5 37V33.5V30.5L35.5 28.5L34.5 25L33 22.5L31 22L28 22.5L26 25V28L28 31Z" fill="#F47920"/>
<path d="M16.5 13.6875C17.0175 13.6875 17.4375 13.2675 17.4375 12.75C17.4375 12.2325 17.0175 11.8125 16.5 11.8125C15.9825 11.8125 15.5625 12.2325 15.5625 12.75C15.5625 13.2675 15.9825 13.6875 16.5 13.6875Z" fill="black"/>
<path d="M16.5 19.3125C17.0175 19.3125 17.4375 18.8925 17.4375 18.375C17.4375 17.8575 17.0175 17.4375 16.5 17.4375C15.9825 17.4375 15.5625 17.8575 15.5625 18.375C15.5625 18.8925 15.9825 19.3125 16.5 19.3125Z" fill="black"/>
<path d="M14.625 48H37.125C40.7435 48 43.6875 45.056 43.6875 41.4375C43.6875 40.9197 43.2678 40.5 42.75 40.5H39.9375V4.6875C39.9375 2.10278 37.8347 0 35.25 0C35.25 0 8.27417 0 8.0625 0C5.99487 0 4.3125 1.68237 4.3125 3.75V8.4375C4.3125 8.95532 4.73218 9.375 5.25 9.375H9.9375V43.1118C9.9375 45.6595 11.877 48 14.625 48ZM37.125 46.125H18.3728C18.9624 45.3409 19.3125 44.3573 19.3125 43.303V42.3655H41.7184C41.283 44.5027 39.3885 46.125 37.125 46.125ZM38.0625 4.6875V40.5H18.375C17.8572 40.5 17.4375 40.9197 17.4375 41.4375V43.3125C17.4375 44.8634 16.1759 46.125 14.625 46.125C12.9441 46.125 11.8125 44.6704 11.8125 43.1118V3.75C11.8125 3.07397 11.6323 2.43164 11.3112 1.875H35.25C36.8009 1.875 38.0625 3.1366 38.0625 4.6875ZM6.1875 7.5V3.75C6.1875 2.71619 7.02869 1.875 8.0625 1.875C9.08752 1.875 9.9375 2.70154 9.9375 3.75V7.5H6.1875Z" fill="black"/>
<path d="M24.9375 26.8125C24.9375 28.4355 25.6165 29.9363 26.8125 31.002V37.125C26.8125 37.4707 27.0029 37.7886 27.3076 37.9515C27.6123 38.1149 27.9825 38.0969 28.27 37.905L30.5625 36.3768L32.855 37.905C33.1432 38.0973 33.5131 38.1145 33.8174 37.9515C34.1221 37.7886 34.3125 37.4707 34.3125 37.125V31.002C35.5089 29.9359 36.1875 28.4352 36.1875 26.8125C36.1875 23.7111 33.6643 21.1875 30.5625 21.1875C27.4607 21.1875 24.9375 23.7107 24.9375 26.8125ZM31.0825 34.47C30.7676 34.2601 30.3574 34.2601 30.0425 34.47L28.6875 35.3734V32.1174C29.2833 32.328 29.9143 32.4375 30.5625 32.4375C31.2107 32.4375 31.8417 32.328 32.4375 32.1174V35.3734L31.0825 34.47ZM34.3125 26.8125C34.3125 28.9288 32.5891 30.5625 30.5625 30.5625C28.5352 30.5625 26.8125 28.9299 26.8125 26.8125C26.8125 24.7449 28.4949 23.0625 30.5625 23.0625C32.6301 23.0625 34.3125 24.7449 34.3125 26.8125Z" fill="black"/>
<path d="M16.5 8.0625H33.375C33.8928 8.0625 34.3125 7.64282 34.3125 7.125C34.3125 6.60718 33.8928 6.1875 33.375 6.1875H16.5C15.9822 6.1875 15.5625 6.60718 15.5625 7.125C15.5625 7.64282 15.9822 8.0625 16.5 8.0625Z" fill="black"/>
<path d="M20.25 13.6875H33.375C33.8928 13.6875 34.3125 13.2678 34.3125 12.75C34.3125 12.2322 33.8928 11.8125 33.375 11.8125H20.25C19.7322 11.8125 19.3125 12.2322 19.3125 12.75C19.3125 13.2678 19.7322 13.6875 20.25 13.6875Z" fill="black"/>
<path d="M20.25 19.3125H33.375C33.8928 19.3125 34.3125 18.8928 34.3125 18.375C34.3125 17.8572 33.8928 17.4375 33.375 17.4375H20.25C19.7322 17.4375 19.3125 17.8572 19.3125 18.375C19.3125 18.8928 19.7322 19.3125 20.25 19.3125Z" fill="black"/>
<path d="M16.5 30.5625H22.125C22.6428 30.5625 23.0625 30.1428 23.0625 29.625C23.0625 29.1072 22.6428 28.6875 22.125 28.6875H16.5C15.9822 28.6875 15.5625 29.1072 15.5625 29.625C15.5625 30.1428 15.9822 30.5625 16.5 30.5625Z" fill="black"/>
<path d="M16.5 24.9375H22.125C22.6428 24.9375 23.0625 24.5178 23.0625 24C23.0625 23.4822 22.6428 23.0625 22.125 23.0625H16.5C15.9822 23.0625 15.5625 23.4822 15.5625 24C15.5625 24.5178 15.9822 24.9375 16.5 24.9375Z" fill="black"/>
<path d="M16.5 36.1875H22.125C22.6428 36.1875 23.0625 35.7678 23.0625 35.25C23.0625 34.7322 22.6428 34.3125 22.125 34.3125H16.5C15.9822 34.3125 15.5625 34.7322 15.5625 35.25C15.5625 35.7678 15.9822 36.1875 16.5 36.1875Z" fill="black"/>
</svg>
