<svg width="45" height="44" viewBox="0 0 45 44" fill="none" xmlns="http://www.w3.org/2000/svg">
<path d="M37 10L32.5 12.5L32 13.5L39.5 23L44 19.5L37 10Z" fill="#E5181E"/>
<path d="M1.81137 19.1254L5.49173 22.798L6.62741 23.0114L14.2458 13.2055L9.5592 9.80249L1.81137 19.1254Z" fill="#E5181E"/>
<g clip-path="url(#clip0_511_1453)">
<path d="M44.8198 18.7651L37.4554 9.19853C37.1828 8.84471 36.6856 8.75743 36.3086 8.99711L31.5539 12.021H25.3526C25.2724 12.021 25.1925 12.0382 25.1153 12.0607L20.3071 13.4447L15.3181 12.0801L10.4703 8.99711C10.0997 8.76146 9.61162 8.84135 9.33602 9.18309L1.19042 19.2727C0.897694 19.6352 0.946034 20.1646 1.29918 20.4684L5.56853 24.1426L9.39879 29.3042C8.27858 30.4976 8.3004 32.3798 9.46593 33.5457C9.98256 34.062 10.6395 34.3537 11.3153 34.4215C11.2918 34.5746 11.2797 34.73 11.2797 34.8878C11.2797 35.7022 11.5969 36.4679 12.1726 37.0436C12.7487 37.6197 13.5144 37.9369 14.3288 37.9369C14.3399 37.9369 14.3506 37.9362 14.3613 37.9359C14.361 37.9567 14.36 37.9772 14.36 37.998C14.36 38.8124 14.6772 39.5781 15.2529 40.1542C15.829 40.7299 16.5947 41.0471 17.4091 41.0471C17.5699 41.0471 17.729 41.034 17.8851 41.0099C17.9512 41.688 18.2436 42.3479 18.7619 42.8662C19.3561 43.4608 20.1369 43.7578 20.9178 43.7578C21.6986 43.7578 22.4794 43.4608 23.0739 42.8662L23.5402 42.4L23.7359 42.5577C24.3254 43.1288 25.0908 43.4141 25.8562 43.4141C26.637 43.4141 27.4178 43.117 28.012 42.5225C28.6186 41.9159 28.9157 41.1153 28.9032 40.3187C29.6995 40.3307 30.5005 40.034 31.1071 39.4277C31.713 38.8215 32.0101 38.0215 31.9983 37.2252C32.8278 37.2383 33.6147 36.9198 34.2018 36.3326C34.8084 35.726 35.1055 34.9254 35.0931 34.1288C35.89 34.1409 36.6903 33.8441 37.2969 33.2375C38.3322 32.2023 38.4655 30.602 37.6977 29.4207L40.4944 23.5635L44.699 19.9454C45.0464 19.6463 45.0994 19.128 44.8198 18.7651ZM10.1944 10.8666L13.6802 13.0832L6.09725 22.3215L3.05855 19.7061L10.1944 10.8666ZM10.6862 30.4536L11.7382 29.4016C11.7701 29.3697 11.8037 29.3395 11.8379 29.3113C12.0437 29.1434 12.2928 29.0434 12.5567 29.0196C12.564 29.0189 12.5718 29.0189 12.5791 29.0185C12.6167 29.0155 12.6543 29.0135 12.6923 29.0138C13.0528 29.0189 13.3878 29.1663 13.6362 29.4284C14.1237 29.9437 14.0975 30.7856 13.5778 31.3053L12.5577 32.3255C12.0417 32.8414 11.2021 32.8414 10.6862 32.3255C10.1702 31.8092 10.1702 30.9696 10.6862 30.4536ZM13.3929 35.8234C13.1428 35.5736 13.0051 35.2413 13.0051 34.8878C13.0051 34.5343 13.1428 34.202 13.3929 33.9519L15.4329 31.9119C15.8236 31.5211 16.4379 31.4141 16.9375 31.6521C17.4524 31.8975 17.7421 32.4564 17.6666 33.0187C17.6263 33.3188 17.4866 33.6014 17.2725 33.8159L15.2647 35.8234C15.0146 36.0735 14.6823 36.2111 14.3288 36.2111C13.9753 36.2111 13.643 36.0735 13.3929 35.8234ZM16.4732 38.9336C16.2231 38.6838 16.0855 38.3515 16.0855 37.998C16.0855 37.6445 16.2231 37.3122 16.4732 37.0621L18.5129 35.0221C18.9308 34.6045 19.6012 34.5145 20.1128 34.8123C20.5801 35.0842 20.8248 35.6179 20.7446 36.1497C20.7006 36.4421 20.5616 36.717 20.3525 36.9261L18.345 38.9336C18.0949 39.1837 17.7626 39.3213 17.4091 39.3213C17.0556 39.3213 16.7233 39.1837 16.4732 38.9336ZM19.9819 41.646C19.4659 41.13 19.4659 40.2905 19.9819 39.7745L21.0339 38.7224C21.0658 38.6905 21.099 38.6607 21.1333 38.6325C21.1343 38.6318 21.135 38.6311 21.1356 38.6305C21.3068 38.4915 21.5079 38.3985 21.7224 38.3579C21.7275 38.3572 21.7325 38.3565 21.7375 38.3559C21.7745 38.3491 21.8121 38.3438 21.8497 38.3404C21.8648 38.3391 21.8799 38.3391 21.8953 38.3381C21.9262 38.3364 21.9567 38.3344 21.988 38.3347C22.3482 38.3397 22.6835 38.4868 22.9319 38.7493C22.9625 38.7815 22.991 38.8151 23.0172 38.8497C23.414 39.3683 23.3606 40.1387 22.8681 40.6315L21.8533 41.6463C21.3374 42.1623 20.4978 42.162 19.9819 41.646ZM36.0767 32.0173C35.5607 32.5336 34.7211 32.5333 34.2052 32.0173C34.1864 31.9985 34.1666 31.981 34.1464 31.9646L28.5988 26.3585C28.2634 26.0198 27.7172 26.0171 27.3785 26.3525C27.0398 26.6875 27.0371 27.2337 27.3721 27.5724L32.9799 33.2386C32.9806 33.2392 32.9812 33.2399 32.9819 33.2406C33.4979 33.7565 33.4979 34.5964 32.9819 35.1124C32.7318 35.3625 32.3995 35.5001 32.046 35.5001C31.6922 35.5001 31.3598 35.3625 31.1101 35.1124L27.3587 31.3221C27.0237 30.9834 26.4775 30.9807 26.1388 31.3157C25.8001 31.6511 25.7974 32.1972 26.1324 32.5359L29.8264 36.2682C29.8452 36.2917 29.8653 36.3142 29.8868 36.3357C30.4028 36.8516 30.4028 37.6915 29.8868 38.2075C29.3705 38.7234 28.5306 38.7231 28.0147 38.2071L25.9673 36.1383C25.6319 35.7996 25.0857 35.7965 24.747 36.1319C24.4083 36.4669 24.4056 37.0131 24.7406 37.3518L26.731 39.3626C26.7498 39.3861 26.7699 39.4089 26.7917 39.4304C27.3077 39.9464 27.3077 40.7863 26.7917 41.3022C26.2758 41.8185 25.4362 41.8182 24.9202 41.3022C24.8608 41.2428 24.791 41.1972 24.7245 41.1461C24.6681 41.1032 24.6534 41.0733 24.6816 41.0048C24.7101 40.9353 24.7527 40.8726 24.7813 40.8027C24.8128 40.7249 24.8383 40.6446 24.8632 40.5641C24.9954 40.1377 25.0344 39.6792 24.975 39.2367C24.8608 38.3878 24.3939 37.6217 23.6862 37.137C23.3039 36.8755 22.8614 36.7039 22.4029 36.6395C22.6251 35.6592 22.3582 34.5964 21.664 33.8629C21.0927 33.2594 20.3209 32.9206 19.4907 32.9092C19.4605 32.9089 19.4303 32.9089 19.3998 32.9092C19.4182 32.117 19.1302 31.3298 18.584 30.7527C18.0123 30.1492 17.2406 29.8104 16.4108 29.799C16.164 29.7957 15.9149 29.8219 15.6746 29.8773C15.5719 29.1626 15.2117 28.5012 14.6662 28.0282C14.124 27.559 13.4422 27.2985 12.7161 27.2884C11.9517 27.2773 11.2008 27.5593 10.6331 28.0719L7.29802 23.578L15.2768 13.8576L17.8197 14.5532L14.4986 20.4134C14.0972 21.122 13.9958 21.9445 14.213 22.7293C14.4302 23.5145 14.9397 24.1678 15.6484 24.5693C15.6927 24.5944 15.7374 24.6183 15.7827 24.6411C15.786 24.6428 15.7894 24.6445 15.7931 24.6461C15.9122 24.7056 16.0348 24.7566 16.159 24.7996C16.7374 25 17.3621 25.0218 17.9647 24.8553C18.7495 24.6381 19.4028 24.1282 19.8043 23.4199L21.9624 19.6114L25.8159 19.8847L36.077 30.1455C36.5926 30.6618 36.5926 31.5013 36.0767 32.0173ZM36.4342 28.0625L26.8082 18.4368C26.7901 18.4184 26.7709 18.4009 26.7511 18.3844C26.6125 18.269 26.4406 18.1991 26.2593 18.1864L21.5412 17.8517C21.2149 17.8292 20.8906 18.0028 20.7294 18.2871L18.3031 22.5692C18.1288 22.8767 17.8452 23.0979 17.5044 23.1923C17.164 23.2866 16.8069 23.2423 16.499 23.068C16.1915 22.8938 15.9703 22.6102 15.876 22.2694C15.7817 21.9287 15.8256 21.5715 16.0002 21.264L19.2393 15.5475L20.5519 15.1698C20.5606 15.1672 20.569 15.1638 20.5777 15.1611L25.4765 13.7465H31.3954L38.7847 23.1399L36.4342 28.0625ZM39.915 21.7857L33.0816 13.0943L36.5691 10.8763L42.9544 19.1703L39.915 21.7857Z" fill="black"/>
<path d="M27.6557 10.4012C27.8766 10.4012 28.0975 10.317 28.266 10.1484L34.1594 4.25501C34.4965 3.91797 34.4965 3.3718 34.1594 3.03476C33.8224 2.69772 33.2762 2.69772 32.9392 3.03476L27.0457 8.92819C26.7087 9.26523 26.7087 9.8114 27.0457 10.1484C27.2143 10.317 27.4352 10.4012 27.6557 10.4012Z" fill="black"/>
<path d="M17.7331 10.1484C17.9016 10.317 18.1225 10.4012 18.3434 10.4012C18.564 10.4012 18.7849 10.317 18.9534 10.1484C19.2904 9.8114 19.2904 9.26523 18.9534 8.92819L13.0599 3.03476C12.7229 2.69772 12.1767 2.69772 11.8397 3.03476C11.5027 3.3718 11.5027 3.91797 11.8397 4.25501L17.7331 10.1484Z" fill="black"/>
<path d="M23.0004 10.401C23.4768 10.401 23.8631 10.0146 23.8631 9.53824V4.66095C23.8631 4.1846 23.4768 3.79822 23.0004 3.79822C22.5241 3.79822 22.1377 4.1846 22.1377 4.66095V9.53824C22.1377 10.0146 22.5241 10.401 23.0004 10.401Z" fill="black"/>
<path d="M22.2049 1.53411C22.3419 1.86611 22.6833 2.08398 23.0435 2.06518C23.3993 2.04672 23.7118 1.80636 23.8219 1.46764C23.9324 1.12624 23.8122 0.737175 23.5262 0.519646C23.2345 0.297417 22.8276 0.284996 22.5225 0.486748C22.1821 0.711663 22.0502 1.15948 22.2049 1.53411Z" fill="black"/>
</g>
<defs>
<clipPath id="clip0_511_1453">
<rect width="44" height="44" fill="white" transform="translate(1)"/>
</clipPath>
</defs>
</svg>
