<svg width="58" height="45" viewBox="0 0 58 45" fill="none" xmlns="http://www.w3.org/2000/svg">
<path d="M51.4843 7.95034L56.3526 7.13513V39.2739L28.7384 43.783L1.12402 39.2739V7.13513L5.99229 7.95034" fill="#E5181E"/>
<path d="M51.485 34.5661L28.7391 39.3756L5.99316 34.5661V1.12341L28.7391 5.93286L51.485 1.12341V34.5661Z" fill="white"/>
<path d="M57.0782 6.27802C56.8261 6.06462 56.4931 5.97324 56.1667 6.02746L52.6074 6.62344V1.12361C52.6074 0.784813 52.4545 0.464093 52.1914 0.250804C51.9281 0.0374024 51.5826 -0.0456683 51.2514 0.0243803L28.7379 4.78443L6.22445 0.0242681C5.89318 -0.0456683 5.54765 0.0372898 5.28441 0.250691C5.02128 0.464093 4.86838 0.784701 4.86838 1.12349V6.62332L1.30915 6.02735C0.63504 5.91498 0 6.45179 0 7.13555V39.2742C0 39.8235 0.397167 40.2923 0.939034 40.3825L23.6039 44.1572C24.2074 44.2573 24.7963 43.837 24.8968 43.2334C24.9973 42.63 24.5764 42.041 23.973 41.9405L2.24717 38.3224V8.463L4.86827 8.90193V34.5662C4.86827 35.0972 5.23995 35.5557 5.75937 35.6656L28.5053 40.4749C28.6582 40.5072 28.8173 40.5072 28.9702 40.4749L51.7161 35.6656C52.2356 35.5558 52.6073 35.0972 52.6073 34.5662V8.90193L55.2285 8.463V38.3216L33.4275 41.9344C32.824 42.0344 32.4027 42.6231 32.5027 43.2266C32.6027 43.8301 33.1913 44.2515 33.7949 44.1513L56.5359 40.3828C57.0782 40.2929 57.4758 39.824 57.4758 39.2743V7.13555C57.4758 6.80518 57.3303 6.49153 57.0782 6.27802ZM7.11555 2.50954L27.6142 6.8438V37.9895L7.11555 33.6554V2.50954ZM50.3602 33.6554L29.8615 37.9895V6.8438L50.3602 2.50954V33.6554Z" fill="black"/>
<path d="M24.0846 30.1093L11.3417 27.4149C10.7342 27.2865 10.1383 27.6747 10.0099 28.2818C9.88148 28.8889 10.2697 29.4852 10.8768 29.6135L23.6197 32.3079C24.2371 32.4383 24.8513 32.0171 24.9589 31.3977C25.0607 30.8114 24.6668 30.2325 24.0846 30.1093Z" fill="black"/>
<path d="M24.0846 24.0978L11.3417 21.4034C10.7342 21.2751 10.1383 21.6632 10.0099 22.2703C9.88148 22.8774 10.2697 23.4737 10.8768 23.6021L23.6197 26.2965C24.2371 26.4269 24.8513 26.0058 24.9589 25.3863C25.0607 24.8 24.6668 24.221 24.0846 24.0978Z" fill="black"/>
<path d="M24.0845 18.0863L11.3417 15.392C10.7341 15.2636 10.1383 15.6517 10.0099 16.2588C9.88148 16.866 10.2697 17.4622 10.8768 17.5905L23.6197 20.2848C24.2371 20.4153 24.8513 19.9941 24.9589 19.3747C25.0606 18.7883 24.6667 18.2094 24.0845 18.0863Z" fill="black"/>
<path d="M10.8767 11.5786L23.6196 14.273C24.237 14.4034 24.8513 13.9822 24.9589 13.3628C25.0606 12.7764 24.6668 12.1974 24.0846 12.0743L11.3417 9.37989C10.7342 9.25147 10.1383 9.63966 10.0099 10.2467C9.88156 10.8539 10.2696 11.4501 10.8767 11.5786Z" fill="black"/>
<path d="M33.593 14.2974C33.6699 14.2974 33.7481 14.2894 33.8265 14.2729L46.5694 11.5785C47.1764 11.4501 47.5646 10.8539 47.4362 10.2468C47.3079 9.63969 46.7122 9.25139 46.1045 9.37993L33.3616 12.0743C32.0813 12.345 32.2826 14.2974 33.593 14.2974Z" fill="black"/>
<path d="M33.593 20.3094C33.6699 20.3094 33.7481 20.3014 33.8265 20.2849L46.5694 17.5906C47.1764 17.4622 47.5646 16.866 47.4362 16.2589C47.3079 15.6519 46.7122 15.2634 46.1045 15.392L33.3616 18.0863C32.0813 18.357 32.2826 20.3094 33.593 20.3094Z" fill="black"/>
<path d="M33.593 26.3211C33.6699 26.3211 33.7481 26.3131 33.8265 26.2966L46.5694 23.6022C47.1764 23.4738 47.5646 22.8776 47.4362 22.2704C47.3079 21.6634 46.7122 21.2749 46.1045 21.4035L33.3616 24.0979C32.0813 24.3687 32.2826 26.3211 33.593 26.3211Z" fill="black"/>
<path d="M46.1033 27.415L33.3604 30.1094C32.7762 30.2329 32.387 30.8109 32.4861 31.3979C32.5909 32.0178 33.2097 32.4382 33.8252 32.3081L46.5681 29.6137C47.1752 29.4852 47.5634 28.889 47.435 28.282C47.3067 27.6748 46.7109 27.2863 46.1033 27.415Z" fill="black"/>
<path d="M28.6919 44.9999C29.3119 44.9999 29.8145 44.4973 29.8145 43.8773C29.8145 43.2574 29.3119 42.7548 28.6919 42.7548C28.0719 42.7548 27.5693 43.2574 27.5693 43.8773C27.5693 44.4973 28.0719 44.9999 28.6919 44.9999Z" fill="black"/>
</svg>
