<svg width="44" height="44" viewBox="0 0 44 44" fill="none" xmlns="http://www.w3.org/2000/svg">
<path d="M41.8817 35.8043C43.5592 37.4827 43.5592 40.2032 41.8817 41.8817C40.2046 43.5591 37.4821 43.5591 35.8046 41.8817L24.3125 29.3986L29.3785 24.3336L41.8817 35.8043Z" fill="#E5181E"/>
<path d="M26.8475 22.0115L29.3776 24.3335L24.3117 29.3984L21.9863 26.873L26.8475 22.0115Z" fill="#FF9A9D"/>
<path d="M42.7365 6.12372L38.9217 9.96842H36.4906L34.1162 7.50812V5.07703L37.875 1.26254C37.0999 1.00137 36.269 0.859375 35.4053 0.859375C30.11 0.859375 26.3906 6.06699 28.0741 11.0641L20.7721 18.3671L20.7663 18.3611L9.36686 6.93577V4.50568L3.29047 0.859375L0.860046 3.2898L4.50568 9.36619L6.93577 9.3672L18.3359 20.7922L18.341 20.7972L11.0641 28.0744C6.07639 26.3943 0.859375 30.0996 0.859375 35.4053C0.859375 36.269 1.00104 37.0999 1.26221 37.875L5.07703 34.0303H7.50812L9.96842 36.4906V38.9217L6.12372 42.7365C6.89884 42.9977 7.72968 43.1397 8.59342 43.1397C13.8984 43.1397 17.6048 37.9223 15.9246 32.9346C19.4491 29.4101 29.4259 19.4333 32.9346 15.9246C33.7107 16.1861 34.5415 16.3278 35.4053 16.3278C39.677 16.3278 43.1393 12.8655 43.1393 8.59376C43.1393 7.73002 42.9977 6.89884 42.7365 6.12372Z" fill="#E9EEF0"/>
<path d="M29.8066 13.333C29.3323 13.333 28.9473 13.717 28.9473 14.192C28.9473 14.6667 29.3323 15.0514 29.8066 15.0514C30.282 15.0514 30.666 14.6667 30.666 14.192C30.666 13.717 30.282 13.333 29.8066 13.333Z" fill="black"/>
<path d="M14.1924 28.9473C13.717 28.9473 13.333 29.3323 13.333 29.8066C13.333 30.282 13.717 30.666 14.1924 30.666C14.6667 30.666 15.0518 30.282 15.0518 29.8066C15.0518 29.3323 14.6667 28.9473 14.1924 28.9473Z" fill="black"/>
<path d="M42.9309 5.28692C42.6408 5.21945 42.336 5.30706 42.1265 5.51855L38.5638 9.10947H36.8558L34.9756 7.16144V5.42959L38.4873 1.86553C38.6951 1.65472 38.7797 1.35158 38.7109 1.06322C38.6424 0.775198 38.4302 0.542898 38.1496 0.448233C37.2674 0.150808 36.3442 8.15305e-05 35.4053 8.15305e-05C32.6063 8.15305e-05 30.0634 1.30526 28.4286 3.58093C26.8985 5.71124 26.4268 8.32193 27.1026 10.8205L20.7724 17.1507L10.2262 6.58035V4.50576C10.2262 4.20397 10.0678 3.92401 9.80897 3.76891L3.73258 0.12261C3.3942 -0.080485 2.96149 -0.0271096 2.68286 0.251852L0.252442 2.68194C-0.0261842 2.9609 -0.0795594 3.39361 0.1232 3.73199L3.76883 9.80838C3.92392 10.0672 4.20356 10.2253 4.50535 10.2256L6.57926 10.2263L17.1264 20.7966L10.8204 27.1026C8.32185 26.4272 5.70981 26.8996 3.5785 28.4307C1.30417 30.0645 0 32.6067 0 35.4057C0 36.3443 0.150726 37.2678 0.448151 38.1497C0.543152 38.432 0.777802 38.6451 1.06784 38.7123C1.35822 38.7798 1.66269 38.6921 1.8725 38.4807L5.43488 34.8901H7.15229L9.10905 36.8468V38.5642L5.51847 42.1266C5.30698 42.3364 5.21937 42.6409 5.28684 42.9313C5.35398 43.2213 5.56714 43.456 5.84946 43.551C6.73133 43.8484 7.65482 43.9991 8.59342 43.9991C11.3924 43.9991 13.9343 42.6946 15.5685 40.4203C17.0996 38.289 17.5719 35.6773 16.8965 33.1787L21.9611 28.1141L23.1212 29.3743L22.5888 29.9064C22.2531 30.2421 22.2531 30.7862 22.5888 31.1219C22.9245 31.4573 23.4683 31.4573 23.8044 31.1219L24.2864 30.6399L35.1716 42.4637C35.1797 42.4724 35.1881 42.4808 35.1965 42.4892C37.2106 44.5033 40.4739 44.504 42.4891 42.4888C44.4986 40.4784 44.4986 37.207 42.4891 35.1966C42.4804 35.1878 42.4713 35.1794 42.4622 35.171L30.62 24.3067L31.0967 23.83C31.4323 23.4946 31.4323 22.9505 31.0967 22.6148C30.761 22.2791 30.2171 22.2791 29.8811 22.6148L29.3524 23.1438L28.0898 21.985L33.179 16.8959C33.9024 17.0892 34.649 17.1873 35.4053 17.1873C40.1439 17.1873 43.9987 13.3322 43.9987 8.59384C43.9987 7.6549 43.848 6.73175 43.5506 5.84954C43.4556 5.56723 43.2209 5.35406 42.9309 5.28692ZM7.54404 8.76001C7.38291 8.59854 7.16438 8.5163 6.9361 8.5163L4.99244 8.51562L1.94232 3.42315L3.42374 1.94173L8.50749 4.99252V6.93618C8.50749 7.16378 8.59779 7.38199 8.75858 7.54312L19.5572 18.3662L18.3416 19.5814L7.54404 8.76001ZM29.4034 25.5232L41.286 36.4242C42.6133 37.7656 42.6093 39.9376 41.2735 41.274C39.9348 42.6127 37.7676 42.6167 36.4234 41.2857L25.5027 29.4233L29.4034 25.5232ZM28.1358 24.36L24.3375 28.1577L23.1773 26.8975L26.8733 23.2012L28.1358 24.36ZM35.4053 15.4685C34.6537 15.4685 33.9145 15.348 33.2088 15.1103C32.8997 15.0066 32.5579 15.0865 32.327 15.3171C28.0187 19.6254 18.7354 28.9083 15.317 32.327C15.0861 32.558 15.0058 32.8997 15.1102 33.2093C15.8246 35.3305 15.4829 37.5931 14.1723 39.4176C12.8655 41.2367 10.8318 42.2804 8.59342 42.2804C8.34199 42.2804 8.0919 42.2666 7.84415 42.2401L10.5737 39.5317C10.7362 39.3706 10.8278 39.151 10.8278 38.9218V36.4907C10.8278 36.2627 10.7372 36.0442 10.576 35.8831L8.11573 33.4228C7.9546 33.2616 7.73606 33.171 7.50813 33.171H5.07703C4.84775 33.171 4.62821 33.2626 4.46674 33.4251L1.7587 36.1546C1.73184 35.9069 1.71842 35.6568 1.71842 35.4054C1.71842 33.1666 2.76175 31.1333 4.58121 29.8265C6.40537 28.5159 8.66828 28.1738 10.7899 28.8885C11.099 28.9929 11.4408 28.9127 11.6717 28.6818C11.7191 28.6348 28.6696 11.6839 28.6817 11.6718C28.9126 11.4409 28.9925 11.0995 28.8885 10.7899C28.1738 8.6687 28.5148 6.4068 29.8244 4.58364C31.1322 2.76284 33.1662 1.71883 35.4049 1.71883C35.6641 1.71883 35.9216 1.73327 36.1767 1.76147L33.5039 4.47421C33.3455 4.635 33.2568 4.85153 33.2568 5.07711V7.50821C33.2568 7.73111 33.3431 7.94494 33.4979 8.10507L35.8722 10.5654C36.034 10.7332 36.2573 10.8279 36.4906 10.8279H38.9217C39.1506 10.8279 39.3702 10.7366 39.5316 10.5738L42.2397 7.84457C42.2665 8.09231 42.28 8.34241 42.28 8.59384C42.28 12.3845 39.1959 15.4685 35.4053 15.4685Z" fill="black"/>
<path d="M26.7682 16.0151L16.0142 26.769C15.6789 27.1044 15.6789 27.6485 16.0142 27.9842C16.3499 28.3199 16.8941 28.3199 17.2298 27.9842L27.9837 17.2303C28.3194 16.8949 28.3194 16.3508 27.9837 16.0151C27.648 15.6794 27.1039 15.6794 26.7682 16.0151Z" fill="black"/>
<path d="M37.6286 38.8438C37.9643 39.1785 38.5085 39.1785 38.8442 38.8418C39.1792 38.5058 39.1782 37.9616 38.8422 37.6266L31.096 29.9053C30.76 29.5703 30.2155 29.5713 29.8808 29.9073C29.5455 30.2437 29.5465 30.7875 29.8825 31.1225L37.6286 38.8438Z" fill="black"/>
</svg>
