<svg width="48" height="48" viewBox="0 0 48 48" fill="none" xmlns="http://www.w3.org/2000/svg">
<g clip-path="url(#clip0_182_1262)">
<path d="M21.5 32L35 19V16.5L33.5 15.5L31 16.5L28.5 19.5L23 25L20 27L16 22.5L13.5 22L12.5 24.5L19 31.5L21.5 32Z" fill="#F47920"/>
<path d="M43.727 8.28854C37.1228 6.47898 30.4798 3.66133 24.5161 0.140273C24.1993 -0.0467577 23.8062 -0.0467577 23.4895 0.140273C17.3538 3.76248 11.0697 6.4277 4.27803 8.28854C3.83928 8.40863 3.53516 8.80744 3.53516 9.26241V19.5792C3.53516 30.2032 8.4363 37.2356 12.548 41.2641C16.9745 45.6014 22.1307 48 24.0028 48C25.8747 48 31.0309 45.6014 35.4574 41.2641C39.569 37.2357 44.4699 30.2033 44.4699 19.5792V9.26232C44.4699 8.80744 44.1658 8.40863 43.727 8.28854ZM42.4505 19.5791C42.4505 29.5019 37.8792 36.0639 34.0441 39.8216C29.6912 44.0867 25.0371 45.9805 24.0028 45.9805C22.9685 45.9805 18.3142 44.0867 13.9612 39.8216C10.1261 36.0638 5.55462 29.5019 5.55462 19.5791V10.0288C12.0494 8.18476 18.098 5.61123 24.003 2.17971C29.7605 5.5202 36.1109 8.22169 42.4505 10.0284V19.5791Z" fill="black"/>
<path d="M15.0549 9.9158C14.8506 9.3969 14.2643 9.14199 13.7453 9.34646C11.9416 10.0572 10.0902 10.7114 8.24269 11.2909C7.82166 11.4231 7.53516 11.8131 7.53516 12.2543V16.1534C7.53516 16.7111 7.98731 17.1631 8.54484 17.1631C9.10237 17.1631 9.55453 16.7111 9.55453 16.1534V12.9922C11.2119 12.456 12.8676 11.8628 14.4856 11.2252C15.0045 11.0209 15.2594 10.4347 15.0549 9.9158Z" fill="black"/>
<path d="M16.9729 10.1075C17.1084 10.1075 17.2459 10.0802 17.3778 10.0226L17.3964 10.0145C17.9072 9.79067 18.1373 9.19602 17.9134 8.68536C17.6894 8.17452 17.0913 7.94342 16.5811 8.16711L16.5647 8.17414C16.0536 8.39736 15.8228 8.99155 16.046 9.50248C16.2117 9.8818 16.5834 10.1075 16.9729 10.1075Z" fill="black"/>
<path d="M36.0343 32.5578C35.5677 32.2529 34.9421 32.384 34.6367 32.8508C33.8047 34.1243 32.8286 35.3438 31.7351 36.4751C30.8358 37.4053 29.8614 38.2723 28.8388 39.0518C28.3955 39.3898 28.3102 40.0234 28.6482 40.4669C28.847 40.7275 29.1476 40.8645 29.4518 40.8645C29.6653 40.8645 29.8805 40.7971 30.0633 40.6576C31.1663 39.8166 32.2172 38.8816 33.1868 37.8787C34.3691 36.6558 35.4256 35.3358 36.3273 33.9554C36.6325 33.4885 36.5011 32.8628 36.0343 32.5578Z" fill="black"/>
<path d="M26.4917 40.6353L26.4337 40.6694C25.9512 40.9489 25.7863 41.5665 26.0657 42.049C26.2529 42.3725 26.5918 42.553 26.9404 42.553C27.112 42.553 27.2862 42.5093 27.4453 42.4169L27.5121 42.3776C27.9933 42.0958 28.155 41.4774 27.8732 40.9961C27.5912 40.5151 26.9726 40.3538 26.4917 40.6353Z" fill="black"/>
<path d="M17.1188 21.9393C16.4989 21.3192 15.6743 20.978 14.7974 20.978C13.9205 20.978 13.0958 21.3193 12.4756 21.9393C11.1956 23.2195 11.1956 25.3026 12.4756 26.5828L18.4377 32.5447C19.0578 33.1646 19.8823 33.5059 20.7593 33.5059C21.6364 33.5059 22.4609 33.1646 23.081 32.5445L35.5274 20.0981C36.8072 18.8176 36.8072 16.7347 35.5272 15.455C34.9071 14.8349 34.0826 14.4937 33.2055 14.4937C32.3284 14.4937 31.5039 14.835 30.8838 15.455L20.7592 25.5795L17.1188 21.9393ZM32.3117 16.883C32.5503 16.6444 32.8679 16.513 33.2056 16.513C33.5434 16.513 33.8607 16.6444 34.0995 16.883C34.5921 17.3756 34.5921 18.1776 34.0993 18.6704L21.6531 31.1166C21.4146 31.3552 21.097 31.4866 20.7593 31.4866C20.4216 31.4866 20.1041 31.3552 19.8654 31.1166L13.9035 25.1549C13.4107 24.662 13.4107 23.8601 13.9033 23.3674C14.142 23.1289 14.4595 22.9973 14.7973 22.9973C15.1351 22.9973 15.4524 23.1287 15.691 23.3673L20.0452 27.7216C20.2347 27.9108 20.4914 28.0173 20.7592 28.0173C21.0271 28.0173 21.2838 27.9109 21.4731 27.7216L32.3117 16.883Z" fill="black"/>
</g>
<defs>
<clipPath id="clip0_182_1262">
<rect width="48" height="48" fill="white"/>
</clipPath>
</defs>
</svg>
