<svg width="44" height="44" viewBox="0 0 44 44" fill="none" xmlns="http://www.w3.org/2000/svg">
<path fill-rule="evenodd" clip-rule="evenodd" d="M18.0467 8.49821C23.3203 8.49821 27.5953 12.7732 27.5953 18.0468C27.5953 20.116 26.937 22.0313 25.8186 23.5951C26.3605 23.7404 26.9025 23.8859 27.4444 24.0313C28.7941 23.2034 30.3487 22.6773 32.0146 22.5473C32.1934 21.9917 32.34 21.4216 32.4522 20.8393L34.5355 20.4921C34.9145 20.4289 35.2341 20.1778 35.2341 19.7934V16.3C35.2341 15.9158 34.9145 15.6646 34.5355 15.6013L32.4522 15.2542C32.0713 13.2782 31.2949 11.4431 30.2074 9.8353L31.4351 8.11647C31.6585 7.80375 31.7069 7.4001 31.4351 7.12845L28.965 4.65819C28.6932 4.38646 28.2896 4.43484 27.9769 4.65819L26.2581 5.88589C24.6506 4.79827 22.8153 4.02191 20.8392 3.64112L20.4921 1.55784C20.4289 1.17885 20.1777 0.859253 19.7934 0.859253H16.3C15.9157 0.859253 15.6645 1.17885 15.6013 1.55784L15.2541 3.64112C13.2782 4.02191 11.4428 4.79827 9.83525 5.88589L8.11651 4.65836C7.80387 4.43501 7.40022 4.38663 7.12849 4.65836L4.65831 7.12854C4.38658 7.40019 4.43496 7.80383 4.65831 8.11656L5.88601 9.83539C4.79856 11.4432 4.02212 13.2783 3.64125 15.2542L1.55796 15.6014C1.17898 15.6646 0.859375 15.9158 0.859375 16.3001V19.7935C0.859375 20.1778 1.17898 20.429 1.55796 20.4922L3.64125 20.8394C4.02212 22.8153 4.79856 24.6504 5.88601 26.2582L4.65831 27.9771C4.43496 28.2898 4.38658 28.6934 4.65831 28.9651L7.12849 31.4353C7.40022 31.707 7.80387 31.6586 8.11651 31.4353L9.83534 30.2076C11.4429 31.2952 13.2782 32.0715 15.2542 32.4523L15.6014 34.5356C15.6645 34.9146 15.9157 35.2343 16.3 35.2343H19.7935C20.1778 35.2343 20.429 34.9147 20.4921 34.5356L20.8393 32.4523C21.4216 32.3401 21.9917 32.1935 22.5472 32.0147C22.6773 30.349 23.2032 28.7946 24.0309 27.445C23.8855 26.9031 23.7401 26.3612 23.5947 25.8191C22.0309 26.9373 20.1157 27.5953 18.0468 27.5953C12.7733 27.5953 8.49824 23.3203 8.49824 18.0468C8.49824 12.7732 12.7732 8.49821 18.0467 8.49821Z" fill="white"/>
<path fill-rule="evenodd" clip-rule="evenodd" d="M32.0146 22.5473C30.3487 22.6773 28.794 23.2035 27.4444 24.0313C26.9025 23.8859 26.3606 23.7404 25.8186 23.5951C25.2564 23.4443 24.6941 23.2936 24.1319 23.1429C23.5426 22.9766 22.9781 23.5158 23.1396 24.1219C23.2912 24.6879 23.443 25.2535 23.5947 25.8192C23.7401 26.3613 23.8855 26.9032 24.0309 27.4451C23.2032 28.7946 22.6773 30.3491 22.5472 32.0149C22.5263 32.2832 22.5156 32.5545 22.5156 32.8282C22.5156 38.5237 27.1327 43.1408 32.8281 43.1408C38.5235 43.1408 43.1406 38.5237 43.1406 32.8282C43.1406 27.1328 38.5235 22.5157 32.8281 22.5157C32.5543 22.5157 32.283 22.5263 32.0146 22.5473ZM27.7457 31.6129C28.4168 30.9417 29.505 30.9417 30.1761 31.6129L31.539 32.9758L35.4801 29.0348C36.1512 28.3637 37.2394 28.3637 37.9105 29.0348C38.5816 29.706 38.5816 30.7941 37.9105 31.4652L32.7541 36.6214C32.083 37.2925 30.9948 37.2925 30.3237 36.6214L27.7456 34.0433C27.0745 33.3722 27.0745 32.2841 27.7457 31.6129Z" fill="#E5181E"/>
<path fill-rule="evenodd" clip-rule="evenodd" d="M35.4799 29.0348L31.5388 32.9758L30.1759 31.6129C29.5048 30.9418 28.4166 30.9418 27.7455 31.6129C27.0744 32.284 27.0744 33.3722 27.7455 34.0433L30.3236 36.6215C30.9947 37.2925 32.0829 37.2925 32.754 36.6215L37.9104 31.4652C38.5815 30.794 38.5815 29.7059 37.9104 29.0348C37.2392 28.3637 36.151 28.3637 35.4799 29.0348Z" fill="white"/>
<path d="M33.154 21.6611C33.1596 21.6377 33.1651 21.6143 33.1706 21.5909L34.6768 21.3399C35.511 21.2009 36.0936 20.5649 36.0935 19.7936V16.3003C36.0936 15.5288 35.5111 14.893 34.6768 14.7539L33.1709 14.5028C32.7872 12.8549 32.142 11.2976 31.2469 9.8588L32.1346 8.61615C32.626 7.92788 32.5883 7.06635 32.0429 6.521L29.5727 4.05082C29.0273 3.50529 28.1657 3.46756 27.4775 3.95913L26.2349 4.8466C24.7967 3.95165 23.239 3.30643 21.5908 2.92264L21.3397 1.41667C21.2008 0.582568 20.5648 0 19.7935 0H16.3001C15.5288 0 14.8929 0.582568 14.7538 1.41667L14.5028 2.92264C12.8546 3.30635 11.297 3.95165 9.85862 4.8466L8.61606 3.95904C7.92787 3.46748 7.06627 3.50512 6.52083 4.05065L4.05073 6.52083C3.5052 7.06618 3.46748 7.92779 3.95904 8.61606L4.8466 9.85863C3.95156 11.2974 3.30635 12.8547 2.92264 14.5027L1.41659 14.7537C0.582482 14.8929 0 15.5288 0 16.3001V19.7934C0 20.5649 0.582482 21.2009 1.41667 21.3398L2.92264 21.5909C3.30635 23.2388 3.95156 24.7961 4.8466 26.2349L3.95895 27.4775C3.46748 28.1658 3.5052 29.0273 4.05065 29.5727L6.52083 32.0429C7.06635 32.5885 7.92787 32.6262 8.61606 32.1346L9.85862 31.247C11.2969 32.142 12.8545 32.7872 14.5028 33.171L14.7538 34.6769C14.8928 35.511 15.5288 36.0936 16.3001 36.0936H19.7935C20.5648 36.0936 21.2007 35.511 21.3398 34.6769L21.5909 33.1707C21.6142 33.1652 21.6376 33.1597 21.661 33.1541C21.8341 39.1641 26.7769 44 32.8281 44C38.9883 44 43.9999 38.9883 43.9999 32.8282C44 26.777 39.1641 21.8341 33.154 21.6611ZM20.6768 31.6085C20.3241 31.6764 20.0508 31.9567 19.9917 32.311L19.6477 34.3749H16.4459L16.1019 32.311C16.0428 31.9566 15.7696 31.6764 15.4168 31.6085C13.5823 31.2549 11.8665 30.5441 10.3169 29.4958C10.0195 29.2945 9.62814 29.2994 9.33587 29.5083L7.63311 30.7245L5.3691 28.4605L6.58528 26.7578C6.79402 26.4656 6.799 26.0744 6.59783 25.7769C5.54939 24.2267 4.83852 22.5109 4.48506 20.6768C4.41708 20.3241 4.13684 20.0509 3.78252 19.9918L1.71874 19.6477V16.4459L3.78252 16.1019C4.13693 16.0428 4.41708 15.7696 4.48506 15.4169C4.83852 13.5829 5.54939 11.867 6.59783 10.3168C6.799 10.0193 6.79402 9.62814 6.58528 9.33587L5.36918 7.6332L7.6332 5.36918L9.33595 6.58536C9.62823 6.79419 10.0196 6.79909 10.317 6.59791C11.8665 5.54956 13.5825 4.83869 15.4169 4.48523C15.7696 4.41726 16.0429 4.13701 16.102 3.7827L16.4459 1.71874H19.6477L19.9917 3.78261C20.0508 4.13701 20.3241 4.41717 20.6768 4.48515C22.5113 4.83869 24.2271 5.54948 25.7767 6.59783C26.074 6.79901 26.4654 6.79411 26.7577 6.58528L28.4605 5.3691L30.7245 7.63311L29.5083 9.33578C29.2996 9.62806 29.2946 10.0192 29.4958 10.3168C30.5442 11.8669 31.2551 13.5827 31.6085 15.4168C31.6765 15.7695 31.9568 16.0427 32.3111 16.1018L34.3749 16.4459V19.6477L32.3111 19.9917C31.9567 20.0508 31.6765 20.3241 31.6085 20.6767C31.539 21.0374 31.4544 21.3978 31.3556 21.7533C29.9366 21.9411 28.5661 22.3996 27.3186 23.1078L27.1665 23.067C28.0122 21.5359 28.4547 19.8217 28.4547 18.0468C28.4547 12.3078 23.7857 7.63887 18.0468 7.63887C16.7218 7.63887 15.4303 7.88491 14.2081 8.37019C13.767 8.54533 13.5513 9.04497 13.7265 9.48609C13.9016 9.9272 14.401 10.1427 14.8424 9.96768C15.8619 9.56292 16.9399 9.35761 18.0469 9.35761C22.8381 9.35761 26.7361 13.2556 26.7361 18.0468C26.7361 19.6726 26.2916 21.2373 25.4457 22.6054C25.0834 22.5083 24.7211 22.4111 24.3588 22.314C23.7884 22.1556 23.1718 22.3161 22.748 22.7336C22.3177 23.1577 22.1537 23.7594 22.3096 24.3444C22.408 24.7117 22.5065 25.079 22.605 25.4462C21.237 26.2917 19.6724 26.7361 18.0469 26.7361C13.2557 26.7361 9.3577 22.8381 9.3577 18.0469C9.3577 16.9402 9.56291 15.8622 9.96759 14.8427C10.1427 14.4016 9.92703 13.9021 9.48592 13.7269C9.04471 13.5518 8.54525 13.7674 8.37011 14.2086C7.88491 15.4307 7.63895 16.7222 7.63895 18.0469C7.63895 23.7859 12.3079 28.4548 18.0469 28.4548C19.8213 28.4548 21.5356 28.0124 23.0666 27.1669C23.0802 27.2177 23.0938 27.2685 23.1075 27.3193C22.3996 28.5665 21.9412 29.9368 21.7534 31.3557C21.3978 31.4543 21.0374 31.539 20.6768 31.6085ZM32.8281 42.2813C27.6156 42.2813 23.375 38.0406 23.375 32.8282C23.375 31.0816 23.8551 29.3755 24.7635 27.8943C24.8869 27.6933 24.9221 27.4502 24.8609 27.2224C24.5724 26.1469 24.2839 25.0715 23.9957 23.9961C25.0426 24.2766 26.0891 24.5575 27.1359 24.8383L27.2218 24.8614C27.4496 24.9226 27.6926 24.8872 27.8937 24.7639C29.3752 23.8553 31.0815 23.3751 32.8282 23.3751C38.0406 23.3751 42.2813 27.6157 42.2813 32.8282C42.2813 38.0406 38.0406 42.2813 32.8281 42.2813Z" fill="black"/>
<path d="M34.8731 28.4271L31.5396 31.7605L30.7844 31.0052C29.7793 30.0002 28.1437 30.0002 27.1386 31.0052C26.1335 32.0104 26.1335 33.6459 27.1386 34.651L29.7167 37.2291C30.2193 37.7317 30.8795 37.9828 31.5396 37.9828C32.1996 37.9828 32.8599 37.7316 33.3625 37.2291L38.5187 32.0728C39.5238 31.0677 39.5238 29.4321 38.5187 28.427C37.5138 27.422 35.8783 27.4219 34.8731 28.4271ZM37.3035 30.8575L32.1472 36.0138C31.8122 36.3487 31.2671 36.3487 30.9321 36.0138L28.354 33.4356C28.1917 33.2734 28.1024 33.0576 28.1024 32.8281C28.1024 32.5987 28.1918 32.3829 28.354 32.2206C28.5163 32.0583 28.7321 31.969 28.9615 31.969C29.191 31.969 29.4068 32.0584 29.569 32.2206L30.9319 33.5835C31.093 33.7447 31.3116 33.8352 31.5396 33.8352C31.7675 33.8352 31.9861 33.7447 32.1472 33.5835L36.0882 29.6424C36.4233 29.3074 36.9683 29.3075 37.3033 29.6424C37.6385 29.9774 37.6385 30.5225 37.3035 30.8575Z" fill="black"/>
<path d="M11.2952 12.1543C11.7698 12.1543 12.1546 11.7696 12.1546 11.2949C12.1546 10.8203 11.7698 10.4355 11.2952 10.4355H11.2946C10.8199 10.4355 10.4355 10.8203 10.4355 11.2949C10.4355 11.7696 10.8205 12.1543 11.2952 12.1543Z" fill="black"/>
</svg>
