<svg width="44" height="44" viewBox="0 0 44 44" fill="none" xmlns="http://www.w3.org/2000/svg">
<path d="M36.9492 9.11353C38.0883 9.11353 39.0117 8.19012 39.0117 7.05103C39.0117 5.91194 38.0883 4.98853 36.9492 4.98853C35.8101 4.98853 34.8867 5.91194 34.8867 7.05103C34.8867 8.19012 35.8101 9.11353 36.9492 9.11353Z" fill="#4DBAF6"/>
<path d="M7.05176 39.0112C8.19085 39.0112 9.11427 38.0878 9.11427 36.9487C9.11427 35.8096 8.19085 34.8862 7.05176 34.8862C5.91267 34.8862 4.98926 35.8096 4.98926 36.9487C4.98926 38.0878 5.91267 39.0112 7.05176 39.0112Z" fill="#4DBAF6"/>
<path d="M36.9482 39.0114C38.0873 39.0114 39.0107 38.0879 39.0107 36.9489C39.0107 35.8098 38.0873 34.8864 36.9482 34.8864C35.8092 34.8864 34.8857 35.8098 34.8857 36.9489C34.8857 38.0879 35.8092 39.0114 36.9482 39.0114Z" fill="#FF5D5D"/>
<path d="M7.05079 9.1139C8.18987 9.1139 9.11329 8.19048 9.11329 7.0514C9.11329 5.91231 8.18987 4.98889 7.05079 4.98889C5.9117 4.98889 4.98828 5.91231 4.98828 7.0514C4.98828 8.19048 5.9117 9.1139 7.05079 9.1139Z" fill="#FF5D5D"/>
<path d="M35.0244 19.1805C34.6818 17.586 34.0543 16.0974 33.1971 14.7708L34.9201 13.0478L30.9428 9.07333L29.2212 10.7949C27.8947 9.93769 26.406 9.31026 24.8115 8.96771V6.53284H19.1887V8.96771C17.5941 9.31026 16.1055 9.93769 14.7789 10.7949L13.0574 9.07333L9.07999 13.0478L10.803 14.7708C9.94572 16.0974 9.31829 17.586 8.97575 19.1805H6.53434L6.53125 24.8034H8.97557C9.31812 26.3979 9.94555 27.8866 10.8029 29.2132L9.07329 30.9428L13.0477 34.9202L14.7788 33.1891C16.1053 34.0465 17.594 34.6739 19.1887 35.0165V37.4673H24.8115V35.0165C26.4061 34.674 27.8948 34.0465 29.2214 33.1891L30.9524 34.9202L34.9268 30.9428L33.1973 29.2132C34.0545 27.8867 34.6819 26.398 35.0246 24.8034H37.4688V19.1805H35.0244ZM22 28.5313C18.3929 28.5313 15.4688 25.6072 15.4688 22.0001C15.4688 18.3929 18.3929 15.4688 22 15.4688C25.6072 15.4688 28.5313 18.3929 28.5313 22.0001C28.5313 25.6072 25.6072 28.5313 22 28.5313Z" fill="#E5181E"/>
<path d="M12.6297 39.9914L12.5997 39.9756C12.1791 39.7556 11.6598 39.9182 11.4398 40.3389C11.2198 40.7595 11.3825 41.2787 11.8031 41.4987L11.8331 41.5144C11.9603 41.5809 12.0964 41.6125 12.2306 41.6125C12.5403 41.6125 12.8394 41.4447 12.9929 41.1512C13.2129 40.7306 13.0502 40.2114 12.6297 39.9914Z" fill="black"/>
<path d="M30.6548 3.65313L30.6776 3.66396C30.7974 3.72128 30.9237 3.74852 31.0483 3.74852C31.3686 3.74852 31.6762 3.56848 31.8239 3.26023C32.0289 2.83226 31.8482 2.31895 31.4201 2.1139L31.3887 2.09895C30.9595 1.89631 30.4473 2.07996 30.2446 2.50904C30.0419 2.93822 30.2256 3.4504 30.6548 3.65313Z" fill="black"/>
<path d="M39.4355 8.58458C40.1297 7.45862 39.9901 5.96039 39.0149 4.98525C37.8757 3.84606 36.022 3.84606 34.8827 4.98525C33.7435 6.12453 33.7435 7.9782 34.8827 9.11748C35.4523 9.68707 36.2006 9.97187 36.9488 9.97187C37.3554 9.97187 37.7618 9.88705 38.1397 9.71887C40.8152 13.2337 42.2814 17.5647 42.2814 22C42.2814 25.0171 41.635 27.9199 40.3601 30.6277C40.1579 31.0571 40.3422 31.5691 40.7716 31.7712C40.8899 31.8269 41.0144 31.8533 41.1371 31.8533C41.4596 31.8533 41.7687 31.6709 41.9152 31.3598C43.2987 28.4212 44.0002 25.2721 44.0002 22C44.0002 17.1496 42.3834 12.4142 39.4355 8.58458ZM36.0981 7.90206C35.629 7.43301 35.629 6.66971 36.0981 6.20058C36.3327 5.96606 36.6407 5.84875 36.9488 5.84875C37.2569 5.84875 37.565 5.96606 37.7995 6.20058C38.2687 6.66963 38.2687 7.43293 37.7995 7.90206C37.7958 7.90576 37.7918 7.90876 37.7881 7.91237C37.7877 7.91272 37.7872 7.91298 37.7868 7.91332C37.777 7.9214 37.7682 7.93033 37.7589 7.93876C37.2875 8.36948 36.5541 8.35813 36.0981 7.90206Z" fill="black"/>
<path d="M5.86043 34.2811C3.18494 30.7662 1.71875 26.4352 1.71875 21.9999C1.71875 19.1983 2.27915 16.4859 3.3844 13.9378C3.57329 13.5024 3.3734 12.9963 2.93795 12.8074C2.50268 12.6188 1.9965 12.8184 1.80753 13.2539C0.608181 16.0191 0 18.9617 0 21.9999C0 26.8503 1.61683 31.5857 4.56466 35.4154C3.87046 36.5413 4.01011 38.0396 4.98524 39.0147C5.55484 39.5843 6.3031 39.8691 7.05136 39.8691C7.79962 39.8691 8.54787 39.5843 9.11747 39.0147C10.2567 37.8754 10.2567 36.0218 9.11747 34.8825C8.23824 34.0034 6.93388 33.8034 5.86043 34.2811ZM7.90205 37.7994C7.433 38.2685 6.66962 38.2685 6.20057 37.7994C5.73144 37.3303 5.73144 36.567 6.20057 36.0979C6.20418 36.0943 6.20822 36.0913 6.21192 36.0877C6.21235 36.0873 6.21286 36.087 6.21329 36.0866C6.22309 36.0786 6.23185 36.0696 6.24122 36.0612C6.47025 35.852 6.76046 35.746 7.05136 35.746C7.35944 35.746 7.66753 35.8633 7.90205 36.0978C8.37119 36.5669 8.37119 37.3302 7.90205 37.7994Z" fill="black"/>
<path d="M34.8829 34.8826C34.0037 35.7617 33.8037 37.0662 34.2815 38.1396C30.7666 40.8151 26.4356 42.2813 22.0003 42.2813C19.6686 42.2813 17.383 41.8892 15.2069 41.1157C14.7597 40.9567 14.2683 41.1904 14.1094 41.6376C13.9505 42.0849 14.1841 42.5762 14.6313 42.7351C16.9926 43.5745 19.4719 44.0001 22.0003 44.0001C26.8507 44.0001 31.5861 42.3832 35.4158 39.4354C35.884 39.7241 36.4163 39.8692 36.949 39.8692C37.6972 39.8692 38.4455 39.5844 39.0151 39.0148C40.1543 37.8755 40.1543 36.0219 39.0151 34.8826C37.8758 33.7434 36.0221 33.7434 34.8829 34.8826ZM37.7998 37.7995C37.3307 38.2686 36.5673 38.2686 36.0983 37.7995C36.0946 37.7958 36.0916 37.7918 36.088 37.7881C36.0876 37.7876 36.0874 37.7872 36.087 37.7868C36.0789 37.777 36.07 37.7682 36.0616 37.7588C35.6309 37.2873 35.6422 36.554 36.0983 36.098C36.3328 35.8635 36.6409 35.7462 36.949 35.7462C37.2571 35.7462 37.5651 35.8635 37.7997 36.098C38.2689 36.5671 38.2689 37.3304 37.7998 37.7995Z" fill="black"/>
<path d="M7.05136 9.97186C7.79962 9.97186 8.54788 9.68706 9.11748 9.11747C9.99662 8.23833 10.1966 6.93388 9.71887 5.86043C13.2337 3.18494 17.5647 1.71875 22 1.71875C24.0375 1.71875 26.0481 2.01979 27.9762 2.61345C28.4296 2.75301 28.9108 2.49872 29.0505 2.04506C29.1901 1.59148 28.9356 1.11049 28.4821 0.970838C26.39 0.326649 24.2092 0 22 0C17.1496 0 12.4142 1.61683 8.58458 4.56466C7.45862 3.87046 5.96039 4.01019 4.98525 4.98524C3.84606 6.12452 3.84606 7.97819 4.98525 9.11747C5.55485 9.68706 6.30311 9.97186 7.05136 9.97186ZM6.20058 6.20057C6.43511 5.96605 6.74319 5.84874 7.05128 5.84874C7.35937 5.84874 7.66745 5.96605 7.90198 6.20057C7.90567 6.20427 7.90868 6.20831 7.91229 6.212C7.91263 6.21243 7.91289 6.21286 7.91323 6.21329C7.91633 6.21707 7.91994 6.22025 7.92312 6.22403C8.36991 6.69472 8.36355 7.44057 7.90198 7.90214C7.43293 8.37127 6.66954 8.37127 6.2005 7.90214C5.73145 7.43301 5.73145 6.66971 6.20058 6.20057Z" fill="black"/>
<path d="M18.3353 35.6949V37.466C18.3353 37.694 18.4259 37.9127 18.5871 38.0738C18.7482 38.2349 18.9668 38.3254 19.1947 38.3254C19.1948 38.3254 19.1949 38.3254 19.195 38.3254L24.8178 38.3234C25.2923 38.3232 25.6769 37.9384 25.6769 37.464V35.6949C26.8779 35.3746 28.0241 34.9 29.0987 34.2781L30.3485 35.5279C30.6841 35.8634 31.2283 35.8634 31.5639 35.5279L35.5399 31.552C35.8754 31.2164 35.8754 30.6722 35.5399 30.3366L34.29 29.0868C34.9119 28.0121 35.3865 26.866 35.7067 25.6649H37.4666C37.6946 25.6649 37.9132 25.5743 38.0743 25.4131C38.2355 25.2519 38.326 25.0332 38.326 24.8052L38.3239 19.1824C38.3237 18.7079 37.939 18.3233 37.4645 18.3233H35.7065C35.3862 17.1223 34.9116 15.9761 34.2898 14.9016L35.5329 13.6586C35.8685 13.323 35.8685 12.7788 35.5329 12.4431L31.557 8.46733C31.2214 8.13183 30.6772 8.13183 30.3416 8.46733L29.0985 9.71041C28.024 9.08848 26.8779 8.61402 25.6768 8.29373V6.53588C25.6768 6.06142 25.2922 5.67667 24.8178 5.6765L19.1949 5.67444C19.1949 5.67444 19.1948 5.67444 19.1946 5.67444C18.9668 5.67444 18.7482 5.76493 18.587 5.92606C18.4258 6.0872 18.3352 6.30582 18.3352 6.53381V8.29373C17.1342 8.61394 15.988 9.08848 14.9134 9.71041L13.6657 8.46277C13.3301 8.12718 12.7863 8.1271 12.4506 8.46243L8.4725 12.4362C8.3112 12.5973 8.22054 12.8159 8.22045 13.0439C8.22045 13.2719 8.31094 13.4906 8.47216 13.6519L9.72195 14.9016C9.10002 15.9762 8.62547 17.1224 8.30518 18.3235H6.53624C6.06178 18.3235 5.67704 18.7081 5.67687 19.1825L5.6748 24.8054C5.67472 25.0334 5.76521 25.2521 5.92643 25.4133C6.08765 25.5745 6.30619 25.6651 6.53418 25.6651H8.30536C8.62565 26.8662 9.10019 28.0124 9.72212 29.087L8.46769 30.3413C8.13211 30.6769 8.13211 31.221 8.46769 31.5567L12.4436 35.5326C12.7792 35.8681 13.3233 35.8681 13.659 35.5326L14.9134 34.2782C15.9879 34.9001 17.1342 35.3747 18.3353 35.6949ZM14.1765 32.5843L13.0513 33.7095L10.2907 30.949L11.416 29.8237C11.7024 29.5373 11.7499 29.0897 11.5301 28.7495C10.7135 27.4861 10.1389 26.0985 9.82241 24.6251C9.73733 24.2291 9.38731 23.9462 8.9822 23.9462H7.3939L7.39536 20.0422H8.98229C9.38731 20.0422 9.73742 19.7594 9.8225 19.3634C10.1391 17.89 10.7137 16.5023 11.5302 15.239C11.7501 14.8988 11.7025 14.4512 11.4161 14.1647L10.2957 13.0444L13.0578 10.2853L14.1767 11.4042C14.4631 11.6907 14.9107 11.7382 15.2508 11.5184C16.5143 10.7019 17.9019 10.1273 19.3752 9.8107C19.7712 9.72563 20.0541 9.3756 20.0541 8.97049V7.39354L23.9581 7.395V8.97066C23.9581 9.37569 24.2409 9.7258 24.6369 9.81088C26.1103 10.1275 27.498 10.702 28.7612 11.5185C29.1013 11.7385 29.549 11.6908 29.8353 11.4045L30.9493 10.2905L33.7099 13.0511L32.5959 14.1651C32.3095 14.4515 32.2619 14.8991 32.4818 15.2392C33.2983 16.5025 33.8729 17.89 34.1895 19.3634C34.2746 19.7594 34.6246 20.0423 35.0297 20.0423H36.6054L36.6069 23.9463H35.0298C34.6248 23.9463 34.2747 24.2292 34.1896 24.6252C33.873 26.0985 33.2985 27.4861 32.4819 28.7496C32.2621 29.0897 32.3096 29.5373 32.5961 29.8237L33.7169 30.9445L30.9563 33.7051L29.8356 32.5843C29.5491 32.2978 29.1017 32.2503 28.7613 32.4702C27.498 33.2867 26.1103 33.8613 24.6369 34.1779C24.2409 34.263 23.9581 34.613 23.9581 35.0181V36.605L20.0541 36.6065V35.0182C20.0541 34.6132 19.7712 34.2631 19.3752 34.178C17.9018 33.8614 16.5142 33.2869 15.2508 32.4703C15.1077 32.3778 14.9458 32.3326 14.7846 32.3326C14.5626 32.3325 14.3426 32.4182 14.1765 32.5843Z" fill="black"/>
<path d="M22.0004 29.3871C23.893 29.3871 25.7855 28.6667 27.2265 27.226C29.1943 25.2582 29.8882 22.3885 29.0375 19.7369C28.8924 19.2849 28.4084 19.036 27.9567 19.1811C27.5047 19.3261 27.2559 19.81 27.4009 20.2619C28.054 22.2975 27.5214 24.5004 26.0111 26.0107C23.7996 28.2223 20.2013 28.2222 17.9899 26.0107C15.7784 23.7992 15.7784 20.2009 17.9899 17.9895C19.4644 16.515 21.6235 15.9689 23.6243 16.5643C24.0791 16.6997 24.5578 16.4406 24.6931 15.9858C24.8285 15.5309 24.5695 15.0523 24.1146 14.917C21.5083 14.1412 18.6957 14.8529 16.7745 16.7742C13.8929 19.6557 13.8929 24.3445 16.7745 27.2262C18.2153 28.6668 20.1078 29.3871 22.0004 29.3871Z" fill="black"/>
<path d="M26.0718 18.0517C26.2403 18.2254 26.4643 18.3127 26.6886 18.3127C26.9042 18.3127 27.1201 18.2321 27.2869 18.0701C27.6276 17.7396 27.6359 17.1955 27.3053 16.8549C27.2792 16.828 27.2529 16.8013 27.2264 16.7747C26.8911 16.4389 26.347 16.4383 26.011 16.7737C25.6751 17.109 25.6747 17.6531 26.01 17.989C26.0308 18.0098 26.0514 18.0307 26.0718 18.0517Z" fill="black"/>
</svg>
