<svg width="38" height="44" viewBox="0 0 38 44" fill="none" xmlns="http://www.w3.org/2000/svg">
<path d="M10 20.5L8.5 21.5V23L16 30L29.5 17.5L29 15.5L27.5 14.5L25.5 15L15.5 24.5L11 20.5H10Z" fill="#E5181E"/>
<path d="M36.8425 7.59783C30.7887 5.93907 24.6992 3.35622 19.2325 0.128584C18.9421 -0.0428612 18.5818 -0.0428612 18.2915 0.128584C12.6671 3.44895 6.9067 5.89206 0.680967 7.59783C0.278781 7.70791 0 8.07349 0 8.49055V17.9476C0 27.6863 4.49272 34.1326 8.26176 37.8254C12.3194 41.8013 17.0459 44 18.762 44C20.4779 44 25.2045 41.8013 29.2621 37.8254C33.031 34.1327 37.5235 27.6864 37.5235 17.9476V8.49046C37.5235 8.07349 37.2447 7.70791 36.8425 7.59783ZM35.6724 17.9475C35.6724 27.0434 31.482 33.0586 27.9665 36.5031C23.9763 40.4128 19.7102 42.1488 18.762 42.1488C17.8139 42.1488 13.5474 40.4128 9.55718 36.5031C6.04174 33.0585 1.85118 27.0434 1.85118 17.9475V9.19308C7.80474 7.5027 13.3492 5.14363 18.7622 1.99806C24.0399 5.06018 29.8611 7.53655 35.6724 9.19274V17.9475Z" fill="black"/>
<path d="M10.5572 9.0905C10.3698 8.61484 9.83247 8.38117 9.35672 8.5686C7.70329 9.2201 6.0062 9.81977 4.31263 10.351C3.92669 10.4722 3.66406 10.8297 3.66406 11.2341V14.8083C3.66406 15.3195 4.07854 15.7339 4.58961 15.7339C5.10068 15.7339 5.51515 15.3195 5.51515 14.8083V11.9105C7.03444 11.419 8.55209 10.8752 10.0353 10.2908C10.5109 10.1035 10.7446 9.56616 10.5572 9.0905Z" fill="black"/>
<path d="M12.3144 9.26506C12.4386 9.26506 12.5646 9.24005 12.6855 9.18729L12.7026 9.1799C13.1708 8.97468 13.3817 8.42958 13.1765 7.96148C12.9711 7.49321 12.4229 7.28137 11.9552 7.48642L11.9402 7.49286C11.4717 7.69748 11.2601 8.24215 11.4647 8.71051C11.6166 9.05821 11.9573 9.26506 12.3144 9.26506Z" fill="black"/>
<path d="M29.7893 29.8443C29.3616 29.5647 28.788 29.685 28.5081 30.1128C27.7454 31.2802 26.8507 32.3981 25.8483 33.4351C25.024 34.2878 24.1307 35.0825 23.1934 35.7971C22.787 36.107 22.7088 36.6877 23.0186 37.0943C23.2009 37.3331 23.4765 37.4588 23.7553 37.4588C23.951 37.4588 24.1483 37.397 24.3158 37.2691C25.3269 36.4982 26.2903 35.6411 27.179 34.7217C28.2628 33.6008 29.2313 32.3908 30.0578 31.1254C30.3376 30.6974 30.2172 30.1238 29.7893 29.8443Z" fill="black"/>
<path d="M21.0464 37.25L20.9933 37.2813C20.551 37.5374 20.3998 38.1036 20.6559 38.5459C20.8275 38.8424 21.1382 39.0079 21.4578 39.0079C21.615 39.0079 21.7747 38.9678 21.9206 38.8831L21.9818 38.8471C22.4229 38.5888 22.5711 38.0219 22.3128 37.5807C22.0543 37.1398 21.4873 36.9919 21.0464 37.25Z" fill="black"/>
<path d="M12.4527 20.1107C11.8844 19.5423 11.1286 19.2295 10.3247 19.2295C9.52085 19.2295 8.76494 19.5424 8.19638 20.1107C7.02308 21.2842 7.02308 23.1938 8.19638 24.3672L13.6617 29.8323C14.23 30.4005 14.9859 30.7134 15.7898 30.7134C16.5938 30.7134 17.3496 30.4005 17.918 29.8322L29.3272 18.4229C30.5004 17.2491 30.5004 15.3399 29.327 14.1667C28.7586 13.5983 28.0028 13.2855 27.1988 13.2855C26.3948 13.2855 25.639 13.5984 25.0705 14.1667L15.7897 23.4475L12.4527 20.1107ZM26.3795 15.4757C26.5982 15.257 26.8893 15.1366 27.1988 15.1366C27.5086 15.1366 27.7994 15.257 28.0183 15.4757C28.4699 15.9273 28.4699 16.6624 28.0181 17.1142L16.6091 28.5232C16.3904 28.742 16.0994 28.8624 15.7898 28.8624C15.4803 28.8624 15.1892 28.742 14.9704 28.5232L9.50529 23.0583C9.05352 22.6065 9.05352 21.8714 9.50512 21.4198C9.72392 21.2011 10.015 21.0806 10.3246 21.0806C10.6343 21.0806 10.9252 21.201 11.1439 21.4197L15.1352 25.4111C15.3089 25.5846 15.5442 25.6822 15.7897 25.6822C16.0352 25.6822 16.2705 25.5847 16.444 25.4111L26.3795 15.4757Z" fill="black"/>
</svg>
