<svg width="48" height="48" viewBox="0 0 48 48" fill="none" xmlns="http://www.w3.org/2000/svg">
<path d="M42.3993 36.4137H47.1993V27.6136L39.9993 16.4136H31.1992V36.4137H34.3992" fill="#E5181E"/>
<path d="M7.19886 36.4135H0.798828V10.8135H31.1989V36.4135H15.1988" fill="#E5181E"/>
<path d="M5.59883 32.4136H0.798828V34.0136H5.59883V32.4136Z" fill="#F46B27"/>
<path d="M31.1988 32.4136H16.7988V34.0136H31.1988V32.4136Z" fill="#F46B27"/>
<path d="M47.2 32.4136H44V34.0136H47.2V32.4136Z" fill="#DBDBDB"/>
<path d="M31.1992 13.2139H3.19922V14.8139H31.1992V13.2139Z" fill="#F46B27"/>
<path d="M11.1993 40.4136C13.4084 40.4136 15.1993 38.6228 15.1993 36.4136C15.1993 34.2044 13.4084 32.4136 11.1993 32.4136C8.99009 32.4136 7.19922 34.2044 7.19922 36.4136C7.19922 38.6228 8.99009 40.4136 11.1993 40.4136Z" fill="white"/>
<path d="M38.3985 40.4136C40.6076 40.4136 42.3985 38.6228 42.3985 36.4136C42.3985 34.2044 40.6076 32.4136 38.3985 32.4136C36.1893 32.4136 34.3984 34.2044 34.3984 36.4136C34.3984 38.6228 36.1893 40.4136 38.3985 40.4136Z" fill="white"/>
<path d="M12.0004 35.6133H10.4004V37.2133H12.0004V35.6133Z" fill="#DBDBDB"/>
<path d="M39.1996 35.6133H37.5996V37.2133H39.1996V35.6133Z" fill="#DBDBDB"/>
<path d="M14.3993 6.81348H3.19922V8.41351H14.3993V6.81348Z" fill="#DBDBDB"/>
<path d="M1.60003 6.81348H0V8.41351H1.60003V6.81348Z" fill="#DBDBDB"/>
<path d="M42.0564 19.6138H34.4004V26.8138H46.6884L42.0564 19.6138Z" fill="white"/>
<path d="M32.7993 16.4136H31.1992V36.4135H32.7993V16.4136Z" fill="#E5181E"/>
<path d="M46.6884 26.8135L42.3444 20.0535C40.2092 22.5871 37.4804 24.5519 34.4004 25.7734V26.8134H46.6884V26.8135Z" fill="white"/>
<path d="M40.672 15.9816C40.5248 15.7528 40.272 15.6144 40 15.6136H32.0001V10.8136C32.0001 10.3721 31.6417 10.0137 31.2001 10.0137H0.799969C0.358406 10.0137 0 10.3721 0 10.8136V36.4137C0 36.8552 0.358406 37.2136 0.799969 37.2136H6.47194C6.92953 39.8249 9.41672 41.5705 12.0279 41.1136C14.0191 40.7648 15.5791 39.2056 15.9279 37.2136H33.6719C34.1295 39.8249 36.6167 41.5705 39.2279 41.1136C41.2191 40.7648 42.7791 39.2056 43.1279 37.2136H47.1999C47.6415 37.2136 47.9999 36.8552 47.9999 36.4137V27.6136C47.9999 27.4601 47.9551 27.3105 47.8719 27.1816L40.672 15.9816ZM41.6 20.4136L45.224 26.0136H35.2V20.4136H41.6ZM11.2 39.6136C9.43284 39.6136 8.00006 38.1809 8.00006 36.4137C8.00006 34.6465 9.43284 33.2137 11.2 33.2137C12.9672 33.2137 14.4 34.6465 14.4 36.4137C14.4 38.1809 12.9672 39.6136 11.2 39.6136ZM11.2 31.6137C8.85919 31.6161 6.86241 33.3057 6.47203 35.6137H1.60003V34.0137H5.60006V32.4136H1.60003V11.6136H30.4V13.2136H3.19997V14.8137H30.3999V32.4136H16.8V34.0137H30.4V35.6137H15.928C15.5376 33.3064 13.5408 31.616 11.2 31.6137ZM38.4 39.6136C36.6328 39.6136 35.2 38.1809 35.2 36.4137C35.2 34.6465 36.6328 33.2137 38.4 33.2137C40.1672 33.2137 41.6 34.6465 41.6 36.4137C41.6 38.1809 40.1672 39.6136 38.4 39.6136ZM43.128 35.6136C42.6704 33.0024 40.1832 31.2568 37.572 31.7136C35.5808 32.0625 34.0208 33.6216 33.672 35.6136H32V17.2137H39.56L40.592 18.8137H34.4C33.9584 18.8137 33.6 19.1721 33.6 19.6137V26.8137C33.6 27.2552 33.9584 27.6136 34.4 27.6136H46.248L46.4 27.8457V32.4136H44V34.0137H46.4V35.6137H43.128V35.6136Z" fill="black"/>
<path d="M12.0004 35.6138H10.4004V37.2138H12.0004V35.6138Z" fill="black"/>
<path d="M39.1996 35.6138H37.5996V37.2138H39.1996V35.6138Z" fill="black"/>
<path d="M14.3993 6.81348H3.19922V8.41351H14.3993V6.81348Z" fill="black"/>
<path d="M1.60003 6.81348H0V8.41351H1.60003V6.81348Z" fill="black"/>
</svg>
